<svg width="300" height="225" viewBox="0 0 300 225" fill="none" xmlns="http://www.w3.org/2000/svg">
<g id="brown-1">
<rect id="Rectangle 1" width="300" height="225" fill="#A77947"/>
<path id="Not being a burden" d="M74.2734 119H72.6354L66.0474 109.01V119H64.4094V106.436H66.0474L72.6354 116.408V106.436H74.2734V119ZM81.3677 119.162C80.4437 119.162 79.6037 118.952 78.8477 118.532C78.1037 118.112 77.5157 117.518 77.0837 116.75C76.6637 115.97 76.4537 115.07 76.4537 114.05C76.4537 113.042 76.6697 112.154 77.1017 111.386C77.5457 110.606 78.1457 110.012 78.9017 109.604C79.6577 109.184 80.5037 108.974 81.4397 108.974C82.3757 108.974 83.2217 109.184 83.9777 109.604C84.7337 110.012 85.3277 110.6 85.7597 111.368C86.2037 112.136 86.4257 113.03 86.4257 114.05C86.4257 115.07 86.1977 115.97 85.7417 116.75C85.2977 117.518 84.6917 118.112 83.9237 118.532C83.1557 118.952 82.3037 119.162 81.3677 119.162ZM81.3677 117.722C81.9557 117.722 82.5077 117.584 83.0237 117.308C83.5397 117.032 83.9537 116.618 84.2657 116.066C84.5897 115.514 84.7517 114.842 84.7517 114.05C84.7517 113.258 84.5957 112.586 84.2837 112.034C83.9717 111.482 83.5637 111.074 83.0597 110.81C82.5557 110.534 82.0097 110.396 81.4217 110.396C80.8217 110.396 80.2697 110.534 79.7657 110.81C79.2737 111.074 78.8777 111.482 78.5777 112.034C78.2777 112.586 78.1277 113.258 78.1277 114.05C78.1277 114.854 78.2717 115.532 78.5597 116.084C78.8597 116.636 79.2557 117.05 79.7477 117.326C80.2397 117.59 80.7797 117.722 81.3677 117.722ZM90.5774 110.486V116.3C90.5774 116.78 90.6794 117.122 90.8834 117.326C91.0874 117.518 91.4414 117.614 91.9454 117.614H93.1514V119H91.6754C90.7634 119 90.0794 118.79 89.6234 118.37C89.1674 117.95 88.9394 117.26 88.9394 116.3V110.486H87.6614V109.136H88.9394V106.652H90.5774V109.136H93.1514V110.486H90.5774ZM101.573 110.972C101.909 110.384 102.401 109.904 103.049 109.532C103.697 109.16 104.435 108.974 105.263 108.974C106.151 108.974 106.949 109.184 107.657 109.604C108.365 110.024 108.923 110.618 109.331 111.386C109.739 112.142 109.943 113.024 109.943 114.032C109.943 115.028 109.739 115.916 109.331 116.696C108.923 117.476 108.359 118.082 107.639 118.514C106.931 118.946 106.139 119.162 105.263 119.162C104.411 119.162 103.661 118.976 103.013 118.604C102.377 118.232 101.897 117.758 101.573 117.182V119H99.9348V105.68H101.573V110.972ZM108.269 114.032C108.269 113.288 108.119 112.64 107.819 112.088C107.519 111.536 107.111 111.116 106.595 110.828C106.091 110.54 105.533 110.396 104.921 110.396C104.321 110.396 103.763 110.546 103.247 110.846C102.743 111.134 102.335 111.56 102.023 112.124C101.723 112.676 101.573 113.318 101.573 114.05C101.573 114.794 101.723 115.448 102.023 116.012C102.335 116.564 102.743 116.99 103.247 117.29C103.763 117.578 104.321 117.722 104.921 117.722C105.533 117.722 106.091 117.578 106.595 117.29C107.111 116.99 107.519 116.564 107.819 116.012C108.119 115.448 108.269 114.788 108.269 114.032ZM121.099 113.69C121.099 114.002 121.081 114.332 121.045 114.68H113.161C113.221 115.652 113.551 116.414 114.151 116.966C114.763 117.506 115.501 117.776 116.365 117.776C117.073 117.776 117.661 117.614 118.129 117.29C118.609 116.954 118.945 116.51 119.137 115.958H120.901C120.637 116.906 120.109 117.68 119.317 118.28C118.525 118.868 117.541 119.162 116.365 119.162C115.429 119.162 114.589 118.952 113.845 118.532C113.113 118.112 112.537 117.518 112.117 116.75C111.697 115.97 111.487 115.07 111.487 114.05C111.487 113.03 111.691 112.136 112.099 111.368C112.507 110.6 113.077 110.012 113.809 109.604C114.553 109.184 115.405 108.974 116.365 108.974C117.301 108.974 118.129 109.178 118.849 109.586C119.569 109.994 120.121 110.558 120.505 111.278C120.901 111.986 121.099 112.79 121.099 113.69ZM119.407 113.348C119.407 112.724 119.269 112.19 118.993 111.746C118.717 111.29 118.339 110.948 117.859 110.72C117.391 110.48 116.869 110.36 116.293 110.36C115.465 110.36 114.757 110.624 114.169 111.152C113.593 111.68 113.263 112.412 113.179 113.348H119.407ZM124.107 107.534C123.795 107.534 123.531 107.426 123.315 107.21C123.099 106.994 122.991 106.73 122.991 106.418C122.991 106.106 123.099 105.842 123.315 105.626C123.531 105.41 123.795 105.302 124.107 105.302C124.407 105.302 124.659 105.41 124.863 105.626C125.079 105.842 125.187 106.106 125.187 106.418C125.187 106.73 125.079 106.994 124.863 107.21C124.659 107.426 124.407 107.534 124.107 107.534ZM124.899 109.136V119H123.261V109.136H124.899ZM132.497 108.956C133.697 108.956 134.669 109.322 135.413 110.054C136.157 110.774 136.529 111.818 136.529 113.186V119H134.909V113.42C134.909 112.436 134.663 111.686 134.171 111.17C133.679 110.642 133.007 110.378 132.155 110.378C131.291 110.378 130.601 110.648 130.085 111.188C129.581 111.728 129.329 112.514 129.329 113.546V119H127.691V109.136H129.329V110.54C129.653 110.036 130.091 109.646 130.643 109.37C131.207 109.094 131.825 108.956 132.497 108.956ZM143.272 108.974C144.124 108.974 144.868 109.16 145.504 109.532C146.152 109.904 146.632 110.372 146.944 110.936V109.136H148.6V119.216C148.6 120.116 148.408 120.914 148.024 121.61C147.64 122.318 147.088 122.87 146.368 123.266C145.66 123.662 144.832 123.86 143.884 123.86C142.588 123.86 141.508 123.554 140.644 122.942C139.78 122.33 139.27 121.496 139.114 120.44H140.734C140.914 121.04 141.286 121.52 141.85 121.88C142.414 122.252 143.092 122.438 143.884 122.438C144.784 122.438 145.516 122.156 146.08 121.592C146.656 121.028 146.944 120.236 146.944 119.216V117.146C146.62 117.722 146.14 118.202 145.504 118.586C144.868 118.97 144.124 119.162 143.272 119.162C142.396 119.162 141.598 118.946 140.878 118.514C140.17 118.082 139.612 117.476 139.204 116.696C138.796 115.916 138.592 115.028 138.592 114.032C138.592 113.024 138.796 112.142 139.204 111.386C139.612 110.618 140.17 110.024 140.878 109.604C141.598 109.184 142.396 108.974 143.272 108.974ZM146.944 114.05C146.944 113.306 146.794 112.658 146.494 112.106C146.194 111.554 145.786 111.134 145.27 110.846C144.766 110.546 144.208 110.396 143.596 110.396C142.984 110.396 142.426 110.54 141.922 110.828C141.418 111.116 141.016 111.536 140.716 112.088C140.416 112.64 140.266 113.288 140.266 114.032C140.266 114.788 140.416 115.448 140.716 116.012C141.016 116.564 141.418 116.99 141.922 117.29C142.426 117.578 142.984 117.722 143.596 117.722C144.208 117.722 144.766 117.578 145.27 117.29C145.786 116.99 146.194 116.564 146.494 116.012C146.794 115.448 146.944 114.794 146.944 114.05ZM155.555 114.032C155.555 113.024 155.759 112.142 156.167 111.386C156.575 110.618 157.133 110.024 157.841 109.604C158.561 109.184 159.359 108.974 160.235 108.974C161.099 108.974 161.849 109.16 162.485 109.532C163.121 109.904 163.595 110.372 163.907 110.936V109.136H165.563V119H163.907V117.164C163.583 117.74 163.097 118.22 162.449 118.604C161.813 118.976 161.069 119.162 160.217 119.162C159.341 119.162 158.549 118.946 157.841 118.514C157.133 118.082 156.575 117.476 156.167 116.696C155.759 115.916 155.555 115.028 155.555 114.032ZM163.907 114.05C163.907 113.306 163.757 112.658 163.457 112.106C163.157 111.554 162.749 111.134 162.233 110.846C161.729 110.546 161.171 110.396 160.559 110.396C159.947 110.396 159.389 110.54 158.885 110.828C158.381 111.116 157.979 111.536 157.679 112.088C157.379 112.64 157.229 113.288 157.229 114.032C157.229 114.788 157.379 115.448 157.679 116.012C157.979 116.564 158.381 116.99 158.885 117.29C159.389 117.578 159.947 117.722 160.559 117.722C161.171 117.722 161.729 117.578 162.233 117.29C162.749 116.99 163.157 116.564 163.457 116.012C163.757 115.448 163.907 114.794 163.907 114.05ZM174.768 110.972C175.104 110.384 175.596 109.904 176.244 109.532C176.892 109.16 177.63 108.974 178.458 108.974C179.346 108.974 180.144 109.184 180.852 109.604C181.56 110.024 182.118 110.618 182.526 111.386C182.934 112.142 183.138 113.024 183.138 114.032C183.138 115.028 182.934 115.916 182.526 116.696C182.118 117.476 181.554 118.082 180.834 118.514C180.126 118.946 179.334 119.162 178.458 119.162C177.606 119.162 176.856 118.976 176.208 118.604C175.572 118.232 175.092 117.758 174.768 117.182V119H173.13V105.68H174.768V110.972ZM181.464 114.032C181.464 113.288 181.314 112.64 181.014 112.088C180.714 111.536 180.306 111.116 179.79 110.828C179.286 110.54 178.728 110.396 178.116 110.396C177.516 110.396 176.958 110.546 176.442 110.846C175.938 111.134 175.53 111.56 175.218 112.124C174.918 112.676 174.768 113.318 174.768 114.05C174.768 114.794 174.918 115.448 175.218 116.012C175.53 116.564 175.938 116.99 176.442 117.29C176.958 117.578 177.516 117.722 178.116 117.722C178.728 117.722 179.286 117.578 179.79 117.29C180.306 116.99 180.714 116.564 181.014 116.012C181.314 115.448 181.464 114.788 181.464 114.032ZM194.042 109.136V119H192.404V117.542C192.092 118.046 191.654 118.442 191.09 118.73C190.538 119.006 189.926 119.144 189.254 119.144C188.486 119.144 187.796 118.988 187.184 118.676C186.572 118.352 186.086 117.872 185.726 117.236C185.378 116.6 185.204 115.826 185.204 114.914V109.136H186.824V114.698C186.824 115.67 187.07 116.42 187.562 116.948C188.054 117.464 188.726 117.722 189.578 117.722C190.454 117.722 191.144 117.452 191.648 116.912C192.152 116.372 192.404 115.586 192.404 114.554V109.136H194.042ZM198.446 110.738C198.734 110.174 199.142 109.736 199.67 109.424C200.21 109.112 200.864 108.956 201.632 108.956V110.648H201.2C199.364 110.648 198.446 111.644 198.446 113.636V119H196.808V109.136H198.446V110.738ZM202.911 114.032C202.911 113.024 203.115 112.142 203.523 111.386C203.931 110.618 204.489 110.024 205.197 109.604C205.917 109.184 206.721 108.974 207.609 108.974C208.377 108.974 209.091 109.154 209.751 109.514C210.411 109.862 210.915 110.324 211.263 110.9V105.68H212.919V119H211.263V117.146C210.939 117.734 210.459 118.22 209.823 118.604C209.187 118.976 208.443 119.162 207.591 119.162C206.715 119.162 205.917 118.946 205.197 118.514C204.489 118.082 203.931 117.476 203.523 116.696C203.115 115.916 202.911 115.028 202.911 114.032ZM211.263 114.05C211.263 113.306 211.113 112.658 210.813 112.106C210.513 111.554 210.105 111.134 209.589 110.846C209.085 110.546 208.527 110.396 207.915 110.396C207.303 110.396 206.745 110.54 206.241 110.828C205.737 111.116 205.335 111.536 205.035 112.088C204.735 112.64 204.585 113.288 204.585 114.032C204.585 114.788 204.735 115.448 205.035 116.012C205.335 116.564 205.737 116.99 206.241 117.29C206.745 117.578 207.303 117.722 207.915 117.722C208.527 117.722 209.085 117.578 209.589 117.29C210.105 116.99 210.513 116.564 210.813 116.012C211.113 115.448 211.263 114.794 211.263 114.05ZM224.687 113.69C224.687 114.002 224.669 114.332 224.633 114.68H216.749C216.809 115.652 217.139 116.414 217.739 116.966C218.351 117.506 219.089 117.776 219.953 117.776C220.661 117.776 221.249 117.614 221.717 117.29C222.197 116.954 222.533 116.51 222.725 115.958H224.489C224.225 116.906 223.697 117.68 222.905 118.28C222.113 118.868 221.129 119.162 219.953 119.162C219.017 119.162 218.177 118.952 217.433 118.532C216.701 118.112 216.125 117.518 215.705 116.75C215.285 115.97 215.075 115.07 215.075 114.05C215.075 113.03 215.279 112.136 215.687 111.368C216.095 110.6 216.665 110.012 217.397 109.604C218.141 109.184 218.993 108.974 219.953 108.974C220.889 108.974 221.717 109.178 222.437 109.586C223.157 109.994 223.709 110.558 224.093 111.278C224.489 111.986 224.687 112.79 224.687 113.69ZM222.995 113.348C222.995 112.724 222.857 112.19 222.581 111.746C222.305 111.29 221.927 110.948 221.447 110.72C220.979 110.48 220.457 110.36 219.881 110.36C219.053 110.36 218.345 110.624 217.757 111.152C217.181 111.68 216.851 112.412 216.767 113.348H222.995ZM231.655 108.956C232.855 108.956 233.827 109.322 234.571 110.054C235.315 110.774 235.687 111.818 235.687 113.186V119H234.067V113.42C234.067 112.436 233.821 111.686 233.329 111.17C232.837 110.642 232.165 110.378 231.313 110.378C230.449 110.378 229.759 110.648 229.243 111.188C228.739 111.728 228.487 112.514 228.487 113.546V119H226.849V109.136H228.487V110.54C228.811 110.036 229.249 109.646 229.801 109.37C230.365 109.094 230.983 108.956 231.655 108.956Z" fill="white"/>
</g>
</svg>
