<svg width="300" height="225" viewBox="0 0 300 225" fill="none" xmlns="http://www.w3.org/2000/svg">
<g id="brown-2">
<rect id="Rectangle 2" width="300" height="225" fill="#A77947"/>
<path id="Protect my loved ones if I&#226;&#128;&#153;m not around" d="M59.8248 96.126C59.8248 97.17 59.4648 98.04 58.7448 98.736C58.0368 99.42 56.9508 99.762 55.4868 99.762H53.0748V105H51.4368V92.454H55.4868C56.9028 92.454 57.9768 92.796 58.7088 93.48C59.4528 94.164 59.8248 95.046 59.8248 96.126ZM55.4868 98.412C56.3988 98.412 57.0708 98.214 57.5028 97.818C57.9348 97.422 58.1508 96.858 58.1508 96.126C58.1508 94.578 57.2628 93.804 55.4868 93.804H53.0748V98.412H55.4868ZM63.4986 96.738C63.7866 96.174 64.1946 95.736 64.7226 95.424C65.2626 95.112 65.9166 94.956 66.6846 94.956V96.648H66.2526C64.4166 96.648 63.4986 97.644 63.4986 99.636V105H61.8606V95.136H63.4986V96.738ZM72.8775 105.162C71.9535 105.162 71.1135 104.952 70.3575 104.532C69.6135 104.112 69.0255 103.518 68.5935 102.75C68.1735 101.97 67.9635 101.07 67.9635 100.05C67.9635 99.042 68.1795 98.154 68.6115 97.386C69.0555 96.606 69.6555 96.012 70.4115 95.604C71.1675 95.184 72.0135 94.974 72.9495 94.974C73.8855 94.974 74.7315 95.184 75.4875 95.604C76.2435 96.012 76.8375 96.6 77.2695 97.368C77.7135 98.136 77.9355 99.03 77.9355 100.05C77.9355 101.07 77.7075 101.97 77.2515 102.75C76.8075 103.518 76.2015 104.112 75.4335 104.532C74.6655 104.952 73.8135 105.162 72.8775 105.162ZM72.8775 103.722C73.4655 103.722 74.0175 103.584 74.5335 103.308C75.0495 103.032 75.4635 102.618 75.7755 102.066C76.0995 101.514 76.2615 100.842 76.2615 100.05C76.2615 99.258 76.1055 98.586 75.7935 98.034C75.4815 97.482 75.0735 97.074 74.5695 96.81C74.0655 96.534 73.5195 96.396 72.9315 96.396C72.3315 96.396 71.7795 96.534 71.2755 96.81C70.7835 97.074 70.3875 97.482 70.0875 98.034C69.7875 98.586 69.6375 99.258 69.6375 100.05C69.6375 100.854 69.7815 101.532 70.0695 102.084C70.3695 102.636 70.7655 103.05 71.2575 103.326C71.7495 103.59 72.2895 103.722 72.8775 103.722ZM82.0871 96.486V102.3C82.0871 102.78 82.1891 103.122 82.3931 103.326C82.5971 103.518 82.9511 103.614 83.4551 103.614H84.6611V105H83.1851C82.2731 105 81.5891 104.79 81.1331 104.37C80.6771 103.95 80.4491 103.26 80.4491 102.3V96.486H79.1711V95.136H80.4491V92.652H82.0871V95.136H84.6611V96.486H82.0871ZM95.6458 99.69C95.6458 100.002 95.6278 100.332 95.5918 100.68H87.7078C87.7678 101.652 88.0978 102.414 88.6978 102.966C89.3098 103.506 90.0478 103.776 90.9118 103.776C91.6198 103.776 92.2078 103.614 92.6758 103.29C93.1558 102.954 93.4918 102.51 93.6838 101.958H95.4478C95.1838 102.906 94.6558 103.68 93.8638 104.28C93.0718 104.868 92.0878 105.162 90.9118 105.162C89.9758 105.162 89.1358 104.952 88.3918 104.532C87.6598 104.112 87.0838 103.518 86.6638 102.75C86.2438 101.97 86.0338 101.07 86.0338 100.05C86.0338 99.03 86.2378 98.136 86.6458 97.368C87.0538 96.6 87.6238 96.012 88.3558 95.604C89.0998 95.184 89.9518 94.974 90.9118 94.974C91.8478 94.974 92.6758 95.178 93.3958 95.586C94.1158 95.994 94.6678 96.558 95.0518 97.278C95.4478 97.986 95.6458 98.79 95.6458 99.69ZM93.9538 99.348C93.9538 98.724 93.8158 98.19 93.5398 97.746C93.2638 97.29 92.8858 96.948 92.4058 96.72C91.9378 96.48 91.4158 96.36 90.8398 96.36C90.0118 96.36 89.3038 96.624 88.7158 97.152C88.1398 97.68 87.8098 98.412 87.7258 99.348H93.9538ZM97.1959 100.05C97.1959 99.03 97.3999 98.142 97.8079 97.386C98.2159 96.618 98.7799 96.024 99.4999 95.604C100.232 95.184 101.066 94.974 102.002 94.974C103.214 94.974 104.21 95.268 104.99 95.856C105.782 96.444 106.304 97.26 106.556 98.304H104.792C104.624 97.704 104.294 97.23 103.802 96.882C103.322 96.534 102.722 96.36 102.002 96.36C101.066 96.36 100.31 96.684 99.7339 97.332C99.1579 97.968 98.8699 98.874 98.8699 100.05C98.8699 101.238 99.1579 102.156 99.7339 102.804C100.31 103.452 101.066 103.776 102.002 103.776C102.722 103.776 103.322 103.608 103.802 103.272C104.282 102.936 104.612 102.456 104.792 101.832H106.556C106.292 102.84 105.764 103.65 104.972 104.262C104.18 104.862 103.19 105.162 102.002 105.162C101.066 105.162 100.232 104.952 99.4999 104.532C98.7799 104.112 98.2159 103.518 97.8079 102.75C97.3999 101.982 97.1959 101.082 97.1959 100.05ZM110.739 96.486V102.3C110.739 102.78 110.841 103.122 111.045 103.326C111.249 103.518 111.603 103.614 112.107 103.614H113.313V105H111.837C110.925 105 110.241 104.79 109.785 104.37C109.329 103.95 109.101 103.26 109.101 102.3V96.486H107.823V95.136H109.101V92.652H110.739V95.136H113.313V96.486H110.739ZM131.959 94.956C132.727 94.956 133.411 95.118 134.011 95.442C134.611 95.754 135.085 96.228 135.433 96.864C135.781 97.5 135.955 98.274 135.955 99.186V105H134.335V99.42C134.335 98.436 134.089 97.686 133.597 97.17C133.117 96.642 132.463 96.378 131.635 96.378C130.783 96.378 130.105 96.654 129.601 97.206C129.097 97.746 128.845 98.532 128.845 99.564V105H127.225V99.42C127.225 98.436 126.979 97.686 126.487 97.17C126.007 96.642 125.353 96.378 124.525 96.378C123.673 96.378 122.995 96.654 122.491 97.206C121.987 97.746 121.735 98.532 121.735 99.564V105H120.097V95.136H121.735V96.558C122.059 96.042 122.491 95.646 123.031 95.37C123.583 95.094 124.189 94.956 124.849 94.956C125.677 94.956 126.409 95.142 127.045 95.514C127.681 95.886 128.155 96.432 128.467 97.152C128.743 96.456 129.199 95.916 129.835 95.532C130.471 95.148 131.179 94.956 131.959 94.956ZM147.138 95.136L141.198 109.644H139.506L141.45 104.892L137.472 95.136H139.29L142.386 103.128L145.446 95.136H147.138ZM155.221 91.68V105H153.583V91.68H155.221ZM162.315 105.162C161.391 105.162 160.551 104.952 159.795 104.532C159.051 104.112 158.463 103.518 158.031 102.75C157.611 101.97 157.401 101.07 157.401 100.05C157.401 99.042 157.617 98.154 158.049 97.386C158.493 96.606 159.093 96.012 159.849 95.604C160.605 95.184 161.451 94.974 162.387 94.974C163.323 94.974 164.169 95.184 164.925 95.604C165.681 96.012 166.275 96.6 166.707 97.368C167.151 98.136 167.373 99.03 167.373 100.05C167.373 101.07 167.145 101.97 166.689 102.75C166.245 103.518 165.639 104.112 164.871 104.532C164.103 104.952 163.251 105.162 162.315 105.162ZM162.315 103.722C162.903 103.722 163.455 103.584 163.971 103.308C164.487 103.032 164.901 102.618 165.213 102.066C165.537 101.514 165.699 100.842 165.699 100.05C165.699 99.258 165.543 98.586 165.231 98.034C164.919 97.482 164.511 97.074 164.007 96.81C163.503 96.534 162.957 96.396 162.369 96.396C161.769 96.396 161.217 96.534 160.713 96.81C160.221 97.074 159.825 97.482 159.525 98.034C159.225 98.586 159.075 99.258 159.075 100.05C159.075 100.854 159.219 101.532 159.507 102.084C159.807 102.636 160.203 103.05 160.695 103.326C161.187 103.59 161.727 103.722 162.315 103.722ZM173.199 103.488L176.259 95.136H178.005L174.135 105H172.227L168.357 95.136H170.121L173.199 103.488ZM188.616 99.69C188.616 100.002 188.598 100.332 188.562 100.68H180.678C180.738 101.652 181.068 102.414 181.668 102.966C182.28 103.506 183.018 103.776 183.882 103.776C184.59 103.776 185.178 103.614 185.646 103.29C186.126 102.954 186.462 102.51 186.654 101.958H188.418C188.154 102.906 187.626 103.68 186.834 104.28C186.042 104.868 185.058 105.162 183.882 105.162C182.946 105.162 182.106 104.952 181.362 104.532C180.63 104.112 180.054 103.518 179.634 102.75C179.214 101.97 179.004 101.07 179.004 100.05C179.004 99.03 179.208 98.136 179.616 97.368C180.024 96.6 180.594 96.012 181.326 95.604C182.07 95.184 182.922 94.974 183.882 94.974C184.818 94.974 185.646 95.178 186.366 95.586C187.086 95.994 187.638 96.558 188.022 97.278C188.418 97.986 188.616 98.79 188.616 99.69ZM186.924 99.348C186.924 98.724 186.786 98.19 186.51 97.746C186.234 97.29 185.856 96.948 185.376 96.72C184.908 96.48 184.386 96.36 183.81 96.36C182.982 96.36 182.274 96.624 181.686 97.152C181.11 97.68 180.78 98.412 180.696 99.348H186.924ZM190.167 100.032C190.167 99.024 190.371 98.142 190.779 97.386C191.187 96.618 191.745 96.024 192.453 95.604C193.173 95.184 193.977 94.974 194.865 94.974C195.633 94.974 196.347 95.154 197.007 95.514C197.667 95.862 198.171 96.324 198.519 96.9V91.68H200.175V105H198.519V103.146C198.195 103.734 197.715 104.22 197.079 104.604C196.443 104.976 195.699 105.162 194.847 105.162C193.971 105.162 193.173 104.946 192.453 104.514C191.745 104.082 191.187 103.476 190.779 102.696C190.371 101.916 190.167 101.028 190.167 100.032ZM198.519 100.05C198.519 99.306 198.369 98.658 198.069 98.106C197.769 97.554 197.361 97.134 196.845 96.846C196.341 96.546 195.783 96.396 195.171 96.396C194.559 96.396 194.001 96.54 193.497 96.828C192.993 97.116 192.591 97.536 192.291 98.088C191.991 98.64 191.841 99.288 191.841 100.032C191.841 100.788 191.991 101.448 192.291 102.012C192.591 102.564 192.993 102.99 193.497 103.29C194.001 103.578 194.559 103.722 195.171 103.722C195.783 103.722 196.341 103.578 196.845 103.29C197.361 102.99 197.769 102.564 198.069 102.012C198.369 101.448 198.519 100.794 198.519 100.05ZM212.043 105.162C211.119 105.162 210.279 104.952 209.523 104.532C208.779 104.112 208.191 103.518 207.759 102.75C207.339 101.97 207.129 101.07 207.129 100.05C207.129 99.042 207.345 98.154 207.777 97.386C208.221 96.606 208.821 96.012 209.577 95.604C210.333 95.184 211.179 94.974 212.115 94.974C213.051 94.974 213.897 95.184 214.653 95.604C215.409 96.012 216.003 96.6 216.435 97.368C216.879 98.136 217.101 99.03 217.101 100.05C217.101 101.07 216.873 101.97 216.417 102.75C215.973 103.518 215.367 104.112 214.599 104.532C213.831 104.952 212.979 105.162 212.043 105.162ZM212.043 103.722C212.631 103.722 213.183 103.584 213.699 103.308C214.215 103.032 214.629 102.618 214.941 102.066C215.265 101.514 215.427 100.842 215.427 100.05C215.427 99.258 215.271 98.586 214.959 98.034C214.647 97.482 214.239 97.074 213.735 96.81C213.231 96.534 212.685 96.396 212.097 96.396C211.497 96.396 210.945 96.534 210.441 96.81C209.949 97.074 209.553 97.482 209.253 98.034C208.953 98.586 208.803 99.258 208.803 100.05C208.803 100.854 208.947 101.532 209.235 102.084C209.535 102.636 209.931 103.05 210.423 103.326C210.915 103.59 211.455 103.722 212.043 103.722ZM224.061 94.956C225.261 94.956 226.233 95.322 226.977 96.054C227.721 96.774 228.093 97.818 228.093 99.186V105H226.473V99.42C226.473 98.436 226.227 97.686 225.735 97.17C225.243 96.642 224.571 96.378 223.719 96.378C222.855 96.378 222.165 96.648 221.649 97.188C221.145 97.728 220.893 98.514 220.893 99.546V105H219.255V95.136H220.893V96.54C221.217 96.036 221.655 95.646 222.207 95.37C222.771 95.094 223.389 94.956 224.061 94.956ZM239.769 99.69C239.769 100.002 239.751 100.332 239.715 100.68H231.831C231.891 101.652 232.221 102.414 232.821 102.966C233.433 103.506 234.171 103.776 235.035 103.776C235.743 103.776 236.331 103.614 236.799 103.29C237.279 102.954 237.615 102.51 237.807 101.958H239.571C239.307 102.906 238.779 103.68 237.987 104.28C237.195 104.868 236.211 105.162 235.035 105.162C234.099 105.162 233.259 104.952 232.515 104.532C231.783 104.112 231.207 103.518 230.787 102.75C230.367 101.97 230.157 101.07 230.157 100.05C230.157 99.03 230.361 98.136 230.769 97.368C231.177 96.6 231.747 96.012 232.479 95.604C233.223 95.184 234.075 94.974 235.035 94.974C235.971 94.974 236.799 95.178 237.519 95.586C238.239 95.994 238.791 96.558 239.175 97.278C239.571 97.986 239.769 98.79 239.769 99.69ZM238.077 99.348C238.077 98.724 237.939 98.19 237.663 97.746C237.387 97.29 237.009 96.948 236.529 96.72C236.061 96.48 235.539 96.36 234.963 96.36C234.135 96.36 233.427 96.624 232.839 97.152C232.263 97.68 231.933 98.412 231.849 99.348H238.077ZM245.423 105.162C244.667 105.162 243.989 105.036 243.389 104.784C242.789 104.52 242.315 104.16 241.967 103.704C241.619 103.236 241.427 102.702 241.391 102.102H243.083C243.131 102.594 243.359 102.996 243.767 103.308C244.187 103.62 244.733 103.776 245.405 103.776C246.029 103.776 246.521 103.638 246.881 103.362C247.241 103.086 247.421 102.738 247.421 102.318C247.421 101.886 247.229 101.568 246.845 101.364C246.461 101.148 245.867 100.938 245.063 100.734C244.331 100.542 243.731 100.35 243.263 100.158C242.807 99.954 242.411 99.66 242.075 99.276C241.751 98.88 241.589 98.364 241.589 97.728C241.589 97.224 241.739 96.762 242.039 96.342C242.339 95.922 242.765 95.592 243.317 95.352C243.869 95.1 244.499 94.974 245.207 94.974C246.299 94.974 247.181 95.25 247.853 95.802C248.525 96.354 248.885 97.11 248.933 98.07H247.295C247.259 97.554 247.049 97.14 246.665 96.828C246.293 96.516 245.789 96.36 245.153 96.36C244.565 96.36 244.097 96.486 243.749 96.738C243.401 96.99 243.227 97.32 243.227 97.728C243.227 98.052 243.329 98.322 243.533 98.538C243.749 98.742 244.013 98.91 244.325 99.042C244.649 99.162 245.093 99.3 245.657 99.456C246.365 99.648 246.941 99.84 247.385 100.032C247.829 100.212 248.207 100.488 248.519 100.86C248.843 101.232 249.011 101.718 249.023 102.318C249.023 102.858 248.873 103.344 248.573 103.776C248.273 104.208 247.847 104.55 247.295 104.802C246.755 105.042 246.131 105.162 245.423 105.162ZM78.817 120.534C78.505 120.534 78.241 120.426 78.025 120.21C77.809 119.994 77.701 119.73 77.701 119.418C77.701 119.106 77.809 118.842 78.025 118.626C78.241 118.41 78.505 118.302 78.817 118.302C79.117 118.302 79.369 118.41 79.573 118.626C79.789 118.842 79.897 119.106 79.897 119.418C79.897 119.73 79.789 119.994 79.573 120.21C79.369 120.426 79.117 120.534 78.817 120.534ZM79.609 122.136V132H77.971V122.136H79.609ZM86.4146 123.486H84.3446V132H82.7066V123.486H81.4286V122.136H82.7066V121.434C82.7066 120.33 82.9886 119.526 83.5526 119.022C84.1286 118.506 85.0466 118.248 86.3066 118.248V119.616C85.5866 119.616 85.0766 119.76 84.7766 120.048C84.4886 120.324 84.3446 120.786 84.3446 121.434V122.136H86.4146V123.486ZM94.7613 119.454V132H93.1233V119.454H94.7613ZM97.805 119.454H99.623L97.895 123.54H96.743L97.805 119.454ZM113.352 121.956C114.12 121.956 114.804 122.118 115.404 122.442C116.004 122.754 116.478 123.228 116.826 123.864C117.174 124.5 117.348 125.274 117.348 126.186V132H115.728V126.42C115.728 125.436 115.482 124.686 114.99 124.17C114.51 123.642 113.856 123.378 113.028 123.378C112.176 123.378 111.498 123.654 110.994 124.206C110.49 124.746 110.238 125.532 110.238 126.564V132H108.618V126.42C108.618 125.436 108.372 124.686 107.88 124.17C107.4 123.642 106.746 123.378 105.918 123.378C105.066 123.378 104.388 123.654 103.884 124.206C103.38 124.746 103.128 125.532 103.128 126.564V132H101.49V122.136H103.128V123.558C103.452 123.042 103.884 122.646 104.424 122.37C104.976 122.094 105.582 121.956 106.242 121.956C107.07 121.956 107.802 122.142 108.438 122.514C109.074 122.886 109.548 123.432 109.86 124.152C110.136 123.456 110.592 122.916 111.228 122.532C111.864 122.148 112.572 121.956 113.352 121.956ZM129.64 121.956C130.84 121.956 131.812 122.322 132.556 123.054C133.3 123.774 133.672 124.818 133.672 126.186V132H132.052V126.42C132.052 125.436 131.806 124.686 131.314 124.17C130.822 123.642 130.15 123.378 129.298 123.378C128.434 123.378 127.744 123.648 127.228 124.188C126.724 124.728 126.472 125.514 126.472 126.546V132H124.834V122.136H126.472V123.54C126.796 123.036 127.234 122.646 127.786 122.37C128.35 122.094 128.968 121.956 129.64 121.956ZM140.65 132.162C139.726 132.162 138.886 131.952 138.13 131.532C137.386 131.112 136.798 130.518 136.366 129.75C135.946 128.97 135.736 128.07 135.736 127.05C135.736 126.042 135.952 125.154 136.384 124.386C136.828 123.606 137.428 123.012 138.184 122.604C138.94 122.184 139.786 121.974 140.722 121.974C141.658 121.974 142.504 122.184 143.26 122.604C144.016 123.012 144.61 123.6 145.042 124.368C145.486 125.136 145.708 126.03 145.708 127.05C145.708 128.07 145.48 128.97 145.024 129.75C144.58 130.518 143.974 131.112 143.206 131.532C142.438 131.952 141.586 132.162 140.65 132.162ZM140.65 130.722C141.238 130.722 141.79 130.584 142.306 130.308C142.822 130.032 143.236 129.618 143.548 129.066C143.872 128.514 144.034 127.842 144.034 127.05C144.034 126.258 143.878 125.586 143.566 125.034C143.254 124.482 142.846 124.074 142.342 123.81C141.838 123.534 141.292 123.396 140.704 123.396C140.104 123.396 139.552 123.534 139.048 123.81C138.556 124.074 138.16 124.482 137.86 125.034C137.56 125.586 137.41 126.258 137.41 127.05C137.41 127.854 137.554 128.532 137.842 129.084C138.142 129.636 138.538 130.05 139.03 130.326C139.522 130.59 140.062 130.722 140.65 130.722ZM149.86 123.486V129.3C149.86 129.78 149.962 130.122 150.166 130.326C150.37 130.518 150.724 130.614 151.228 130.614H152.434V132H150.958C150.046 132 149.362 131.79 148.906 131.37C148.45 130.95 148.222 130.26 148.222 129.3V123.486H146.944V122.136H148.222V119.652H149.86V122.136H152.434V123.486H149.86ZM158.605 127.032C158.605 126.024 158.809 125.142 159.217 124.386C159.625 123.618 160.183 123.024 160.891 122.604C161.611 122.184 162.409 121.974 163.285 121.974C164.149 121.974 164.899 122.16 165.535 122.532C166.171 122.904 166.645 123.372 166.957 123.936V122.136H168.613V132H166.957V130.164C166.633 130.74 166.147 131.22 165.499 131.604C164.863 131.976 164.119 132.162 163.267 132.162C162.391 132.162 161.599 131.946 160.891 131.514C160.183 131.082 159.625 130.476 159.217 129.696C158.809 128.916 158.605 128.028 158.605 127.032ZM166.957 127.05C166.957 126.306 166.807 125.658 166.507 125.106C166.207 124.554 165.799 124.134 165.283 123.846C164.779 123.546 164.221 123.396 163.609 123.396C162.997 123.396 162.439 123.54 161.935 123.828C161.431 124.116 161.029 124.536 160.729 125.088C160.429 125.64 160.279 126.288 160.279 127.032C160.279 127.788 160.429 128.448 160.729 129.012C161.029 129.564 161.431 129.99 161.935 130.29C162.439 130.578 162.997 130.722 163.609 130.722C164.221 130.722 164.779 130.578 165.283 130.29C165.799 129.99 166.207 129.564 166.507 129.012C166.807 128.448 166.957 127.794 166.957 127.05ZM173.019 123.738C173.307 123.174 173.715 122.736 174.243 122.424C174.783 122.112 175.437 121.956 176.205 121.956V123.648H175.773C173.937 123.648 173.019 124.644 173.019 126.636V132H171.381V122.136H173.019V123.738ZM182.398 132.162C181.474 132.162 180.634 131.952 179.878 131.532C179.134 131.112 178.546 130.518 178.114 129.75C177.694 128.97 177.484 128.07 177.484 127.05C177.484 126.042 177.7 125.154 178.132 124.386C178.576 123.606 179.176 123.012 179.932 122.604C180.688 122.184 181.534 121.974 182.47 121.974C183.406 121.974 184.252 122.184 185.008 122.604C185.764 123.012 186.358 123.6 186.79 124.368C187.234 125.136 187.456 126.03 187.456 127.05C187.456 128.07 187.228 128.97 186.772 129.75C186.328 130.518 185.722 131.112 184.954 131.532C184.186 131.952 183.334 132.162 182.398 132.162ZM182.398 130.722C182.986 130.722 183.538 130.584 184.054 130.308C184.57 130.032 184.984 129.618 185.296 129.066C185.62 128.514 185.782 127.842 185.782 127.05C185.782 126.258 185.626 125.586 185.314 125.034C185.002 124.482 184.594 124.074 184.09 123.81C183.586 123.534 183.04 123.396 182.452 123.396C181.852 123.396 181.3 123.534 180.796 123.81C180.304 124.074 179.908 124.482 179.608 125.034C179.308 125.586 179.158 126.258 179.158 127.05C179.158 127.854 179.302 128.532 179.59 129.084C179.89 129.636 180.286 130.05 180.778 130.326C181.27 130.59 181.81 130.722 182.398 130.722ZM198.358 122.136V132H196.72V130.542C196.408 131.046 195.97 131.442 195.406 131.73C194.854 132.006 194.242 132.144 193.57 132.144C192.802 132.144 192.112 131.988 191.5 131.676C190.888 131.352 190.402 130.872 190.042 130.236C189.694 129.6 189.52 128.826 189.52 127.914V122.136H191.14V127.698C191.14 128.67 191.386 129.42 191.878 129.948C192.37 130.464 193.042 130.722 193.894 130.722C194.77 130.722 195.46 130.452 195.964 129.912C196.468 129.372 196.72 128.586 196.72 127.554V122.136H198.358ZM205.929 121.956C207.129 121.956 208.101 122.322 208.845 123.054C209.589 123.774 209.961 124.818 209.961 126.186V132H208.341V126.42C208.341 125.436 208.095 124.686 207.603 124.17C207.111 123.642 206.439 123.378 205.587 123.378C204.723 123.378 204.033 123.648 203.517 124.188C203.013 124.728 202.761 125.514 202.761 126.546V132H201.123V122.136H202.761V123.54C203.085 123.036 203.523 122.646 204.075 122.37C204.639 122.094 205.257 121.956 205.929 121.956ZM212.025 127.032C212.025 126.024 212.229 125.142 212.637 124.386C213.045 123.618 213.603 123.024 214.311 122.604C215.031 122.184 215.835 121.974 216.723 121.974C217.491 121.974 218.205 122.154 218.865 122.514C219.525 122.862 220.029 123.324 220.377 123.9V118.68H222.033V132H220.377V130.146C220.053 130.734 219.573 131.22 218.937 131.604C218.301 131.976 217.557 132.162 216.705 132.162C215.829 132.162 215.031 131.946 214.311 131.514C213.603 131.082 213.045 130.476 212.637 129.696C212.229 128.916 212.025 128.028 212.025 127.032ZM220.377 127.05C220.377 126.306 220.227 125.658 219.927 125.106C219.627 124.554 219.219 124.134 218.703 123.846C218.199 123.546 217.641 123.396 217.029 123.396C216.417 123.396 215.859 123.54 215.355 123.828C214.851 124.116 214.449 124.536 214.149 125.088C213.849 125.64 213.699 126.288 213.699 127.032C213.699 127.788 213.849 128.448 214.149 129.012C214.449 129.564 214.851 129.99 215.355 130.29C215.859 130.578 216.417 130.722 217.029 130.722C217.641 130.722 218.199 130.578 218.703 130.29C219.219 129.99 219.627 129.564 219.927 129.012C220.227 128.448 220.377 127.794 220.377 127.05Z" fill="white"/>
</g>
</svg>
