<svg width="300" height="225" viewBox="0 0 300 225" fill="none" xmlns="http://www.w3.org/2000/svg">
<g id="brown-4">
<rect id="Rectangle 4" width="300" height="225" fill="#A77947"/>
<path id="Maintain my lifestyle" d="M72.0114 106.544V119H70.3734V109.712L66.2334 119H65.0814L60.9234 109.694V119H59.2854V106.544H61.0494L65.6574 116.84L70.2654 106.544H72.0114ZM74.1773 114.032C74.1773 113.024 74.3813 112.142 74.7893 111.386C75.1973 110.618 75.7553 110.024 76.4633 109.604C77.1833 109.184 77.9813 108.974 78.8573 108.974C79.7213 108.974 80.4713 109.16 81.1073 109.532C81.7433 109.904 82.2173 110.372 82.5293 110.936V109.136H84.1853V119H82.5293V117.164C82.2053 117.74 81.7193 118.22 81.0713 118.604C80.4353 118.976 79.6913 119.162 78.8393 119.162C77.9633 119.162 77.1713 118.946 76.4633 118.514C75.7553 118.082 75.1973 117.476 74.7893 116.696C74.3813 115.916 74.1773 115.028 74.1773 114.032ZM82.5293 114.05C82.5293 113.306 82.3793 112.658 82.0793 112.106C81.7793 111.554 81.3713 111.134 80.8553 110.846C80.3513 110.546 79.7933 110.396 79.1813 110.396C78.5693 110.396 78.0113 110.54 77.5073 110.828C77.0033 111.116 76.6013 111.536 76.3013 112.088C76.0013 112.64 75.8513 113.288 75.8513 114.032C75.8513 114.788 76.0013 115.448 76.3013 116.012C76.6013 116.564 77.0033 116.99 77.5073 117.29C78.0113 117.578 78.5693 117.722 79.1813 117.722C79.7933 117.722 80.3513 117.578 80.8553 117.29C81.3713 116.99 81.7793 116.564 82.0793 116.012C82.3793 115.448 82.5293 114.794 82.5293 114.05ZM87.7994 107.534C87.4874 107.534 87.2234 107.426 87.0074 107.21C86.7914 106.994 86.6834 106.73 86.6834 106.418C86.6834 106.106 86.7914 105.842 87.0074 105.626C87.2234 105.41 87.4874 105.302 87.7994 105.302C88.0994 105.302 88.3514 105.41 88.5554 105.626C88.7714 105.842 88.8794 106.106 88.8794 106.418C88.8794 106.73 88.7714 106.994 88.5554 107.21C88.3514 107.426 88.0994 107.534 87.7994 107.534ZM88.5914 109.136V119H86.9534V109.136H88.5914ZM96.1891 108.956C97.3891 108.956 98.3611 109.322 99.1051 110.054C99.8491 110.774 100.221 111.818 100.221 113.186V119H98.6011V113.42C98.6011 112.436 98.3551 111.686 97.8631 111.17C97.3711 110.642 96.6991 110.378 95.8471 110.378C94.9831 110.378 94.2931 110.648 93.7771 111.188C93.2731 111.728 93.0211 112.514 93.0211 113.546V119H91.3831V109.136H93.0211V110.54C93.3451 110.036 93.7831 109.646 94.3351 109.37C94.8991 109.094 95.5171 108.956 96.1891 108.956ZM104.895 110.486V116.3C104.895 116.78 104.997 117.122 105.201 117.326C105.405 117.518 105.759 117.614 106.263 117.614H107.469V119H105.993C105.081 119 104.397 118.79 103.941 118.37C103.485 117.95 103.257 117.26 103.257 116.3V110.486H101.979V109.136H103.257V106.652H104.895V109.136H107.469V110.486H104.895ZM108.841 114.032C108.841 113.024 109.045 112.142 109.453 111.386C109.861 110.618 110.419 110.024 111.127 109.604C111.847 109.184 112.645 108.974 113.521 108.974C114.385 108.974 115.135 109.16 115.771 109.532C116.407 109.904 116.881 110.372 117.193 110.936V109.136H118.849V119H117.193V117.164C116.869 117.74 116.383 118.22 115.735 118.604C115.099 118.976 114.355 119.162 113.503 119.162C112.627 119.162 111.835 118.946 111.127 118.514C110.419 118.082 109.861 117.476 109.453 116.696C109.045 115.916 108.841 115.028 108.841 114.032ZM117.193 114.05C117.193 113.306 117.043 112.658 116.743 112.106C116.443 111.554 116.035 111.134 115.519 110.846C115.015 110.546 114.457 110.396 113.845 110.396C113.233 110.396 112.675 110.54 112.171 110.828C111.667 111.116 111.265 111.536 110.965 112.088C110.665 112.64 110.515 113.288 110.515 114.032C110.515 114.788 110.665 115.448 110.965 116.012C111.265 116.564 111.667 116.99 112.171 117.29C112.675 117.578 113.233 117.722 113.845 117.722C114.457 117.722 115.015 117.578 115.519 117.29C116.035 116.99 116.443 116.564 116.743 116.012C117.043 115.448 117.193 114.794 117.193 114.05ZM122.463 107.534C122.151 107.534 121.887 107.426 121.671 107.21C121.455 106.994 121.347 106.73 121.347 106.418C121.347 106.106 121.455 105.842 121.671 105.626C121.887 105.41 122.151 105.302 122.463 105.302C122.763 105.302 123.015 105.41 123.219 105.626C123.435 105.842 123.543 106.106 123.543 106.418C123.543 106.73 123.435 106.994 123.219 107.21C123.015 107.426 122.763 107.534 122.463 107.534ZM123.255 109.136V119H121.617V109.136H123.255ZM130.853 108.956C132.053 108.956 133.025 109.322 133.769 110.054C134.513 110.774 134.885 111.818 134.885 113.186V119H133.265V113.42C133.265 112.436 133.019 111.686 132.527 111.17C132.035 110.642 131.363 110.378 130.511 110.378C129.647 110.378 128.957 110.648 128.441 111.188C127.937 111.728 127.685 112.514 127.685 113.546V119H126.047V109.136H127.685V110.54C128.009 110.036 128.447 109.646 128.999 109.37C129.563 109.094 130.181 108.956 130.853 108.956ZM154.222 108.956C154.99 108.956 155.674 109.118 156.274 109.442C156.874 109.754 157.348 110.228 157.696 110.864C158.044 111.5 158.218 112.274 158.218 113.186V119H156.598V113.42C156.598 112.436 156.352 111.686 155.86 111.17C155.38 110.642 154.726 110.378 153.898 110.378C153.046 110.378 152.368 110.654 151.864 111.206C151.36 111.746 151.108 112.532 151.108 113.564V119H149.488V113.42C149.488 112.436 149.242 111.686 148.75 111.17C148.27 110.642 147.616 110.378 146.788 110.378C145.936 110.378 145.258 110.654 144.754 111.206C144.25 111.746 143.998 112.532 143.998 113.564V119H142.36V109.136H143.998V110.558C144.322 110.042 144.754 109.646 145.294 109.37C145.846 109.094 146.452 108.956 147.112 108.956C147.94 108.956 148.672 109.142 149.308 109.514C149.944 109.886 150.418 110.432 150.73 111.152C151.006 110.456 151.462 109.916 152.098 109.532C152.734 109.148 153.442 108.956 154.222 108.956ZM169.401 109.136L163.461 123.644H161.769L163.713 118.892L159.735 109.136H161.553L164.649 117.128L167.709 109.136H169.401ZM177.484 105.68V119H175.846V105.68H177.484ZM181.122 107.534C180.81 107.534 180.546 107.426 180.33 107.21C180.114 106.994 180.006 106.73 180.006 106.418C180.006 106.106 180.114 105.842 180.33 105.626C180.546 105.41 180.81 105.302 181.122 105.302C181.422 105.302 181.674 105.41 181.878 105.626C182.094 105.842 182.202 106.106 182.202 106.418C182.202 106.73 182.094 106.994 181.878 107.21C181.674 107.426 181.422 107.534 181.122 107.534ZM181.914 109.136V119H180.276V109.136H181.914ZM188.719 110.486H186.649V119H185.011V110.486H183.733V109.136H185.011V108.434C185.011 107.33 185.293 106.526 185.857 106.022C186.433 105.506 187.351 105.248 188.611 105.248V106.616C187.891 106.616 187.381 106.76 187.081 107.048C186.793 107.324 186.649 107.786 186.649 108.434V109.136H188.719V110.486ZM199.629 113.69C199.629 114.002 199.611 114.332 199.575 114.68H191.691C191.751 115.652 192.081 116.414 192.681 116.966C193.293 117.506 194.031 117.776 194.895 117.776C195.603 117.776 196.191 117.614 196.659 117.29C197.139 116.954 197.475 116.51 197.667 115.958H199.431C199.167 116.906 198.639 117.68 197.847 118.28C197.055 118.868 196.071 119.162 194.895 119.162C193.959 119.162 193.119 118.952 192.375 118.532C191.643 118.112 191.067 117.518 190.647 116.75C190.227 115.97 190.017 115.07 190.017 114.05C190.017 113.03 190.221 112.136 190.629 111.368C191.037 110.6 191.607 110.012 192.339 109.604C193.083 109.184 193.935 108.974 194.895 108.974C195.831 108.974 196.659 109.178 197.379 109.586C198.099 109.994 198.651 110.558 199.035 111.278C199.431 111.986 199.629 112.79 199.629 113.69ZM197.937 113.348C197.937 112.724 197.799 112.19 197.523 111.746C197.247 111.29 196.869 110.948 196.389 110.72C195.921 110.48 195.399 110.36 194.823 110.36C193.995 110.36 193.287 110.624 192.699 111.152C192.123 111.68 191.793 112.412 191.709 113.348H197.937ZM205.283 119.162C204.527 119.162 203.849 119.036 203.249 118.784C202.649 118.52 202.175 118.16 201.827 117.704C201.479 117.236 201.287 116.702 201.251 116.102H202.943C202.991 116.594 203.219 116.996 203.627 117.308C204.047 117.62 204.593 117.776 205.265 117.776C205.889 117.776 206.381 117.638 206.741 117.362C207.101 117.086 207.281 116.738 207.281 116.318C207.281 115.886 207.089 115.568 206.705 115.364C206.321 115.148 205.727 114.938 204.923 114.734C204.191 114.542 203.591 114.35 203.123 114.158C202.667 113.954 202.271 113.66 201.935 113.276C201.611 112.88 201.449 112.364 201.449 111.728C201.449 111.224 201.599 110.762 201.899 110.342C202.199 109.922 202.625 109.592 203.177 109.352C203.729 109.1 204.359 108.974 205.067 108.974C206.159 108.974 207.041 109.25 207.713 109.802C208.385 110.354 208.745 111.11 208.793 112.07H207.155C207.119 111.554 206.909 111.14 206.525 110.828C206.153 110.516 205.649 110.36 205.013 110.36C204.425 110.36 203.957 110.486 203.609 110.738C203.261 110.99 203.087 111.32 203.087 111.728C203.087 112.052 203.189 112.322 203.393 112.538C203.609 112.742 203.873 112.91 204.185 113.042C204.509 113.162 204.953 113.3 205.517 113.456C206.225 113.648 206.801 113.84 207.245 114.032C207.689 114.212 208.067 114.488 208.379 114.86C208.703 115.232 208.871 115.718 208.883 116.318C208.883 116.858 208.733 117.344 208.433 117.776C208.133 118.208 207.707 118.55 207.155 118.802C206.615 119.042 205.991 119.162 205.283 119.162ZM213.194 110.486V116.3C213.194 116.78 213.296 117.122 213.5 117.326C213.704 117.518 214.058 117.614 214.562 117.614H215.768V119H214.292C213.38 119 212.696 118.79 212.24 118.37C211.784 117.95 211.556 117.26 211.556 116.3V110.486H210.278V109.136H211.556V106.652H213.194V109.136H215.768V110.486H213.194ZM226.248 109.136L220.308 123.644H218.616L220.56 118.892L216.582 109.136H218.4L221.496 117.128L224.556 109.136H226.248ZM229.533 105.68V119H227.895V105.68H229.533ZM241.324 113.69C241.324 114.002 241.306 114.332 241.27 114.68H233.386C233.446 115.652 233.776 116.414 234.376 116.966C234.988 117.506 235.726 117.776 236.59 117.776C237.298 117.776 237.886 117.614 238.354 117.29C238.834 116.954 239.17 116.51 239.362 115.958H241.126C240.862 116.906 240.334 117.68 239.542 118.28C238.75 118.868 237.766 119.162 236.59 119.162C235.654 119.162 234.814 118.952 234.07 118.532C233.338 118.112 232.762 117.518 232.342 116.75C231.922 115.97 231.712 115.07 231.712 114.05C231.712 113.03 231.916 112.136 232.324 111.368C232.732 110.6 233.302 110.012 234.034 109.604C234.778 109.184 235.63 108.974 236.59 108.974C237.526 108.974 238.354 109.178 239.074 109.586C239.794 109.994 240.346 110.558 240.73 111.278C241.126 111.986 241.324 112.79 241.324 113.69ZM239.632 113.348C239.632 112.724 239.494 112.19 239.218 111.746C238.942 111.29 238.564 110.948 238.084 110.72C237.616 110.48 237.094 110.36 236.518 110.36C235.69 110.36 234.982 110.624 234.394 111.152C233.818 111.68 233.488 112.412 233.404 113.348H239.632Z" fill="white"/>
</g>
</svg>
