<svg width="300" height="225" viewBox="0 0 300 225" fill="none" xmlns="http://www.w3.org/2000/svg">
<g id="brown-3">
<rect id="Rectangle 3" width="300" height="225" fill="#A77947"/>
<path id="Establish/maintain safety net" d="M68.4381 94.786V98.98H73.0101V100.33H68.4381V104.65H73.5501V106H66.8001V93.436H73.5501V94.786H68.4381ZM79.5206 106.162C78.7646 106.162 78.0866 106.036 77.4866 105.784C76.8866 105.52 76.4126 105.16 76.0646 104.704C75.7166 104.236 75.5246 103.702 75.4886 103.102H77.1806C77.2286 103.594 77.4566 103.996 77.8646 104.308C78.2846 104.62 78.8306 104.776 79.5026 104.776C80.1266 104.776 80.6186 104.638 80.9786 104.362C81.3386 104.086 81.5186 103.738 81.5186 103.318C81.5186 102.886 81.3266 102.568 80.9426 102.364C80.5586 102.148 79.9646 101.938 79.1606 101.734C78.4286 101.542 77.8286 101.35 77.3606 101.158C76.9046 100.954 76.5086 100.66 76.1726 100.276C75.8486 99.88 75.6866 99.364 75.6866 98.728C75.6866 98.224 75.8366 97.762 76.1366 97.342C76.4366 96.922 76.8626 96.592 77.4146 96.352C77.9666 96.1 78.5966 95.974 79.3046 95.974C80.3966 95.974 81.2786 96.25 81.9506 96.802C82.6226 97.354 82.9826 98.11 83.0306 99.07H81.3926C81.3566 98.554 81.1466 98.14 80.7626 97.828C80.3906 97.516 79.8866 97.36 79.2506 97.36C78.6626 97.36 78.1946 97.486 77.8466 97.738C77.4986 97.99 77.3246 98.32 77.3246 98.728C77.3246 99.052 77.4266 99.322 77.6306 99.538C77.8466 99.742 78.1106 99.91 78.4226 100.042C78.7466 100.162 79.1906 100.3 79.7546 100.456C80.4626 100.648 81.0386 100.84 81.4826 101.032C81.9266 101.212 82.3046 101.488 82.6166 101.86C82.9406 102.232 83.1086 102.718 83.1206 103.318C83.1206 103.858 82.9706 104.344 82.6706 104.776C82.3706 105.208 81.9446 105.55 81.3926 105.802C80.8526 106.042 80.2286 106.162 79.5206 106.162ZM87.4309 97.486V103.3C87.4309 103.78 87.5329 104.122 87.7369 104.326C87.9409 104.518 88.2949 104.614 88.7989 104.614H90.0049V106H88.5289C87.6169 106 86.9329 105.79 86.4769 105.37C86.0209 104.95 85.7929 104.26 85.7929 103.3V97.486H84.5149V96.136H85.7929V93.652H87.4309V96.136H90.0049V97.486H87.4309ZM91.3775 101.032C91.3775 100.024 91.5815 99.142 91.9895 98.386C92.3975 97.618 92.9555 97.024 93.6635 96.604C94.3835 96.184 95.1815 95.974 96.0575 95.974C96.9215 95.974 97.6715 96.16 98.3075 96.532C98.9435 96.904 99.4175 97.372 99.7295 97.936V96.136H101.386V106H99.7295V104.164C99.4055 104.74 98.9195 105.22 98.2715 105.604C97.6355 105.976 96.8915 106.162 96.0395 106.162C95.1635 106.162 94.3715 105.946 93.6635 105.514C92.9555 105.082 92.3975 104.476 91.9895 103.696C91.5815 102.916 91.3775 102.028 91.3775 101.032ZM99.7295 101.05C99.7295 100.306 99.5795 99.658 99.2795 99.106C98.9795 98.554 98.5715 98.134 98.0555 97.846C97.5515 97.546 96.9935 97.396 96.3815 97.396C95.7695 97.396 95.2115 97.54 94.7075 97.828C94.2035 98.116 93.8015 98.536 93.5015 99.088C93.2015 99.64 93.0515 100.288 93.0515 101.032C93.0515 101.788 93.2015 102.448 93.5015 103.012C93.8015 103.564 94.2035 103.99 94.7075 104.29C95.2115 104.578 95.7695 104.722 96.3815 104.722C96.9935 104.722 97.5515 104.578 98.0555 104.29C98.5715 103.99 98.9795 103.564 99.2795 103.012C99.5795 102.448 99.7295 101.794 99.7295 101.05ZM105.792 97.972C106.128 97.384 106.62 96.904 107.268 96.532C107.916 96.16 108.654 95.974 109.482 95.974C110.37 95.974 111.168 96.184 111.876 96.604C112.584 97.024 113.142 97.618 113.55 98.386C113.958 99.142 114.162 100.024 114.162 101.032C114.162 102.028 113.958 102.916 113.55 103.696C113.142 104.476 112.578 105.082 111.858 105.514C111.15 105.946 110.358 106.162 109.482 106.162C108.63 106.162 107.88 105.976 107.232 105.604C106.596 105.232 106.116 104.758 105.792 104.182V106H104.154V92.68H105.792V97.972ZM112.488 101.032C112.488 100.288 112.338 99.64 112.038 99.088C111.738 98.536 111.33 98.116 110.814 97.828C110.31 97.54 109.752 97.396 109.14 97.396C108.54 97.396 107.982 97.546 107.466 97.846C106.962 98.134 106.554 98.56 106.242 99.124C105.942 99.676 105.792 100.318 105.792 101.05C105.792 101.794 105.942 102.448 106.242 103.012C106.554 103.564 106.962 103.99 107.466 104.29C107.982 104.578 108.54 104.722 109.14 104.722C109.752 104.722 110.31 104.578 110.814 104.29C111.33 103.99 111.738 103.564 112.038 103.012C112.338 102.448 112.488 101.788 112.488 101.032ZM117.956 92.68V106H116.318V92.68H117.956ZM121.593 94.534C121.281 94.534 121.017 94.426 120.801 94.21C120.585 93.994 120.477 93.73 120.477 93.418C120.477 93.106 120.585 92.842 120.801 92.626C121.017 92.41 121.281 92.302 121.593 92.302C121.893 92.302 122.145 92.41 122.349 92.626C122.565 92.842 122.673 93.106 122.673 93.418C122.673 93.73 122.565 93.994 122.349 94.21C122.145 94.426 121.893 94.534 121.593 94.534ZM122.385 96.136V106H120.747V96.136H122.385ZM128.669 106.162C127.913 106.162 127.235 106.036 126.635 105.784C126.035 105.52 125.561 105.16 125.213 104.704C124.865 104.236 124.673 103.702 124.637 103.102H126.329C126.377 103.594 126.605 103.996 127.013 104.308C127.433 104.62 127.979 104.776 128.651 104.776C129.275 104.776 129.767 104.638 130.127 104.362C130.487 104.086 130.667 103.738 130.667 103.318C130.667 102.886 130.475 102.568 130.091 102.364C129.707 102.148 129.113 101.938 128.309 101.734C127.577 101.542 126.977 101.35 126.509 101.158C126.053 100.954 125.657 100.66 125.321 100.276C124.997 99.88 124.835 99.364 124.835 98.728C124.835 98.224 124.985 97.762 125.285 97.342C125.585 96.922 126.011 96.592 126.563 96.352C127.115 96.1 127.745 95.974 128.453 95.974C129.545 95.974 130.427 96.25 131.099 96.802C131.771 97.354 132.131 98.11 132.179 99.07H130.541C130.505 98.554 130.295 98.14 129.911 97.828C129.539 97.516 129.035 97.36 128.399 97.36C127.811 97.36 127.343 97.486 126.995 97.738C126.647 97.99 126.473 98.32 126.473 98.728C126.473 99.052 126.575 99.322 126.779 99.538C126.995 99.742 127.259 99.91 127.571 100.042C127.895 100.162 128.339 100.3 128.903 100.456C129.611 100.648 130.187 100.84 130.631 101.032C131.075 101.212 131.453 101.488 131.765 101.86C132.089 102.232 132.257 102.718 132.269 103.318C132.269 103.858 132.119 104.344 131.819 104.776C131.519 105.208 131.093 105.55 130.541 105.802C130.001 106.042 129.377 106.162 128.669 106.162ZM139.477 95.956C140.221 95.956 140.893 96.118 141.493 96.442C142.093 96.754 142.561 97.228 142.897 97.864C143.245 98.5 143.419 99.274 143.419 100.186V106H141.799V100.42C141.799 99.436 141.553 98.686 141.061 98.17C140.569 97.642 139.897 97.378 139.045 97.378C138.181 97.378 137.491 97.648 136.975 98.188C136.471 98.728 136.219 99.514 136.219 100.546V106H134.581V92.68H136.219V97.54C136.543 97.036 136.987 96.646 137.551 96.37C138.127 96.094 138.769 95.956 139.477 95.956ZM152.215 89.044L147.283 109.06H145.663L150.577 89.044H152.215ZM166.518 95.956C167.286 95.956 167.97 96.118 168.57 96.442C169.17 96.754 169.644 97.228 169.992 97.864C170.34 98.5 170.514 99.274 170.514 100.186V106H168.894V100.42C168.894 99.436 168.648 98.686 168.156 98.17C167.676 97.642 167.022 97.378 166.194 97.378C165.342 97.378 164.664 97.654 164.16 98.206C163.656 98.746 163.404 99.532 163.404 100.564V106H161.784V100.42C161.784 99.436 161.538 98.686 161.046 98.17C160.566 97.642 159.912 97.378 159.084 97.378C158.232 97.378 157.554 97.654 157.05 98.206C156.546 98.746 156.294 99.532 156.294 100.564V106H154.656V96.136H156.294V97.558C156.618 97.042 157.05 96.646 157.59 96.37C158.142 96.094 158.748 95.956 159.408 95.956C160.236 95.956 160.968 96.142 161.604 96.514C162.24 96.886 162.714 97.432 163.026 98.152C163.302 97.456 163.758 96.916 164.394 96.532C165.03 96.148 165.738 95.956 166.518 95.956ZM172.588 101.032C172.588 100.024 172.792 99.142 173.2 98.386C173.608 97.618 174.166 97.024 174.874 96.604C175.594 96.184 176.392 95.974 177.268 95.974C178.132 95.974 178.882 96.16 179.518 96.532C180.154 96.904 180.628 97.372 180.94 97.936V96.136H182.596V106H180.94V104.164C180.616 104.74 180.13 105.22 179.482 105.604C178.846 105.976 178.102 106.162 177.25 106.162C176.374 106.162 175.582 105.946 174.874 105.514C174.166 105.082 173.608 104.476 173.2 103.696C172.792 102.916 172.588 102.028 172.588 101.032ZM180.94 101.05C180.94 100.306 180.79 99.658 180.49 99.106C180.19 98.554 179.782 98.134 179.266 97.846C178.762 97.546 178.204 97.396 177.592 97.396C176.98 97.396 176.422 97.54 175.918 97.828C175.414 98.116 175.012 98.536 174.712 99.088C174.412 99.64 174.262 100.288 174.262 101.032C174.262 101.788 174.412 102.448 174.712 103.012C175.012 103.564 175.414 103.99 175.918 104.29C176.422 104.578 176.98 104.722 177.592 104.722C178.204 104.722 178.762 104.578 179.266 104.29C179.782 103.99 180.19 103.564 180.49 103.012C180.79 102.448 180.94 101.794 180.94 101.05ZM186.211 94.534C185.899 94.534 185.635 94.426 185.419 94.21C185.203 93.994 185.095 93.73 185.095 93.418C185.095 93.106 185.203 92.842 185.419 92.626C185.635 92.41 185.899 92.302 186.211 92.302C186.511 92.302 186.763 92.41 186.967 92.626C187.183 92.842 187.291 93.106 187.291 93.418C187.291 93.73 187.183 93.994 186.967 94.21C186.763 94.426 186.511 94.534 186.211 94.534ZM187.003 96.136V106H185.365V96.136H187.003ZM194.6 95.956C195.8 95.956 196.772 96.322 197.516 97.054C198.26 97.774 198.632 98.818 198.632 100.186V106H197.012V100.42C197.012 99.436 196.766 98.686 196.274 98.17C195.782 97.642 195.11 97.378 194.258 97.378C193.394 97.378 192.704 97.648 192.188 98.188C191.684 98.728 191.432 99.514 191.432 100.546V106H189.794V96.136H191.432V97.54C191.756 97.036 192.194 96.646 192.746 96.37C193.31 96.094 193.928 95.956 194.6 95.956ZM203.306 97.486V103.3C203.306 103.78 203.408 104.122 203.612 104.326C203.816 104.518 204.17 104.614 204.674 104.614H205.88V106H204.404C203.492 106 202.808 105.79 202.352 105.37C201.896 104.95 201.668 104.26 201.668 103.3V97.486H200.39V96.136H201.668V93.652H203.306V96.136H205.88V97.486H203.306ZM207.253 101.032C207.253 100.024 207.457 99.142 207.865 98.386C208.273 97.618 208.831 97.024 209.539 96.604C210.259 96.184 211.057 95.974 211.933 95.974C212.797 95.974 213.547 96.16 214.183 96.532C214.819 96.904 215.293 97.372 215.605 97.936V96.136H217.261V106H215.605V104.164C215.281 104.74 214.795 105.22 214.147 105.604C213.511 105.976 212.767 106.162 211.915 106.162C211.039 106.162 210.247 105.946 209.539 105.514C208.831 105.082 208.273 104.476 207.865 103.696C207.457 102.916 207.253 102.028 207.253 101.032ZM215.605 101.05C215.605 100.306 215.455 99.658 215.155 99.106C214.855 98.554 214.447 98.134 213.931 97.846C213.427 97.546 212.869 97.396 212.257 97.396C211.645 97.396 211.087 97.54 210.583 97.828C210.079 98.116 209.677 98.536 209.377 99.088C209.077 99.64 208.927 100.288 208.927 101.032C208.927 101.788 209.077 102.448 209.377 103.012C209.677 103.564 210.079 103.99 210.583 104.29C211.087 104.578 211.645 104.722 212.257 104.722C212.869 104.722 213.427 104.578 213.931 104.29C214.447 103.99 214.855 103.564 215.155 103.012C215.455 102.448 215.605 101.794 215.605 101.05ZM220.875 94.534C220.563 94.534 220.299 94.426 220.083 94.21C219.867 93.994 219.759 93.73 219.759 93.418C219.759 93.106 219.867 92.842 220.083 92.626C220.299 92.41 220.563 92.302 220.875 92.302C221.175 92.302 221.427 92.41 221.631 92.626C221.847 92.842 221.955 93.106 221.955 93.418C221.955 93.73 221.847 93.994 221.631 94.21C221.427 94.426 221.175 94.534 220.875 94.534ZM221.667 96.136V106H220.029V96.136H221.667ZM229.264 95.956C230.464 95.956 231.436 96.322 232.18 97.054C232.924 97.774 233.296 98.818 233.296 100.186V106H231.676V100.42C231.676 99.436 231.43 98.686 230.938 98.17C230.446 97.642 229.774 97.378 228.922 97.378C228.058 97.378 227.368 97.648 226.852 98.188C226.348 98.728 226.096 99.514 226.096 100.546V106H224.458V96.136H226.096V97.54C226.42 97.036 226.858 96.646 227.41 96.37C227.974 96.094 228.592 95.956 229.264 95.956ZM110.186 133.162C109.43 133.162 108.752 133.036 108.152 132.784C107.552 132.52 107.078 132.16 106.73 131.704C106.382 131.236 106.19 130.702 106.154 130.102H107.846C107.894 130.594 108.122 130.996 108.53 131.308C108.95 131.62 109.496 131.776 110.168 131.776C110.792 131.776 111.284 131.638 111.644 131.362C112.004 131.086 112.184 130.738 112.184 130.318C112.184 129.886 111.992 129.568 111.608 129.364C111.224 129.148 110.63 128.938 109.826 128.734C109.094 128.542 108.494 128.35 108.026 128.158C107.57 127.954 107.174 127.66 106.838 127.276C106.514 126.88 106.352 126.364 106.352 125.728C106.352 125.224 106.502 124.762 106.802 124.342C107.102 123.922 107.528 123.592 108.08 123.352C108.632 123.1 109.262 122.974 109.97 122.974C111.062 122.974 111.944 123.25 112.616 123.802C113.288 124.354 113.648 125.11 113.696 126.07H112.058C112.022 125.554 111.812 125.14 111.428 124.828C111.056 124.516 110.552 124.36 109.916 124.36C109.328 124.36 108.86 124.486 108.512 124.738C108.164 124.99 107.99 125.32 107.99 125.728C107.99 126.052 108.092 126.322 108.296 126.538C108.512 126.742 108.776 126.91 109.088 127.042C109.412 127.162 109.856 127.3 110.42 127.456C111.128 127.648 111.704 127.84 112.148 128.032C112.592 128.212 112.97 128.488 113.282 128.86C113.606 129.232 113.774 129.718 113.786 130.318C113.786 130.858 113.636 131.344 113.336 131.776C113.036 132.208 112.61 132.55 112.058 132.802C111.518 133.042 110.894 133.162 110.186 133.162ZM115.486 128.032C115.486 127.024 115.69 126.142 116.098 125.386C116.506 124.618 117.064 124.024 117.772 123.604C118.492 123.184 119.29 122.974 120.166 122.974C121.03 122.974 121.78 123.16 122.416 123.532C123.052 123.904 123.526 124.372 123.838 124.936V123.136H125.494V133H123.838V131.164C123.514 131.74 123.028 132.22 122.38 132.604C121.744 132.976 121 133.162 120.148 133.162C119.272 133.162 118.48 132.946 117.772 132.514C117.064 132.082 116.506 131.476 116.098 130.696C115.69 129.916 115.486 129.028 115.486 128.032ZM123.838 128.05C123.838 127.306 123.688 126.658 123.388 126.106C123.088 125.554 122.68 125.134 122.164 124.846C121.66 124.546 121.102 124.396 120.49 124.396C119.878 124.396 119.32 124.54 118.816 124.828C118.312 125.116 117.91 125.536 117.61 126.088C117.31 126.64 117.16 127.288 117.16 128.032C117.16 128.788 117.31 129.448 117.61 130.012C117.91 130.564 118.312 130.99 118.816 131.29C119.32 131.578 119.878 131.722 120.49 131.722C121.102 131.722 121.66 131.578 122.164 131.29C122.68 130.99 123.088 130.564 123.388 130.012C123.688 129.448 123.838 128.794 123.838 128.05ZM132.276 124.486H130.206V133H128.568V124.486H127.29V123.136H128.568V122.434C128.568 121.33 128.85 120.526 129.414 120.022C129.99 119.506 130.908 119.248 132.168 119.248V120.616C131.448 120.616 130.938 120.76 130.638 121.048C130.35 121.324 130.206 121.786 130.206 122.434V123.136H132.276V124.486ZM143.186 127.69C143.186 128.002 143.168 128.332 143.132 128.68H135.248C135.308 129.652 135.638 130.414 136.238 130.966C136.85 131.506 137.588 131.776 138.452 131.776C139.16 131.776 139.748 131.614 140.216 131.29C140.696 130.954 141.032 130.51 141.224 129.958H142.988C142.724 130.906 142.196 131.68 141.404 132.28C140.612 132.868 139.628 133.162 138.452 133.162C137.516 133.162 136.676 132.952 135.932 132.532C135.2 132.112 134.624 131.518 134.204 130.75C133.784 129.97 133.574 129.07 133.574 128.05C133.574 127.03 133.778 126.136 134.186 125.368C134.594 124.6 135.164 124.012 135.896 123.604C136.64 123.184 137.492 122.974 138.452 122.974C139.388 122.974 140.216 123.178 140.936 123.586C141.656 123.994 142.208 124.558 142.592 125.278C142.988 125.986 143.186 126.79 143.186 127.69ZM141.494 127.348C141.494 126.724 141.356 126.19 141.08 125.746C140.804 125.29 140.426 124.948 139.946 124.72C139.478 124.48 138.956 124.36 138.38 124.36C137.552 124.36 136.844 124.624 136.256 125.152C135.68 125.68 135.35 126.412 135.266 127.348H141.494ZM147.346 124.486V130.3C147.346 130.78 147.448 131.122 147.652 131.326C147.856 131.518 148.21 131.614 148.714 131.614H149.92V133H148.444C147.532 133 146.848 132.79 146.392 132.37C145.936 131.95 145.708 131.26 145.708 130.3V124.486H144.43V123.136H145.708V120.652H147.346V123.136H149.92V124.486H147.346ZM160.401 123.136L154.461 137.644H152.769L154.713 132.892L150.735 123.136H152.553L155.649 131.128L158.709 123.136H160.401ZM171.652 122.956C172.852 122.956 173.824 123.322 174.568 124.054C175.312 124.774 175.684 125.818 175.684 127.186V133H174.064V127.42C174.064 126.436 173.818 125.686 173.326 125.17C172.834 124.642 172.162 124.378 171.31 124.378C170.446 124.378 169.756 124.648 169.24 125.188C168.736 125.728 168.484 126.514 168.484 127.546V133H166.846V123.136H168.484V124.54C168.808 124.036 169.246 123.646 169.798 123.37C170.362 123.094 170.98 122.956 171.652 122.956ZM187.36 127.69C187.36 128.002 187.342 128.332 187.306 128.68H179.422C179.482 129.652 179.812 130.414 180.412 130.966C181.024 131.506 181.762 131.776 182.626 131.776C183.334 131.776 183.922 131.614 184.39 131.29C184.87 130.954 185.206 130.51 185.398 129.958H187.162C186.898 130.906 186.37 131.68 185.578 132.28C184.786 132.868 183.802 133.162 182.626 133.162C181.69 133.162 180.85 132.952 180.106 132.532C179.374 132.112 178.798 131.518 178.378 130.75C177.958 129.97 177.748 129.07 177.748 128.05C177.748 127.03 177.952 126.136 178.36 125.368C178.768 124.6 179.338 124.012 180.07 123.604C180.814 123.184 181.666 122.974 182.626 122.974C183.562 122.974 184.39 123.178 185.11 123.586C185.83 123.994 186.382 124.558 186.766 125.278C187.162 125.986 187.36 126.79 187.36 127.69ZM185.668 127.348C185.668 126.724 185.53 126.19 185.254 125.746C184.978 125.29 184.6 124.948 184.12 124.72C183.652 124.48 183.13 124.36 182.554 124.36C181.726 124.36 181.018 124.624 180.43 125.152C179.854 125.68 179.524 126.412 179.44 127.348H185.668ZM191.52 124.486V130.3C191.52 130.78 191.622 131.122 191.826 131.326C192.03 131.518 192.384 131.614 192.888 131.614H194.094V133H192.618C191.706 133 191.022 132.79 190.566 132.37C190.11 131.95 189.882 131.26 189.882 130.3V124.486H188.604V123.136H189.882V120.652H191.52V123.136H194.094V124.486H191.52Z" fill="white"/>
</g>
</svg>
