<svg width="300" height="225" viewBox="0 0 300 225" fill="none" xmlns="http://www.w3.org/2000/svg">
<g id="green-4">
<rect id="Rectangle 8" width="300" height="225" fill="#9A9D70"/>
<path id="Support charitable causes" d="M71.2527 106.126C70.4247 106.126 69.6807 105.982 69.0207 105.694C68.3727 105.394 67.8627 104.986 67.4907 104.47C67.1187 103.942 66.9267 103.336 66.9147 102.652H68.6607C68.7207 103.24 68.9607 103.738 69.3807 104.146C69.8127 104.542 70.4367 104.74 71.2527 104.74C72.0327 104.74 72.6447 104.548 73.0887 104.164C73.5447 103.768 73.7727 103.264 73.7727 102.652C73.7727 102.172 73.6407 101.782 73.3767 101.482C73.1127 101.182 72.7827 100.954 72.3867 100.798C71.9907 100.642 71.4567 100.474 70.7847 100.294C69.9567 100.078 69.2907 99.862 68.7867 99.646C68.2947 99.43 67.8687 99.094 67.5087 98.638C67.1607 98.17 66.9867 97.546 66.9867 96.766C66.9867 96.082 67.1607 95.476 67.5087 94.948C67.8567 94.42 68.3427 94.012 68.9667 93.724C69.6027 93.436 70.3287 93.292 71.1447 93.292C72.3207 93.292 73.2807 93.586 74.0247 94.174C74.7807 94.762 75.2067 95.542 75.3027 96.514H73.5027C73.4427 96.034 73.1907 95.614 72.7467 95.254C72.3027 94.882 71.7147 94.696 70.9827 94.696C70.2987 94.696 69.7407 94.876 69.3087 95.236C68.8767 95.584 68.6607 96.076 68.6607 96.712C68.6607 97.168 68.7867 97.54 69.0387 97.828C69.3027 98.116 69.6207 98.338 69.9927 98.494C70.3767 98.638 70.9107 98.806 71.5947 98.998C72.4227 99.226 73.0887 99.454 73.5927 99.682C74.0967 99.898 74.5287 100.24 74.8887 100.708C75.2487 101.164 75.4287 101.788 75.4287 102.58C75.4287 103.192 75.2667 103.768 74.9427 104.308C74.6187 104.848 74.1387 105.286 73.5027 105.622C72.8667 105.958 72.1167 106.126 71.2527 106.126ZM86.5871 96.136V106H84.9491V104.542C84.6371 105.046 84.1991 105.442 83.6351 105.73C83.0831 106.006 82.4711 106.144 81.7991 106.144C81.0311 106.144 80.3411 105.988 79.7291 105.676C79.1171 105.352 78.6311 104.872 78.2711 104.236C77.9231 103.6 77.7491 102.826 77.7491 101.914V96.136H79.3691V101.698C79.3691 102.67 79.6151 103.42 80.1071 103.948C80.5991 104.464 81.2711 104.722 82.1231 104.722C82.9991 104.722 83.6891 104.452 84.1931 103.912C84.6971 103.372 84.9491 102.586 84.9491 101.554V96.136H86.5871ZM90.9908 97.954C91.3148 97.39 91.7948 96.922 92.4308 96.55C93.0788 96.166 93.8288 95.974 94.6808 95.974C95.5568 95.974 96.3488 96.184 97.0568 96.604C97.7768 97.024 98.3408 97.618 98.7488 98.386C99.1568 99.142 99.3608 100.024 99.3608 101.032C99.3608 102.028 99.1568 102.916 98.7488 103.696C98.3408 104.476 97.7768 105.082 97.0568 105.514C96.3488 105.946 95.5568 106.162 94.6808 106.162C93.8408 106.162 93.0968 105.976 92.4488 105.604C91.8128 105.22 91.3268 104.746 90.9908 104.182V110.68H89.3528V96.136H90.9908V97.954ZM97.6868 101.032C97.6868 100.288 97.5368 99.64 97.2368 99.088C96.9368 98.536 96.5288 98.116 96.0128 97.828C95.5088 97.54 94.9508 97.396 94.3388 97.396C93.7388 97.396 93.1808 97.546 92.6648 97.846C92.1608 98.134 91.7528 98.56 91.4408 99.124C91.1408 99.676 90.9908 100.318 90.9908 101.05C90.9908 101.794 91.1408 102.448 91.4408 103.012C91.7528 103.564 92.1608 103.99 92.6648 104.29C93.1808 104.578 93.7388 104.722 94.3388 104.722C94.9508 104.722 95.5088 104.578 96.0128 104.29C96.5288 103.99 96.9368 103.564 97.2368 103.012C97.5368 102.448 97.6868 101.788 97.6868 101.032ZM103.155 97.954C103.479 97.39 103.959 96.922 104.595 96.55C105.243 96.166 105.993 95.974 106.845 95.974C107.721 95.974 108.513 96.184 109.221 96.604C109.941 97.024 110.505 97.618 110.913 98.386C111.321 99.142 111.525 100.024 111.525 101.032C111.525 102.028 111.321 102.916 110.913 103.696C110.505 104.476 109.941 105.082 109.221 105.514C108.513 105.946 107.721 106.162 106.845 106.162C106.005 106.162 105.261 105.976 104.613 105.604C103.977 105.22 103.491 104.746 103.155 104.182V110.68H101.517V96.136H103.155V97.954ZM109.851 101.032C109.851 100.288 109.701 99.64 109.401 99.088C109.101 98.536 108.693 98.116 108.177 97.828C107.673 97.54 107.115 97.396 106.503 97.396C105.903 97.396 105.345 97.546 104.829 97.846C104.325 98.134 103.917 98.56 103.605 99.124C103.305 99.676 103.155 100.318 103.155 101.05C103.155 101.794 103.305 102.448 103.605 103.012C103.917 103.564 104.325 103.99 104.829 104.29C105.345 104.578 105.903 104.722 106.503 104.722C107.115 104.722 107.673 104.578 108.177 104.29C108.693 103.99 109.101 103.564 109.401 103.012C109.701 102.448 109.851 101.788 109.851 101.032ZM117.983 106.162C117.059 106.162 116.219 105.952 115.463 105.532C114.719 105.112 114.131 104.518 113.699 103.75C113.279 102.97 113.069 102.07 113.069 101.05C113.069 100.042 113.285 99.154 113.717 98.386C114.161 97.606 114.761 97.012 115.517 96.604C116.273 96.184 117.119 95.974 118.055 95.974C118.991 95.974 119.837 96.184 120.593 96.604C121.349 97.012 121.943 97.6 122.375 98.368C122.819 99.136 123.041 100.03 123.041 101.05C123.041 102.07 122.813 102.97 122.357 103.75C121.913 104.518 121.307 105.112 120.539 105.532C119.771 105.952 118.919 106.162 117.983 106.162ZM117.983 104.722C118.571 104.722 119.123 104.584 119.639 104.308C120.155 104.032 120.569 103.618 120.881 103.066C121.205 102.514 121.367 101.842 121.367 101.05C121.367 100.258 121.211 99.586 120.899 99.034C120.587 98.482 120.179 98.074 119.675 97.81C119.171 97.534 118.625 97.396 118.037 97.396C117.437 97.396 116.885 97.534 116.381 97.81C115.889 98.074 115.493 98.482 115.193 99.034C114.893 99.586 114.743 100.258 114.743 101.05C114.743 101.854 114.887 102.532 115.175 103.084C115.475 103.636 115.871 104.05 116.363 104.326C116.855 104.59 117.395 104.722 117.983 104.722ZM126.833 97.738C127.121 97.174 127.529 96.736 128.057 96.424C128.597 96.112 129.251 95.956 130.019 95.956V97.648H129.587C127.751 97.648 126.833 98.644 126.833 100.636V106H125.195V96.136H126.833V97.738ZM133.907 97.486V103.3C133.907 103.78 134.009 104.122 134.213 104.326C134.417 104.518 134.771 104.614 135.275 104.614H136.481V106H135.005C134.093 106 133.409 105.79 132.953 105.37C132.497 104.95 132.269 104.26 132.269 103.3V97.486H130.991V96.136H132.269V93.652H133.907V96.136H136.481V97.486H133.907ZM142.653 101.05C142.653 100.03 142.857 99.142 143.265 98.386C143.673 97.618 144.237 97.024 144.957 96.604C145.689 96.184 146.523 95.974 147.459 95.974C148.671 95.974 149.667 96.268 150.447 96.856C151.239 97.444 151.761 98.26 152.013 99.304H150.249C150.081 98.704 149.751 98.23 149.259 97.882C148.779 97.534 148.179 97.36 147.459 97.36C146.523 97.36 145.767 97.684 145.191 98.332C144.615 98.968 144.327 99.874 144.327 101.05C144.327 102.238 144.615 103.156 145.191 103.804C145.767 104.452 146.523 104.776 147.459 104.776C148.179 104.776 148.779 104.608 149.259 104.272C149.739 103.936 150.069 103.456 150.249 102.832H152.013C151.749 103.84 151.221 104.65 150.429 105.262C149.637 105.862 148.647 106.162 147.459 106.162C146.523 106.162 145.689 105.952 144.957 105.532C144.237 105.112 143.673 104.518 143.265 103.75C142.857 102.982 142.653 102.082 142.653 101.05ZM159.095 95.956C159.839 95.956 160.511 96.118 161.111 96.442C161.711 96.754 162.179 97.228 162.515 97.864C162.863 98.5 163.037 99.274 163.037 100.186V106H161.417V100.42C161.417 99.436 161.171 98.686 160.679 98.17C160.187 97.642 159.515 97.378 158.663 97.378C157.799 97.378 157.109 97.648 156.593 98.188C156.089 98.728 155.837 99.514 155.837 100.546V106H154.199V92.68H155.837V97.54C156.161 97.036 156.605 96.646 157.169 96.37C157.745 96.094 158.387 95.956 159.095 95.956ZM165.1 101.032C165.1 100.024 165.304 99.142 165.712 98.386C166.12 97.618 166.678 97.024 167.386 96.604C168.106 96.184 168.904 95.974 169.78 95.974C170.644 95.974 171.394 96.16 172.03 96.532C172.666 96.904 173.14 97.372 173.452 97.936V96.136H175.108V106H173.452V104.164C173.128 104.74 172.642 105.22 171.994 105.604C171.358 105.976 170.614 106.162 169.762 106.162C168.886 106.162 168.094 105.946 167.386 105.514C166.678 105.082 166.12 104.476 165.712 103.696C165.304 102.916 165.1 102.028 165.1 101.032ZM173.452 101.05C173.452 100.306 173.302 99.658 173.002 99.106C172.702 98.554 172.294 98.134 171.778 97.846C171.274 97.546 170.716 97.396 170.104 97.396C169.492 97.396 168.934 97.54 168.43 97.828C167.926 98.116 167.524 98.536 167.224 99.088C166.924 99.64 166.774 100.288 166.774 101.032C166.774 101.788 166.924 102.448 167.224 103.012C167.524 103.564 167.926 103.99 168.43 104.29C168.934 104.578 169.492 104.722 170.104 104.722C170.716 104.722 171.274 104.578 171.778 104.29C172.294 103.99 172.702 103.564 173.002 103.012C173.302 102.448 173.452 101.794 173.452 101.05ZM179.514 97.738C179.802 97.174 180.21 96.736 180.738 96.424C181.278 96.112 181.932 95.956 182.7 95.956V97.648H182.268C180.432 97.648 179.514 98.644 179.514 100.636V106H177.876V96.136H179.514V97.738ZM185.437 94.534C185.125 94.534 184.861 94.426 184.645 94.21C184.429 93.994 184.321 93.73 184.321 93.418C184.321 93.106 184.429 92.842 184.645 92.626C184.861 92.41 185.125 92.302 185.437 92.302C185.737 92.302 185.989 92.41 186.193 92.626C186.409 92.842 186.517 93.106 186.517 93.418C186.517 93.73 186.409 93.994 186.193 94.21C185.989 94.426 185.737 94.534 185.437 94.534ZM186.229 96.136V106H184.591V96.136H186.229ZM191.019 97.486V103.3C191.019 103.78 191.121 104.122 191.325 104.326C191.529 104.518 191.883 104.614 192.387 104.614H193.593V106H192.117C191.205 106 190.521 105.79 190.065 105.37C189.609 104.95 189.381 104.26 189.381 103.3V97.486H188.103V96.136H189.381V93.652H191.019V96.136H193.593V97.486H191.019ZM194.965 101.032C194.965 100.024 195.169 99.142 195.577 98.386C195.985 97.618 196.543 97.024 197.251 96.604C197.971 96.184 198.769 95.974 199.645 95.974C200.509 95.974 201.259 96.16 201.895 96.532C202.531 96.904 203.005 97.372 203.317 97.936V96.136H204.973V106H203.317V104.164C202.993 104.74 202.507 105.22 201.859 105.604C201.223 105.976 200.479 106.162 199.627 106.162C198.751 106.162 197.959 105.946 197.251 105.514C196.543 105.082 195.985 104.476 195.577 103.696C195.169 102.916 194.965 102.028 194.965 101.032ZM203.317 101.05C203.317 100.306 203.167 99.658 202.867 99.106C202.567 98.554 202.159 98.134 201.643 97.846C201.139 97.546 200.581 97.396 199.969 97.396C199.357 97.396 198.799 97.54 198.295 97.828C197.791 98.116 197.389 98.536 197.089 99.088C196.789 99.64 196.639 100.288 196.639 101.032C196.639 101.788 196.789 102.448 197.089 103.012C197.389 103.564 197.791 103.99 198.295 104.29C198.799 104.578 199.357 104.722 199.969 104.722C200.581 104.722 201.139 104.578 201.643 104.29C202.159 103.99 202.567 103.564 202.867 103.012C203.167 102.448 203.317 101.794 203.317 101.05ZM209.379 97.972C209.715 97.384 210.207 96.904 210.855 96.532C211.503 96.16 212.241 95.974 213.069 95.974C213.957 95.974 214.755 96.184 215.463 96.604C216.171 97.024 216.729 97.618 217.137 98.386C217.545 99.142 217.749 100.024 217.749 101.032C217.749 102.028 217.545 102.916 217.137 103.696C216.729 104.476 216.165 105.082 215.445 105.514C214.737 105.946 213.945 106.162 213.069 106.162C212.217 106.162 211.467 105.976 210.819 105.604C210.183 105.232 209.703 104.758 209.379 104.182V106H207.741V92.68H209.379V97.972ZM216.075 101.032C216.075 100.288 215.925 99.64 215.625 99.088C215.325 98.536 214.917 98.116 214.401 97.828C213.897 97.54 213.339 97.396 212.727 97.396C212.127 97.396 211.569 97.546 211.053 97.846C210.549 98.134 210.141 98.56 209.829 99.124C209.529 99.676 209.379 100.318 209.379 101.05C209.379 101.794 209.529 102.448 209.829 103.012C210.141 103.564 210.549 103.99 211.053 104.29C211.569 104.578 212.127 104.722 212.727 104.722C213.339 104.722 213.897 104.578 214.401 104.29C214.917 103.99 215.325 103.564 215.625 103.012C215.925 102.448 216.075 101.788 216.075 101.032ZM221.544 92.68V106H219.906V92.68H221.544ZM233.335 100.69C233.335 101.002 233.317 101.332 233.281 101.68H225.397C225.457 102.652 225.787 103.414 226.387 103.966C226.999 104.506 227.737 104.776 228.601 104.776C229.309 104.776 229.897 104.614 230.365 104.29C230.845 103.954 231.181 103.51 231.373 102.958H233.137C232.873 103.906 232.345 104.68 231.553 105.28C230.761 105.868 229.777 106.162 228.601 106.162C227.665 106.162 226.825 105.952 226.081 105.532C225.349 105.112 224.773 104.518 224.353 103.75C223.933 102.97 223.723 102.07 223.723 101.05C223.723 100.03 223.927 99.136 224.335 98.368C224.743 97.6 225.313 97.012 226.045 96.604C226.789 96.184 227.641 95.974 228.601 95.974C229.537 95.974 230.365 96.178 231.085 96.586C231.805 96.994 232.357 97.558 232.741 98.278C233.137 98.986 233.335 99.79 233.335 100.69ZM231.643 100.348C231.643 99.724 231.505 99.19 231.229 98.746C230.953 98.29 230.575 97.948 230.095 97.72C229.627 97.48 229.105 97.36 228.529 97.36C227.701 97.36 226.993 97.624 226.405 98.152C225.829 98.68 225.499 99.412 225.415 100.348H231.643ZM118.483 128.05C118.483 127.03 118.687 126.142 119.095 125.386C119.503 124.618 120.067 124.024 120.787 123.604C121.519 123.184 122.353 122.974 123.289 122.974C124.501 122.974 125.497 123.268 126.277 123.856C127.069 124.444 127.591 125.26 127.843 126.304H126.079C125.911 125.704 125.581 125.23 125.089 124.882C124.609 124.534 124.009 124.36 123.289 124.36C122.353 124.36 121.597 124.684 121.021 125.332C120.445 125.968 120.157 126.874 120.157 128.05C120.157 129.238 120.445 130.156 121.021 130.804C121.597 131.452 122.353 131.776 123.289 131.776C124.009 131.776 124.609 131.608 125.089 131.272C125.569 130.936 125.899 130.456 126.079 129.832H127.843C127.579 130.84 127.051 131.65 126.259 132.262C125.467 132.862 124.477 133.162 123.289 133.162C122.353 133.162 121.519 132.952 120.787 132.532C120.067 132.112 119.503 131.518 119.095 130.75C118.687 129.982 118.483 129.082 118.483 128.05ZM129.417 128.032C129.417 127.024 129.621 126.142 130.029 125.386C130.437 124.618 130.995 124.024 131.703 123.604C132.423 123.184 133.221 122.974 134.097 122.974C134.961 122.974 135.711 123.16 136.347 123.532C136.983 123.904 137.457 124.372 137.769 124.936V123.136H139.425V133H137.769V131.164C137.445 131.74 136.959 132.22 136.311 132.604C135.675 132.976 134.931 133.162 134.079 133.162C133.203 133.162 132.411 132.946 131.703 132.514C130.995 132.082 130.437 131.476 130.029 130.696C129.621 129.916 129.417 129.028 129.417 128.032ZM137.769 128.05C137.769 127.306 137.619 126.658 137.319 126.106C137.019 125.554 136.611 125.134 136.095 124.846C135.591 124.546 135.033 124.396 134.421 124.396C133.809 124.396 133.251 124.54 132.747 124.828C132.243 125.116 131.841 125.536 131.541 126.088C131.241 126.64 131.091 127.288 131.091 128.032C131.091 128.788 131.241 129.448 131.541 130.012C131.841 130.564 132.243 130.99 132.747 131.29C133.251 131.578 133.809 131.722 134.421 131.722C135.033 131.722 135.591 131.578 136.095 131.29C136.611 130.99 137.019 130.564 137.319 130.012C137.619 129.448 137.769 128.794 137.769 128.05ZM150.941 123.136V133H149.303V131.542C148.991 132.046 148.553 132.442 147.989 132.73C147.437 133.006 146.825 133.144 146.153 133.144C145.385 133.144 144.695 132.988 144.083 132.676C143.471 132.352 142.985 131.872 142.625 131.236C142.277 130.6 142.103 129.826 142.103 128.914V123.136H143.723V128.698C143.723 129.67 143.969 130.42 144.461 130.948C144.953 131.464 145.625 131.722 146.477 131.722C147.353 131.722 148.043 131.452 148.547 130.912C149.051 130.372 149.303 129.586 149.303 128.554V123.136H150.941ZM157.198 133.162C156.442 133.162 155.764 133.036 155.164 132.784C154.564 132.52 154.09 132.16 153.742 131.704C153.394 131.236 153.202 130.702 153.166 130.102H154.858C154.906 130.594 155.134 130.996 155.542 131.308C155.962 131.62 156.508 131.776 157.18 131.776C157.804 131.776 158.296 131.638 158.656 131.362C159.016 131.086 159.196 130.738 159.196 130.318C159.196 129.886 159.004 129.568 158.62 129.364C158.236 129.148 157.642 128.938 156.838 128.734C156.106 128.542 155.506 128.35 155.038 128.158C154.582 127.954 154.186 127.66 153.85 127.276C153.526 126.88 153.364 126.364 153.364 125.728C153.364 125.224 153.514 124.762 153.814 124.342C154.114 123.922 154.54 123.592 155.092 123.352C155.644 123.1 156.274 122.974 156.982 122.974C158.074 122.974 158.956 123.25 159.628 123.802C160.3 124.354 160.66 125.11 160.708 126.07H159.07C159.034 125.554 158.824 125.14 158.44 124.828C158.068 124.516 157.564 124.36 156.928 124.36C156.34 124.36 155.872 124.486 155.524 124.738C155.176 124.99 155.002 125.32 155.002 125.728C155.002 126.052 155.104 126.322 155.308 126.538C155.524 126.742 155.788 126.91 156.1 127.042C156.424 127.162 156.868 127.3 157.432 127.456C158.14 127.648 158.716 127.84 159.16 128.032C159.604 128.212 159.982 128.488 160.294 128.86C160.618 129.232 160.786 129.718 160.798 130.318C160.798 130.858 160.648 131.344 160.348 131.776C160.048 132.208 159.622 132.55 159.07 132.802C158.53 133.042 157.906 133.162 157.198 133.162ZM172.111 127.69C172.111 128.002 172.093 128.332 172.057 128.68H164.173C164.233 129.652 164.563 130.414 165.163 130.966C165.775 131.506 166.513 131.776 167.377 131.776C168.085 131.776 168.673 131.614 169.141 131.29C169.621 130.954 169.957 130.51 170.149 129.958H171.913C171.649 130.906 171.121 131.68 170.329 132.28C169.537 132.868 168.553 133.162 167.377 133.162C166.441 133.162 165.601 132.952 164.857 132.532C164.125 132.112 163.549 131.518 163.129 130.75C162.709 129.97 162.499 129.07 162.499 128.05C162.499 127.03 162.703 126.136 163.111 125.368C163.519 124.6 164.089 124.012 164.821 123.604C165.565 123.184 166.417 122.974 167.377 122.974C168.313 122.974 169.141 123.178 169.861 123.586C170.581 123.994 171.133 124.558 171.517 125.278C171.913 125.986 172.111 126.79 172.111 127.69ZM170.419 127.348C170.419 126.724 170.281 126.19 170.005 125.746C169.729 125.29 169.351 124.948 168.871 124.72C168.403 124.48 167.881 124.36 167.305 124.36C166.477 124.36 165.769 124.624 165.181 125.152C164.605 125.68 164.275 126.412 164.191 127.348H170.419ZM177.765 133.162C177.009 133.162 176.331 133.036 175.731 132.784C175.131 132.52 174.657 132.16 174.309 131.704C173.961 131.236 173.769 130.702 173.733 130.102H175.425C175.473 130.594 175.701 130.996 176.109 131.308C176.529 131.62 177.075 131.776 177.747 131.776C178.371 131.776 178.863 131.638 179.223 131.362C179.583 131.086 179.763 130.738 179.763 130.318C179.763 129.886 179.571 129.568 179.187 129.364C178.803 129.148 178.209 128.938 177.405 128.734C176.673 128.542 176.073 128.35 175.605 128.158C175.149 127.954 174.753 127.66 174.417 127.276C174.093 126.88 173.931 126.364 173.931 125.728C173.931 125.224 174.081 124.762 174.381 124.342C174.681 123.922 175.107 123.592 175.659 123.352C176.211 123.1 176.841 122.974 177.549 122.974C178.641 122.974 179.523 123.25 180.195 123.802C180.867 124.354 181.227 125.11 181.275 126.07H179.637C179.601 125.554 179.391 125.14 179.007 124.828C178.635 124.516 178.131 124.36 177.495 124.36C176.907 124.36 176.439 124.486 176.091 124.738C175.743 124.99 175.569 125.32 175.569 125.728C175.569 126.052 175.671 126.322 175.875 126.538C176.091 126.742 176.355 126.91 176.667 127.042C176.991 127.162 177.435 127.3 177.999 127.456C178.707 127.648 179.283 127.84 179.727 128.032C180.171 128.212 180.549 128.488 180.861 128.86C181.185 129.232 181.353 129.718 181.365 130.318C181.365 130.858 181.215 131.344 180.915 131.776C180.615 132.208 180.189 132.55 179.637 132.802C179.097 133.042 178.473 133.162 177.765 133.162Z" fill="white"/>
</g>
</svg>
