<svg width="300" height="225" viewBox="0 0 300 225" fill="none" xmlns="http://www.w3.org/2000/svg">
<g id="green-2">
<rect id="Rectangle 7" width="300" height="225" fill="#9A9D70"/>
<path id="Support family members" d="M89.5515 105.126C88.7235 105.126 87.9795 104.982 87.3195 104.694C86.6715 104.394 86.1615 103.986 85.7895 103.47C85.4175 102.942 85.2255 102.336 85.2135 101.652H86.9595C87.0195 102.24 87.2595 102.738 87.6795 103.146C88.1115 103.542 88.7355 103.74 89.5515 103.74C90.3315 103.74 90.9435 103.548 91.3875 103.164C91.8435 102.768 92.0715 102.264 92.0715 101.652C92.0715 101.172 91.9395 100.782 91.6755 100.482C91.4115 100.182 91.0815 99.954 90.6855 99.798C90.2895 99.642 89.7555 99.474 89.0835 99.294C88.2555 99.078 87.5895 98.862 87.0855 98.646C86.5935 98.43 86.1675 98.094 85.8075 97.638C85.4595 97.17 85.2855 96.546 85.2855 95.766C85.2855 95.082 85.4595 94.476 85.8075 93.948C86.1555 93.42 86.6415 93.012 87.2655 92.724C87.9015 92.436 88.6275 92.292 89.4435 92.292C90.6195 92.292 91.5795 92.586 92.3235 93.174C93.0795 93.762 93.5055 94.542 93.6015 95.514H91.8015C91.7415 95.034 91.4895 94.614 91.0455 94.254C90.6015 93.882 90.0135 93.696 89.2815 93.696C88.5975 93.696 88.0395 93.876 87.6075 94.236C87.1755 94.584 86.9595 95.076 86.9595 95.712C86.9595 96.168 87.0855 96.54 87.3375 96.828C87.6015 97.116 87.9195 97.338 88.2915 97.494C88.6755 97.638 89.2095 97.806 89.8935 97.998C90.7215 98.226 91.3875 98.454 91.8915 98.682C92.3955 98.898 92.8275 99.24 93.1875 99.708C93.5475 100.164 93.7275 100.788 93.7275 101.58C93.7275 102.192 93.5655 102.768 93.2415 103.308C92.9175 103.848 92.4375 104.286 91.8015 104.622C91.1655 104.958 90.4155 105.126 89.5515 105.126ZM104.886 95.136V105H103.248V103.542C102.936 104.046 102.498 104.442 101.934 104.73C101.382 105.006 100.77 105.144 100.098 105.144C99.33 105.144 98.64 104.988 98.028 104.676C97.416 104.352 96.93 103.872 96.57 103.236C96.222 102.6 96.048 101.826 96.048 100.914V95.136H97.668V100.698C97.668 101.67 97.914 102.42 98.406 102.948C98.898 103.464 99.57 103.722 100.422 103.722C101.298 103.722 101.988 103.452 102.492 102.912C102.996 102.372 103.248 101.586 103.248 100.554V95.136H104.886ZM109.29 96.954C109.614 96.39 110.094 95.922 110.73 95.55C111.378 95.166 112.128 94.974 112.98 94.974C113.856 94.974 114.648 95.184 115.356 95.604C116.076 96.024 116.64 96.618 117.048 97.386C117.456 98.142 117.66 99.024 117.66 100.032C117.66 101.028 117.456 101.916 117.048 102.696C116.64 103.476 116.076 104.082 115.356 104.514C114.648 104.946 113.856 105.162 112.98 105.162C112.14 105.162 111.396 104.976 110.748 104.604C110.112 104.22 109.626 103.746 109.29 103.182V109.68H107.652V95.136H109.29V96.954ZM115.986 100.032C115.986 99.288 115.836 98.64 115.536 98.088C115.236 97.536 114.828 97.116 114.312 96.828C113.808 96.54 113.25 96.396 112.638 96.396C112.038 96.396 111.48 96.546 110.964 96.846C110.46 97.134 110.052 97.56 109.74 98.124C109.44 98.676 109.29 99.318 109.29 100.05C109.29 100.794 109.44 101.448 109.74 102.012C110.052 102.564 110.46 102.99 110.964 103.29C111.48 103.578 112.038 103.722 112.638 103.722C113.25 103.722 113.808 103.578 114.312 103.29C114.828 102.99 115.236 102.564 115.536 102.012C115.836 101.448 115.986 100.788 115.986 100.032ZM121.454 96.954C121.778 96.39 122.258 95.922 122.894 95.55C123.542 95.166 124.292 94.974 125.144 94.974C126.02 94.974 126.812 95.184 127.52 95.604C128.24 96.024 128.804 96.618 129.212 97.386C129.62 98.142 129.824 99.024 129.824 100.032C129.824 101.028 129.62 101.916 129.212 102.696C128.804 103.476 128.24 104.082 127.52 104.514C126.812 104.946 126.02 105.162 125.144 105.162C124.304 105.162 123.56 104.976 122.912 104.604C122.276 104.22 121.79 103.746 121.454 103.182V109.68H119.816V95.136H121.454V96.954ZM128.15 100.032C128.15 99.288 128 98.64 127.7 98.088C127.4 97.536 126.992 97.116 126.476 96.828C125.972 96.54 125.414 96.396 124.802 96.396C124.202 96.396 123.644 96.546 123.128 96.846C122.624 97.134 122.216 97.56 121.904 98.124C121.604 98.676 121.454 99.318 121.454 100.05C121.454 100.794 121.604 101.448 121.904 102.012C122.216 102.564 122.624 102.99 123.128 103.29C123.644 103.578 124.202 103.722 124.802 103.722C125.414 103.722 125.972 103.578 126.476 103.29C126.992 102.99 127.4 102.564 127.7 102.012C128 101.448 128.15 100.788 128.15 100.032ZM136.282 105.162C135.358 105.162 134.518 104.952 133.762 104.532C133.018 104.112 132.43 103.518 131.998 102.75C131.578 101.97 131.368 101.07 131.368 100.05C131.368 99.042 131.584 98.154 132.016 97.386C132.46 96.606 133.06 96.012 133.816 95.604C134.572 95.184 135.418 94.974 136.354 94.974C137.29 94.974 138.136 95.184 138.892 95.604C139.648 96.012 140.242 96.6 140.674 97.368C141.118 98.136 141.34 99.03 141.34 100.05C141.34 101.07 141.112 101.97 140.656 102.75C140.212 103.518 139.606 104.112 138.838 104.532C138.07 104.952 137.218 105.162 136.282 105.162ZM136.282 103.722C136.87 103.722 137.422 103.584 137.938 103.308C138.454 103.032 138.868 102.618 139.18 102.066C139.504 101.514 139.666 100.842 139.666 100.05C139.666 99.258 139.51 98.586 139.198 98.034C138.886 97.482 138.478 97.074 137.974 96.81C137.47 96.534 136.924 96.396 136.336 96.396C135.736 96.396 135.184 96.534 134.68 96.81C134.188 97.074 133.792 97.482 133.492 98.034C133.192 98.586 133.042 99.258 133.042 100.05C133.042 100.854 133.186 101.532 133.474 102.084C133.774 102.636 134.17 103.05 134.662 103.326C135.154 103.59 135.694 103.722 136.282 103.722ZM145.131 96.738C145.419 96.174 145.827 95.736 146.355 95.424C146.895 95.112 147.549 94.956 148.317 94.956V96.648H147.885C146.049 96.648 145.131 97.644 145.131 99.636V105H143.493V95.136H145.131V96.738ZM152.206 96.486V102.3C152.206 102.78 152.308 103.122 152.512 103.326C152.716 103.518 153.07 103.614 153.574 103.614H154.78V105H153.304C152.392 105 151.708 104.79 151.252 104.37C150.796 103.95 150.568 103.26 150.568 102.3V96.486H149.29V95.136H150.568V92.652H152.206V95.136H154.78V96.486H152.206ZM165.578 96.486H163.508V105H161.87V96.486H160.592V95.136H161.87V94.434C161.87 93.33 162.152 92.526 162.716 92.022C163.292 91.506 164.21 91.248 165.47 91.248V92.616C164.75 92.616 164.24 92.76 163.94 93.048C163.652 93.324 163.508 93.786 163.508 94.434V95.136H165.578V96.486ZM166.876 100.032C166.876 99.024 167.08 98.142 167.488 97.386C167.896 96.618 168.454 96.024 169.162 95.604C169.882 95.184 170.68 94.974 171.556 94.974C172.42 94.974 173.17 95.16 173.806 95.532C174.442 95.904 174.916 96.372 175.228 96.936V95.136H176.884V105H175.228V103.164C174.904 103.74 174.418 104.22 173.77 104.604C173.134 104.976 172.39 105.162 171.538 105.162C170.662 105.162 169.87 104.946 169.162 104.514C168.454 104.082 167.896 103.476 167.488 102.696C167.08 101.916 166.876 101.028 166.876 100.032ZM175.228 100.05C175.228 99.306 175.078 98.658 174.778 98.106C174.478 97.554 174.07 97.134 173.554 96.846C173.05 96.546 172.492 96.396 171.88 96.396C171.268 96.396 170.71 96.54 170.206 96.828C169.702 97.116 169.3 97.536 169 98.088C168.7 98.64 168.55 99.288 168.55 100.032C168.55 100.788 168.7 101.448 169 102.012C169.3 102.564 169.702 102.99 170.206 103.29C170.71 103.578 171.268 103.722 171.88 103.722C172.492 103.722 173.05 103.578 173.554 103.29C174.07 102.99 174.478 102.564 174.778 102.012C175.078 101.448 175.228 100.794 175.228 100.05ZM191.514 94.956C192.282 94.956 192.966 95.118 193.566 95.442C194.166 95.754 194.64 96.228 194.988 96.864C195.336 97.5 195.51 98.274 195.51 99.186V105H193.89V99.42C193.89 98.436 193.644 97.686 193.152 97.17C192.672 96.642 192.018 96.378 191.19 96.378C190.338 96.378 189.66 96.654 189.156 97.206C188.652 97.746 188.4 98.532 188.4 99.564V105H186.78V99.42C186.78 98.436 186.534 97.686 186.042 97.17C185.562 96.642 184.908 96.378 184.08 96.378C183.228 96.378 182.55 96.654 182.046 97.206C181.542 97.746 181.29 98.532 181.29 99.564V105H179.652V95.136H181.29V96.558C181.614 96.042 182.046 95.646 182.586 95.37C183.138 95.094 183.744 94.956 184.404 94.956C185.232 94.956 185.964 95.142 186.6 95.514C187.236 95.886 187.71 96.432 188.022 97.152C188.298 96.456 188.754 95.916 189.39 95.532C190.026 95.148 190.734 94.956 191.514 94.956ZM199.043 93.534C198.731 93.534 198.467 93.426 198.251 93.21C198.035 92.994 197.927 92.73 197.927 92.418C197.927 92.106 198.035 91.842 198.251 91.626C198.467 91.41 198.731 91.302 199.043 91.302C199.343 91.302 199.595 91.41 199.799 91.626C200.015 91.842 200.123 92.106 200.123 92.418C200.123 92.73 200.015 92.994 199.799 93.21C199.595 93.426 199.343 93.534 199.043 93.534ZM199.835 95.136V105H198.197V95.136H199.835ZM204.264 91.68V105H202.626V91.68H204.264ZM215.552 95.136L209.612 109.644H207.92L209.864 104.892L205.886 95.136H207.704L210.8 103.128L213.86 95.136H215.552ZM119.399 121.956C120.167 121.956 120.851 122.118 121.451 122.442C122.051 122.754 122.525 123.228 122.873 123.864C123.221 124.5 123.395 125.274 123.395 126.186V132H121.775V126.42C121.775 125.436 121.529 124.686 121.037 124.17C120.557 123.642 119.903 123.378 119.075 123.378C118.223 123.378 117.545 123.654 117.041 124.206C116.537 124.746 116.285 125.532 116.285 126.564V132H114.665V126.42C114.665 125.436 114.419 124.686 113.927 124.17C113.447 123.642 112.793 123.378 111.965 123.378C111.113 123.378 110.435 123.654 109.931 124.206C109.427 124.746 109.175 125.532 109.175 126.564V132H107.537V122.136H109.175V123.558C109.499 123.042 109.931 122.646 110.471 122.37C111.023 122.094 111.629 121.956 112.289 121.956C113.117 121.956 113.849 122.142 114.485 122.514C115.121 122.886 115.595 123.432 115.907 124.152C116.183 123.456 116.639 122.916 117.275 122.532C117.911 122.148 118.619 121.956 119.399 121.956ZM135.082 126.69C135.082 127.002 135.064 127.332 135.028 127.68H127.144C127.204 128.652 127.534 129.414 128.134 129.966C128.746 130.506 129.484 130.776 130.348 130.776C131.056 130.776 131.644 130.614 132.112 130.29C132.592 129.954 132.928 129.51 133.12 128.958H134.884C134.62 129.906 134.092 130.68 133.3 131.28C132.508 131.868 131.524 132.162 130.348 132.162C129.412 132.162 128.572 131.952 127.828 131.532C127.096 131.112 126.52 130.518 126.1 129.75C125.68 128.97 125.47 128.07 125.47 127.05C125.47 126.03 125.674 125.136 126.082 124.368C126.49 123.6 127.06 123.012 127.792 122.604C128.536 122.184 129.388 121.974 130.348 121.974C131.284 121.974 132.112 122.178 132.832 122.586C133.552 122.994 134.104 123.558 134.488 124.278C134.884 124.986 135.082 125.79 135.082 126.69ZM133.39 126.348C133.39 125.724 133.252 125.19 132.976 124.746C132.7 124.29 132.322 123.948 131.842 123.72C131.374 123.48 130.852 123.36 130.276 123.36C129.448 123.36 128.74 123.624 128.152 124.152C127.576 124.68 127.246 125.412 127.162 126.348H133.39ZM149.106 121.956C149.874 121.956 150.558 122.118 151.158 122.442C151.758 122.754 152.232 123.228 152.58 123.864C152.928 124.5 153.102 125.274 153.102 126.186V132H151.482V126.42C151.482 125.436 151.236 124.686 150.744 124.17C150.264 123.642 149.61 123.378 148.782 123.378C147.93 123.378 147.252 123.654 146.748 124.206C146.244 124.746 145.992 125.532 145.992 126.564V132H144.372V126.42C144.372 125.436 144.126 124.686 143.634 124.17C143.154 123.642 142.5 123.378 141.672 123.378C140.82 123.378 140.142 123.654 139.638 124.206C139.134 124.746 138.882 125.532 138.882 126.564V132H137.244V122.136H138.882V123.558C139.206 123.042 139.638 122.646 140.178 122.37C140.73 122.094 141.336 121.956 141.996 121.956C142.824 121.956 143.556 122.142 144.192 122.514C144.828 122.886 145.302 123.432 145.614 124.152C145.89 123.456 146.346 122.916 146.982 122.532C147.618 122.148 148.326 121.956 149.106 121.956ZM157.427 123.972C157.763 123.384 158.255 122.904 158.903 122.532C159.551 122.16 160.289 121.974 161.117 121.974C162.005 121.974 162.803 122.184 163.511 122.604C164.219 123.024 164.777 123.618 165.185 124.386C165.593 125.142 165.797 126.024 165.797 127.032C165.797 128.028 165.593 128.916 165.185 129.696C164.777 130.476 164.213 131.082 163.493 131.514C162.785 131.946 161.993 132.162 161.117 132.162C160.265 132.162 159.515 131.976 158.867 131.604C158.231 131.232 157.751 130.758 157.427 130.182V132H155.789V118.68H157.427V123.972ZM164.123 127.032C164.123 126.288 163.973 125.64 163.673 125.088C163.373 124.536 162.965 124.116 162.449 123.828C161.945 123.54 161.387 123.396 160.775 123.396C160.175 123.396 159.617 123.546 159.101 123.846C158.597 124.134 158.189 124.56 157.877 125.124C157.577 125.676 157.427 126.318 157.427 127.05C157.427 127.794 157.577 128.448 157.877 129.012C158.189 129.564 158.597 129.99 159.101 130.29C159.617 130.578 160.175 130.722 160.775 130.722C161.387 130.722 161.945 130.578 162.449 130.29C162.965 129.99 163.373 129.564 163.673 129.012C163.973 128.448 164.123 127.788 164.123 127.032ZM176.953 126.69C176.953 127.002 176.935 127.332 176.899 127.68H169.015C169.075 128.652 169.405 129.414 170.005 129.966C170.617 130.506 171.355 130.776 172.219 130.776C172.927 130.776 173.515 130.614 173.983 130.29C174.463 129.954 174.799 129.51 174.991 128.958H176.755C176.491 129.906 175.963 130.68 175.171 131.28C174.379 131.868 173.395 132.162 172.219 132.162C171.283 132.162 170.443 131.952 169.699 131.532C168.967 131.112 168.391 130.518 167.971 129.75C167.551 128.97 167.341 128.07 167.341 127.05C167.341 126.03 167.545 125.136 167.953 124.368C168.361 123.6 168.931 123.012 169.663 122.604C170.407 122.184 171.259 121.974 172.219 121.974C173.155 121.974 173.983 122.178 174.703 122.586C175.423 122.994 175.975 123.558 176.359 124.278C176.755 124.986 176.953 125.79 176.953 126.69ZM175.261 126.348C175.261 125.724 175.123 125.19 174.847 124.746C174.571 124.29 174.193 123.948 173.713 123.72C173.245 123.48 172.723 123.36 172.147 123.36C171.319 123.36 170.611 123.624 170.023 124.152C169.447 124.68 169.117 125.412 169.033 126.348H175.261ZM180.753 123.738C181.041 123.174 181.449 122.736 181.977 122.424C182.517 122.112 183.171 121.956 183.939 121.956V123.648H183.507C181.671 123.648 180.753 124.644 180.753 126.636V132H179.115V122.136H180.753V123.738ZM189.322 132.162C188.566 132.162 187.888 132.036 187.288 131.784C186.688 131.52 186.214 131.16 185.866 130.704C185.518 130.236 185.326 129.702 185.29 129.102H186.982C187.03 129.594 187.258 129.996 187.666 130.308C188.086 130.62 188.632 130.776 189.304 130.776C189.928 130.776 190.42 130.638 190.78 130.362C191.14 130.086 191.32 129.738 191.32 129.318C191.32 128.886 191.128 128.568 190.744 128.364C190.36 128.148 189.766 127.938 188.962 127.734C188.23 127.542 187.63 127.35 187.162 127.158C186.706 126.954 186.31 126.66 185.974 126.276C185.65 125.88 185.488 125.364 185.488 124.728C185.488 124.224 185.638 123.762 185.938 123.342C186.238 122.922 186.664 122.592 187.216 122.352C187.768 122.1 188.398 121.974 189.106 121.974C190.198 121.974 191.08 122.25 191.752 122.802C192.424 123.354 192.784 124.11 192.832 125.07H191.194C191.158 124.554 190.948 124.14 190.564 123.828C190.192 123.516 189.688 123.36 189.052 123.36C188.464 123.36 187.996 123.486 187.648 123.738C187.3 123.99 187.126 124.32 187.126 124.728C187.126 125.052 187.228 125.322 187.432 125.538C187.648 125.742 187.912 125.91 188.224 126.042C188.548 126.162 188.992 126.3 189.556 126.456C190.264 126.648 190.84 126.84 191.284 127.032C191.728 127.212 192.106 127.488 192.418 127.86C192.742 128.232 192.91 128.718 192.922 129.318C192.922 129.858 192.772 130.344 192.472 130.776C192.172 131.208 191.746 131.55 191.194 131.802C190.654 132.042 190.03 132.162 189.322 132.162Z" fill="white"/>
</g>
</svg>
