<svg width="300" height="225" viewBox="0 0 300 225" fill="none" xmlns="http://www.w3.org/2000/svg">
<g id="green-3">
<rect id="Rectangle 6" width="300" height="225" fill="#9A9D70"/>
<path id="Reduce taxes" d="M97.699 119L94.711 113.87H92.731V119H91.093V106.454H95.143C96.091 106.454 96.889 106.616 97.537 106.94C98.197 107.264 98.689 107.702 99.013 108.254C99.337 108.806 99.499 109.436 99.499 110.144C99.499 111.008 99.247 111.77 98.743 112.43C98.251 113.09 97.507 113.528 96.511 113.744L99.661 119H97.699ZM92.731 112.556H95.143C96.031 112.556 96.697 112.34 97.141 111.908C97.585 111.464 97.807 110.876 97.807 110.144C97.807 109.4 97.585 108.824 97.141 108.416C96.709 108.008 96.043 107.804 95.143 107.804H92.731V112.556ZM111.044 113.69C111.044 114.002 111.026 114.332 110.99 114.68H103.106C103.166 115.652 103.496 116.414 104.096 116.966C104.708 117.506 105.446 117.776 106.31 117.776C107.018 117.776 107.606 117.614 108.074 117.29C108.554 116.954 108.89 116.51 109.082 115.958H110.846C110.582 116.906 110.054 117.68 109.262 118.28C108.47 118.868 107.486 119.162 106.31 119.162C105.374 119.162 104.534 118.952 103.79 118.532C103.058 118.112 102.482 117.518 102.062 116.75C101.642 115.97 101.432 115.07 101.432 114.05C101.432 113.03 101.636 112.136 102.044 111.368C102.452 110.6 103.022 110.012 103.754 109.604C104.498 109.184 105.35 108.974 106.31 108.974C107.246 108.974 108.074 109.178 108.794 109.586C109.514 109.994 110.066 110.558 110.45 111.278C110.846 111.986 111.044 112.79 111.044 113.69ZM109.352 113.348C109.352 112.724 109.214 112.19 108.938 111.746C108.662 111.29 108.284 110.948 107.804 110.72C107.336 110.48 106.814 110.36 106.238 110.36C105.41 110.36 104.702 110.624 104.114 111.152C103.538 111.68 103.208 112.412 103.124 113.348H109.352ZM112.594 114.032C112.594 113.024 112.798 112.142 113.206 111.386C113.614 110.618 114.172 110.024 114.88 109.604C115.6 109.184 116.404 108.974 117.292 108.974C118.06 108.974 118.774 109.154 119.434 109.514C120.094 109.862 120.598 110.324 120.946 110.9V105.68H122.602V119H120.946V117.146C120.622 117.734 120.142 118.22 119.506 118.604C118.87 118.976 118.126 119.162 117.274 119.162C116.398 119.162 115.6 118.946 114.88 118.514C114.172 118.082 113.614 117.476 113.206 116.696C112.798 115.916 112.594 115.028 112.594 114.032ZM120.946 114.05C120.946 113.306 120.796 112.658 120.496 112.106C120.196 111.554 119.788 111.134 119.272 110.846C118.768 110.546 118.21 110.396 117.598 110.396C116.986 110.396 116.428 110.54 115.924 110.828C115.42 111.116 115.018 111.536 114.718 112.088C114.418 112.64 114.268 113.288 114.268 114.032C114.268 114.788 114.418 115.448 114.718 116.012C115.018 116.564 115.42 116.99 115.924 117.29C116.428 117.578 116.986 117.722 117.598 117.722C118.21 117.722 118.768 117.578 119.272 117.29C119.788 116.99 120.196 116.564 120.496 116.012C120.796 115.448 120.946 114.794 120.946 114.05ZM134.118 109.136V119H132.48V117.542C132.168 118.046 131.73 118.442 131.166 118.73C130.614 119.006 130.002 119.144 129.33 119.144C128.562 119.144 127.872 118.988 127.26 118.676C126.648 118.352 126.162 117.872 125.802 117.236C125.454 116.6 125.28 115.826 125.28 114.914V109.136H126.9V114.698C126.9 115.67 127.146 116.42 127.638 116.948C128.13 117.464 128.802 117.722 129.654 117.722C130.53 117.722 131.22 117.452 131.724 116.912C132.228 116.372 132.48 115.586 132.48 114.554V109.136H134.118ZM136.272 114.05C136.272 113.03 136.476 112.142 136.884 111.386C137.292 110.618 137.856 110.024 138.576 109.604C139.308 109.184 140.142 108.974 141.078 108.974C142.29 108.974 143.286 109.268 144.066 109.856C144.858 110.444 145.38 111.26 145.632 112.304H143.868C143.7 111.704 143.37 111.23 142.878 110.882C142.398 110.534 141.798 110.36 141.078 110.36C140.142 110.36 139.386 110.684 138.81 111.332C138.234 111.968 137.946 112.874 137.946 114.05C137.946 115.238 138.234 116.156 138.81 116.804C139.386 117.452 140.142 117.776 141.078 117.776C141.798 117.776 142.398 117.608 142.878 117.272C143.358 116.936 143.688 116.456 143.868 115.832H145.632C145.368 116.84 144.84 117.65 144.048 118.262C143.256 118.862 142.266 119.162 141.078 119.162C140.142 119.162 139.308 118.952 138.576 118.532C137.856 118.112 137.292 117.518 136.884 116.75C136.476 115.982 136.272 115.082 136.272 114.05ZM156.818 113.69C156.818 114.002 156.8 114.332 156.764 114.68H148.88C148.94 115.652 149.27 116.414 149.87 116.966C150.482 117.506 151.22 117.776 152.084 117.776C152.792 117.776 153.38 117.614 153.848 117.29C154.328 116.954 154.664 116.51 154.856 115.958H156.62C156.356 116.906 155.828 117.68 155.036 118.28C154.244 118.868 153.26 119.162 152.084 119.162C151.148 119.162 150.308 118.952 149.564 118.532C148.832 118.112 148.256 117.518 147.836 116.75C147.416 115.97 147.206 115.07 147.206 114.05C147.206 113.03 147.41 112.136 147.818 111.368C148.226 110.6 148.796 110.012 149.528 109.604C150.272 109.184 151.124 108.974 152.084 108.974C153.02 108.974 153.848 109.178 154.568 109.586C155.288 109.994 155.84 110.558 156.224 111.278C156.62 111.986 156.818 112.79 156.818 113.69ZM155.126 113.348C155.126 112.724 154.988 112.19 154.712 111.746C154.436 111.29 154.058 110.948 153.578 110.72C153.11 110.48 152.588 110.36 152.012 110.36C151.184 110.36 150.476 110.624 149.888 111.152C149.312 111.68 148.982 112.412 148.898 113.348H155.126ZM165.777 110.486V116.3C165.777 116.78 165.879 117.122 166.083 117.326C166.287 117.518 166.641 117.614 167.145 117.614H168.351V119H166.875C165.963 119 165.279 118.79 164.823 118.37C164.367 117.95 164.139 117.26 164.139 116.3V110.486H162.861V109.136H164.139V106.652H165.777V109.136H168.351V110.486H165.777ZM169.723 114.032C169.723 113.024 169.927 112.142 170.335 111.386C170.743 110.618 171.301 110.024 172.009 109.604C172.729 109.184 173.527 108.974 174.403 108.974C175.267 108.974 176.017 109.16 176.653 109.532C177.289 109.904 177.763 110.372 178.075 110.936V109.136H179.731V119H178.075V117.164C177.751 117.74 177.265 118.22 176.617 118.604C175.981 118.976 175.237 119.162 174.385 119.162C173.509 119.162 172.717 118.946 172.009 118.514C171.301 118.082 170.743 117.476 170.335 116.696C169.927 115.916 169.723 115.028 169.723 114.032ZM178.075 114.05C178.075 113.306 177.925 112.658 177.625 112.106C177.325 111.554 176.917 111.134 176.401 110.846C175.897 110.546 175.339 110.396 174.727 110.396C174.115 110.396 173.557 110.54 173.053 110.828C172.549 111.116 172.147 111.536 171.847 112.088C171.547 112.64 171.397 113.288 171.397 114.032C171.397 114.788 171.547 115.448 171.847 116.012C172.147 116.564 172.549 116.99 173.053 117.29C173.557 117.578 174.115 117.722 174.727 117.722C175.339 117.722 175.897 117.578 176.401 117.29C176.917 116.99 177.325 116.564 177.625 116.012C177.925 115.448 178.075 114.794 178.075 114.05ZM187.647 119L185.307 115.328L183.057 119H181.347L184.533 114.104L181.347 109.136H183.201L185.541 112.79L187.773 109.136H189.483L186.315 114.014L189.501 119H187.647ZM200.113 113.69C200.113 114.002 200.095 114.332 200.059 114.68H192.175C192.235 115.652 192.565 116.414 193.165 116.966C193.777 117.506 194.515 117.776 195.379 117.776C196.087 117.776 196.675 117.614 197.143 117.29C197.623 116.954 197.959 116.51 198.151 115.958H199.915C199.651 116.906 199.123 117.68 198.331 118.28C197.539 118.868 196.555 119.162 195.379 119.162C194.443 119.162 193.603 118.952 192.859 118.532C192.127 118.112 191.551 117.518 191.131 116.75C190.711 115.97 190.501 115.07 190.501 114.05C190.501 113.03 190.705 112.136 191.113 111.368C191.521 110.6 192.091 110.012 192.823 109.604C193.567 109.184 194.419 108.974 195.379 108.974C196.315 108.974 197.143 109.178 197.863 109.586C198.583 109.994 199.135 110.558 199.519 111.278C199.915 111.986 200.113 112.79 200.113 113.69ZM198.421 113.348C198.421 112.724 198.283 112.19 198.007 111.746C197.731 111.29 197.353 110.948 196.873 110.72C196.405 110.48 195.883 110.36 195.307 110.36C194.479 110.36 193.771 110.624 193.183 111.152C192.607 111.68 192.277 112.412 192.193 113.348H198.421ZM205.767 119.162C205.011 119.162 204.333 119.036 203.733 118.784C203.133 118.52 202.659 118.16 202.311 117.704C201.963 117.236 201.771 116.702 201.735 116.102H203.427C203.475 116.594 203.703 116.996 204.111 117.308C204.531 117.62 205.077 117.776 205.749 117.776C206.373 117.776 206.865 117.638 207.225 117.362C207.585 117.086 207.765 116.738 207.765 116.318C207.765 115.886 207.573 115.568 207.189 115.364C206.805 115.148 206.211 114.938 205.407 114.734C204.675 114.542 204.075 114.35 203.607 114.158C203.151 113.954 202.755 113.66 202.419 113.276C202.095 112.88 201.933 112.364 201.933 111.728C201.933 111.224 202.083 110.762 202.383 110.342C202.683 109.922 203.109 109.592 203.661 109.352C204.213 109.1 204.843 108.974 205.551 108.974C206.643 108.974 207.525 109.25 208.197 109.802C208.869 110.354 209.229 111.11 209.277 112.07H207.639C207.603 111.554 207.393 111.14 207.009 110.828C206.637 110.516 206.133 110.36 205.497 110.36C204.909 110.36 204.441 110.486 204.093 110.738C203.745 110.99 203.571 111.32 203.571 111.728C203.571 112.052 203.673 112.322 203.877 112.538C204.093 112.742 204.357 112.91 204.669 113.042C204.993 113.162 205.437 113.3 206.001 113.456C206.709 113.648 207.285 113.84 207.729 114.032C208.173 114.212 208.551 114.488 208.863 114.86C209.187 115.232 209.355 115.718 209.367 116.318C209.367 116.858 209.217 117.344 208.917 117.776C208.617 118.208 208.191 118.55 207.639 118.802C207.099 119.042 206.475 119.162 205.767 119.162Z" fill="white"/>
</g>
</svg>
