<svg width="300" height="225" viewBox="0 0 300 225" fill="none" xmlns="http://www.w3.org/2000/svg">
<g id="green-1">
<rect id="Rectangle 5" width="300" height="225" fill="#9A9D70"/>
<path id="Provide a lasting legacy" d="M85.3131 96.126C85.3131 97.17 84.9531 98.04 84.2331 98.736C83.5251 99.42 82.4391 99.762 80.9751 99.762H78.5631V105H76.9251V92.454H80.9751C82.3911 92.454 83.4651 92.796 84.1971 93.48C84.9411 94.164 85.3131 95.046 85.3131 96.126ZM80.9751 98.412C81.8871 98.412 82.5591 98.214 82.9911 97.818C83.4231 97.422 83.6391 96.858 83.6391 96.126C83.6391 94.578 82.7511 93.804 80.9751 93.804H78.5631V98.412H80.9751ZM88.9869 96.738C89.2749 96.174 89.6829 95.736 90.2109 95.424C90.7509 95.112 91.4049 94.956 92.1729 94.956V96.648H91.7409C89.9049 96.648 88.9869 97.644 88.9869 99.636V105H87.3489V95.136H88.9869V96.738ZM98.3657 105.162C97.4417 105.162 96.6017 104.952 95.8457 104.532C95.1017 104.112 94.5137 103.518 94.0817 102.75C93.6617 101.97 93.4517 101.07 93.4517 100.05C93.4517 99.042 93.6677 98.154 94.0997 97.386C94.5437 96.606 95.1437 96.012 95.8997 95.604C96.6557 95.184 97.5017 94.974 98.4377 94.974C99.3737 94.974 100.22 95.184 100.976 95.604C101.732 96.012 102.326 96.6 102.758 97.368C103.202 98.136 103.424 99.03 103.424 100.05C103.424 101.07 103.196 101.97 102.74 102.75C102.296 103.518 101.69 104.112 100.922 104.532C100.154 104.952 99.3017 105.162 98.3657 105.162ZM98.3657 103.722C98.9537 103.722 99.5057 103.584 100.022 103.308C100.538 103.032 100.952 102.618 101.264 102.066C101.588 101.514 101.75 100.842 101.75 100.05C101.75 99.258 101.594 98.586 101.282 98.034C100.97 97.482 100.562 97.074 100.058 96.81C99.5537 96.534 99.0077 96.396 98.4197 96.396C97.8197 96.396 97.2677 96.534 96.7637 96.81C96.2717 97.074 95.8757 97.482 95.5757 98.034C95.2757 98.586 95.1257 99.258 95.1257 100.05C95.1257 100.854 95.2697 101.532 95.5577 102.084C95.8577 102.636 96.2537 103.05 96.7457 103.326C97.2377 103.59 97.7777 103.722 98.3657 103.722ZM109.249 103.488L112.309 95.136H114.055L110.185 105H108.277L104.407 95.136H106.171L109.249 103.488ZM116.513 93.534C116.201 93.534 115.937 93.426 115.721 93.21C115.505 92.994 115.397 92.73 115.397 92.418C115.397 92.106 115.505 91.842 115.721 91.626C115.937 91.41 116.201 91.302 116.513 91.302C116.813 91.302 117.065 91.41 117.269 91.626C117.485 91.842 117.593 92.106 117.593 92.418C117.593 92.73 117.485 92.994 117.269 93.21C117.065 93.426 116.813 93.534 116.513 93.534ZM117.305 95.136V105H115.667V95.136H117.305ZM119.485 100.032C119.485 99.024 119.689 98.142 120.097 97.386C120.505 96.618 121.063 96.024 121.771 95.604C122.491 95.184 123.295 94.974 124.183 94.974C124.951 94.974 125.665 95.154 126.325 95.514C126.985 95.862 127.489 96.324 127.837 96.9V91.68H129.493V105H127.837V103.146C127.513 103.734 127.033 104.22 126.397 104.604C125.761 104.976 125.017 105.162 124.165 105.162C123.289 105.162 122.491 104.946 121.771 104.514C121.063 104.082 120.505 103.476 120.097 102.696C119.689 101.916 119.485 101.028 119.485 100.032ZM127.837 100.05C127.837 99.306 127.687 98.658 127.387 98.106C127.087 97.554 126.679 97.134 126.163 96.846C125.659 96.546 125.101 96.396 124.489 96.396C123.877 96.396 123.319 96.54 122.815 96.828C122.311 97.116 121.909 97.536 121.609 98.088C121.309 98.64 121.159 99.288 121.159 100.032C121.159 100.788 121.309 101.448 121.609 102.012C121.909 102.564 122.311 102.99 122.815 103.29C123.319 103.578 123.877 103.722 124.489 103.722C125.101 103.722 125.659 103.578 126.163 103.29C126.679 102.99 127.087 102.564 127.387 102.012C127.687 101.448 127.837 100.794 127.837 100.05ZM141.261 99.69C141.261 100.002 141.243 100.332 141.207 100.68H133.323C133.383 101.652 133.713 102.414 134.313 102.966C134.925 103.506 135.663 103.776 136.527 103.776C137.235 103.776 137.823 103.614 138.291 103.29C138.771 102.954 139.107 102.51 139.299 101.958H141.063C140.799 102.906 140.271 103.68 139.479 104.28C138.687 104.868 137.703 105.162 136.527 105.162C135.591 105.162 134.751 104.952 134.007 104.532C133.275 104.112 132.699 103.518 132.279 102.75C131.859 101.97 131.649 101.07 131.649 100.05C131.649 99.03 131.853 98.136 132.261 97.368C132.669 96.6 133.239 96.012 133.971 95.604C134.715 95.184 135.567 94.974 136.527 94.974C137.463 94.974 138.291 95.178 139.011 95.586C139.731 95.994 140.283 96.558 140.667 97.278C141.063 97.986 141.261 98.79 141.261 99.69ZM139.569 99.348C139.569 98.724 139.431 98.19 139.155 97.746C138.879 97.29 138.501 96.948 138.021 96.72C137.553 96.48 137.031 96.36 136.455 96.36C135.627 96.36 134.919 96.624 134.331 97.152C133.755 97.68 133.425 98.412 133.341 99.348H139.569ZM147.61 100.032C147.61 99.024 147.814 98.142 148.222 97.386C148.63 96.618 149.188 96.024 149.896 95.604C150.616 95.184 151.414 94.974 152.29 94.974C153.154 94.974 153.904 95.16 154.54 95.532C155.176 95.904 155.65 96.372 155.962 96.936V95.136H157.618V105H155.962V103.164C155.638 103.74 155.152 104.22 154.504 104.604C153.868 104.976 153.124 105.162 152.272 105.162C151.396 105.162 150.604 104.946 149.896 104.514C149.188 104.082 148.63 103.476 148.222 102.696C147.814 101.916 147.61 101.028 147.61 100.032ZM155.962 100.05C155.962 99.306 155.812 98.658 155.512 98.106C155.212 97.554 154.804 97.134 154.288 96.846C153.784 96.546 153.226 96.396 152.614 96.396C152.002 96.396 151.444 96.54 150.94 96.828C150.436 97.116 150.034 97.536 149.734 98.088C149.434 98.64 149.284 99.288 149.284 100.032C149.284 100.788 149.434 101.448 149.734 102.012C150.034 102.564 150.436 102.99 150.94 103.29C151.444 103.578 152.002 103.722 152.614 103.722C153.226 103.722 153.784 103.578 154.288 103.29C154.804 102.99 155.212 102.564 155.512 102.012C155.812 101.448 155.962 100.794 155.962 100.05ZM166.823 91.68V105H165.185V91.68H166.823ZM169.003 100.032C169.003 99.024 169.207 98.142 169.615 97.386C170.023 96.618 170.581 96.024 171.289 95.604C172.009 95.184 172.807 94.974 173.683 94.974C174.547 94.974 175.297 95.16 175.933 95.532C176.569 95.904 177.043 96.372 177.355 96.936V95.136H179.011V105H177.355V103.164C177.031 103.74 176.545 104.22 175.897 104.604C175.261 104.976 174.517 105.162 173.665 105.162C172.789 105.162 171.997 104.946 171.289 104.514C170.581 104.082 170.023 103.476 169.615 102.696C169.207 101.916 169.003 101.028 169.003 100.032ZM177.355 100.05C177.355 99.306 177.205 98.658 176.905 98.106C176.605 97.554 176.197 97.134 175.681 96.846C175.177 96.546 174.619 96.396 174.007 96.396C173.395 96.396 172.837 96.54 172.333 96.828C171.829 97.116 171.427 97.536 171.127 98.088C170.827 98.64 170.677 99.288 170.677 100.032C170.677 100.788 170.827 101.448 171.127 102.012C171.427 102.564 171.829 102.99 172.333 103.29C172.837 103.578 173.395 103.722 174.007 103.722C174.619 103.722 175.177 103.578 175.681 103.29C176.197 102.99 176.605 102.564 176.905 102.012C177.205 101.448 177.355 100.794 177.355 100.05ZM185.271 105.162C184.515 105.162 183.837 105.036 183.237 104.784C182.637 104.52 182.163 104.16 181.815 103.704C181.467 103.236 181.275 102.702 181.239 102.102H182.931C182.979 102.594 183.207 102.996 183.615 103.308C184.035 103.62 184.581 103.776 185.253 103.776C185.877 103.776 186.369 103.638 186.729 103.362C187.089 103.086 187.269 102.738 187.269 102.318C187.269 101.886 187.077 101.568 186.693 101.364C186.309 101.148 185.715 100.938 184.911 100.734C184.179 100.542 183.579 100.35 183.111 100.158C182.655 99.954 182.259 99.66 181.923 99.276C181.599 98.88 181.437 98.364 181.437 97.728C181.437 97.224 181.587 96.762 181.887 96.342C182.187 95.922 182.613 95.592 183.165 95.352C183.717 95.1 184.347 94.974 185.055 94.974C186.147 94.974 187.029 95.25 187.701 95.802C188.373 96.354 188.733 97.11 188.781 98.07H187.143C187.107 97.554 186.897 97.14 186.513 96.828C186.141 96.516 185.637 96.36 185.001 96.36C184.413 96.36 183.945 96.486 183.597 96.738C183.249 96.99 183.075 97.32 183.075 97.728C183.075 98.052 183.177 98.322 183.381 98.538C183.597 98.742 183.861 98.91 184.173 99.042C184.497 99.162 184.941 99.3 185.505 99.456C186.213 99.648 186.789 99.84 187.233 100.032C187.677 100.212 188.055 100.488 188.367 100.86C188.691 101.232 188.859 101.718 188.871 102.318C188.871 102.858 188.721 103.344 188.421 103.776C188.121 104.208 187.695 104.55 187.143 104.802C186.603 105.042 185.979 105.162 185.271 105.162ZM193.181 96.486V102.3C193.181 102.78 193.283 103.122 193.487 103.326C193.691 103.518 194.045 103.614 194.549 103.614H195.755V105H194.279C193.367 105 192.683 104.79 192.227 104.37C191.771 103.95 191.543 103.26 191.543 102.3V96.486H190.265V95.136H191.543V92.652H193.181V95.136H195.755V96.486H193.181ZM198.586 93.534C198.274 93.534 198.01 93.426 197.794 93.21C197.578 92.994 197.47 92.73 197.47 92.418C197.47 92.106 197.578 91.842 197.794 91.626C198.01 91.41 198.274 91.302 198.586 91.302C198.886 91.302 199.138 91.41 199.342 91.626C199.558 91.842 199.666 92.106 199.666 92.418C199.666 92.73 199.558 92.994 199.342 93.21C199.138 93.426 198.886 93.534 198.586 93.534ZM199.378 95.136V105H197.74V95.136H199.378ZM206.975 94.956C208.175 94.956 209.147 95.322 209.891 96.054C210.635 96.774 211.007 97.818 211.007 99.186V105H209.387V99.42C209.387 98.436 209.141 97.686 208.649 97.17C208.157 96.642 207.485 96.378 206.633 96.378C205.769 96.378 205.079 96.648 204.563 97.188C204.059 97.728 203.807 98.514 203.807 99.546V105H202.169V95.136H203.807V96.54C204.131 96.036 204.569 95.646 205.121 95.37C205.685 95.094 206.303 94.956 206.975 94.956ZM217.751 94.974C218.603 94.974 219.347 95.16 219.983 95.532C220.631 95.904 221.111 96.372 221.423 96.936V95.136H223.079V105.216C223.079 106.116 222.887 106.914 222.503 107.61C222.119 108.318 221.567 108.87 220.847 109.266C220.139 109.662 219.311 109.86 218.363 109.86C217.067 109.86 215.987 109.554 215.123 108.942C214.259 108.33 213.749 107.496 213.593 106.44H215.213C215.393 107.04 215.765 107.52 216.329 107.88C216.893 108.252 217.571 108.438 218.363 108.438C219.263 108.438 219.995 108.156 220.559 107.592C221.135 107.028 221.423 106.236 221.423 105.216V103.146C221.099 103.722 220.619 104.202 219.983 104.586C219.347 104.97 218.603 105.162 217.751 105.162C216.875 105.162 216.077 104.946 215.357 104.514C214.649 104.082 214.091 103.476 213.683 102.696C213.275 101.916 213.071 101.028 213.071 100.032C213.071 99.024 213.275 98.142 213.683 97.386C214.091 96.618 214.649 96.024 215.357 95.604C216.077 95.184 216.875 94.974 217.751 94.974ZM221.423 100.05C221.423 99.306 221.273 98.658 220.973 98.106C220.673 97.554 220.265 97.134 219.749 96.846C219.245 96.546 218.687 96.396 218.075 96.396C217.463 96.396 216.905 96.54 216.401 96.828C215.897 97.116 215.495 97.536 215.195 98.088C214.895 98.64 214.745 99.288 214.745 100.032C214.745 100.788 214.895 101.448 215.195 102.012C215.495 102.564 215.897 102.99 216.401 103.29C216.905 103.578 217.463 103.722 218.075 103.722C218.687 103.722 219.245 103.578 219.749 103.29C220.265 102.99 220.673 102.564 220.973 102.012C221.273 101.448 221.423 100.794 221.423 100.05ZM122.526 118.68V132H120.888V118.68H122.526ZM134.318 126.69C134.318 127.002 134.3 127.332 134.264 127.68H126.38C126.44 128.652 126.77 129.414 127.37 129.966C127.982 130.506 128.72 130.776 129.584 130.776C130.292 130.776 130.88 130.614 131.348 130.29C131.828 129.954 132.164 129.51 132.356 128.958H134.12C133.856 129.906 133.328 130.68 132.536 131.28C131.744 131.868 130.76 132.162 129.584 132.162C128.648 132.162 127.808 131.952 127.064 131.532C126.332 131.112 125.756 130.518 125.336 129.75C124.916 128.97 124.706 128.07 124.706 127.05C124.706 126.03 124.91 125.136 125.318 124.368C125.726 123.6 126.296 123.012 127.028 122.604C127.772 122.184 128.624 121.974 129.584 121.974C130.52 121.974 131.348 122.178 132.068 122.586C132.788 122.994 133.34 123.558 133.724 124.278C134.12 124.986 134.318 125.79 134.318 126.69ZM132.626 126.348C132.626 125.724 132.488 125.19 132.212 124.746C131.936 124.29 131.558 123.948 131.078 123.72C130.61 123.48 130.088 123.36 129.512 123.36C128.684 123.36 127.976 123.624 127.388 124.152C126.812 124.68 126.482 125.412 126.398 126.348H132.626ZM140.548 121.974C141.4 121.974 142.144 122.16 142.78 122.532C143.428 122.904 143.908 123.372 144.22 123.936V122.136H145.876V132.216C145.876 133.116 145.684 133.914 145.3 134.61C144.916 135.318 144.364 135.87 143.644 136.266C142.936 136.662 142.108 136.86 141.16 136.86C139.864 136.86 138.784 136.554 137.92 135.942C137.056 135.33 136.546 134.496 136.39 133.44H138.01C138.19 134.04 138.562 134.52 139.126 134.88C139.69 135.252 140.368 135.438 141.16 135.438C142.06 135.438 142.792 135.156 143.356 134.592C143.932 134.028 144.22 133.236 144.22 132.216V130.146C143.896 130.722 143.416 131.202 142.78 131.586C142.144 131.97 141.4 132.162 140.548 132.162C139.672 132.162 138.874 131.946 138.154 131.514C137.446 131.082 136.888 130.476 136.48 129.696C136.072 128.916 135.868 128.028 135.868 127.032C135.868 126.024 136.072 125.142 136.48 124.386C136.888 123.618 137.446 123.024 138.154 122.604C138.874 122.184 139.672 121.974 140.548 121.974ZM144.22 127.05C144.22 126.306 144.07 125.658 143.77 125.106C143.47 124.554 143.062 124.134 142.546 123.846C142.042 123.546 141.484 123.396 140.872 123.396C140.26 123.396 139.702 123.54 139.198 123.828C138.694 124.116 138.292 124.536 137.992 125.088C137.692 125.64 137.542 126.288 137.542 127.032C137.542 127.788 137.692 128.448 137.992 129.012C138.292 129.564 138.694 129.99 139.198 130.29C139.702 130.578 140.26 130.722 140.872 130.722C141.484 130.722 142.042 130.578 142.546 130.29C143.062 129.99 143.47 129.564 143.77 129.012C144.07 128.448 144.22 127.794 144.22 127.05ZM148.032 127.032C148.032 126.024 148.236 125.142 148.644 124.386C149.052 123.618 149.61 123.024 150.318 122.604C151.038 122.184 151.836 121.974 152.712 121.974C153.576 121.974 154.326 122.16 154.962 122.532C155.598 122.904 156.072 123.372 156.384 123.936V122.136H158.04V132H156.384V130.164C156.06 130.74 155.574 131.22 154.926 131.604C154.29 131.976 153.546 132.162 152.694 132.162C151.818 132.162 151.026 131.946 150.318 131.514C149.61 131.082 149.052 130.476 148.644 129.696C148.236 128.916 148.032 128.028 148.032 127.032ZM156.384 127.05C156.384 126.306 156.234 125.658 155.934 125.106C155.634 124.554 155.226 124.134 154.71 123.846C154.206 123.546 153.648 123.396 153.036 123.396C152.424 123.396 151.866 123.54 151.362 123.828C150.858 124.116 150.456 124.536 150.156 125.088C149.856 125.64 149.706 126.288 149.706 127.032C149.706 127.788 149.856 128.448 150.156 129.012C150.456 129.564 150.858 129.99 151.362 130.29C151.866 130.578 152.424 130.722 153.036 130.722C153.648 130.722 154.206 130.578 154.71 130.29C155.226 129.99 155.634 129.564 155.934 129.012C156.234 128.448 156.384 127.794 156.384 127.05ZM160.196 127.05C160.196 126.03 160.4 125.142 160.808 124.386C161.216 123.618 161.78 123.024 162.5 122.604C163.232 122.184 164.066 121.974 165.002 121.974C166.214 121.974 167.21 122.268 167.99 122.856C168.782 123.444 169.304 124.26 169.556 125.304H167.792C167.624 124.704 167.294 124.23 166.802 123.882C166.322 123.534 165.722 123.36 165.002 123.36C164.066 123.36 163.31 123.684 162.734 124.332C162.158 124.968 161.87 125.874 161.87 127.05C161.87 128.238 162.158 129.156 162.734 129.804C163.31 130.452 164.066 130.776 165.002 130.776C165.722 130.776 166.322 130.608 166.802 130.272C167.282 129.936 167.612 129.456 167.792 128.832H169.556C169.292 129.84 168.764 130.65 167.972 131.262C167.18 131.862 166.19 132.162 165.002 132.162C164.066 132.162 163.232 131.952 162.5 131.532C161.78 131.112 161.216 130.518 160.808 129.75C160.4 128.982 160.196 128.082 160.196 127.05ZM180.237 122.136L174.297 136.644H172.605L174.549 131.892L170.571 122.136H172.389L175.485 130.128L178.545 122.136H180.237Z" fill="white"/>
</g>
</svg>
