<svg width="300" height="225" viewBox="0 0 300 225" fill="none" xmlns="http://www.w3.org/2000/svg">
<g id="yellow-3">
<rect id="Rectangle 10" width="300" height="225" fill="#DFC479"/>
<path id="Achieve financial freedom" d="M81.9416 103.21H76.4696L75.4616 106H73.7336L78.2696 93.526H80.1596L84.6776 106H82.9496L81.9416 103.21ZM81.4736 101.878L79.2056 95.542L76.9376 101.878H81.4736ZM86.0426 101.05C86.0426 100.03 86.2466 99.142 86.6546 98.386C87.0626 97.618 87.6266 97.024 88.3466 96.604C89.0786 96.184 89.9126 95.974 90.8486 95.974C92.0606 95.974 93.0566 96.268 93.8366 96.856C94.6286 97.444 95.1506 98.26 95.4026 99.304H93.6386C93.4706 98.704 93.1406 98.23 92.6486 97.882C92.1686 97.534 91.5686 97.36 90.8486 97.36C89.9126 97.36 89.1566 97.684 88.5806 98.332C88.0046 98.968 87.7166 99.874 87.7166 101.05C87.7166 102.238 88.0046 103.156 88.5806 103.804C89.1566 104.452 89.9126 104.776 90.8486 104.776C91.5686 104.776 92.1686 104.608 92.6486 104.272C93.1286 103.936 93.4586 103.456 93.6386 102.832H95.4026C95.1386 103.84 94.6106 104.65 93.8186 105.262C93.0266 105.862 92.0366 106.162 90.8486 106.162C89.9126 106.162 89.0786 105.952 88.3466 105.532C87.6266 105.112 87.0626 104.518 86.6546 103.75C86.2466 102.982 86.0426 102.082 86.0426 101.05ZM102.484 95.956C103.228 95.956 103.9 96.118 104.5 96.442C105.1 96.754 105.568 97.228 105.904 97.864C106.252 98.5 106.426 99.274 106.426 100.186V106H104.806V100.42C104.806 99.436 104.56 98.686 104.068 98.17C103.576 97.642 102.904 97.378 102.052 97.378C101.188 97.378 100.498 97.648 99.9821 98.188C99.4781 98.728 99.2261 99.514 99.2261 100.546V106H97.5881V92.68H99.2261V97.54C99.5501 97.036 99.9941 96.646 100.558 96.37C101.134 96.094 101.776 95.956 102.484 95.956ZM109.948 94.534C109.636 94.534 109.372 94.426 109.156 94.21C108.94 93.994 108.832 93.73 108.832 93.418C108.832 93.106 108.94 92.842 109.156 92.626C109.372 92.41 109.636 92.302 109.948 92.302C110.248 92.302 110.5 92.41 110.704 92.626C110.92 92.842 111.028 93.106 111.028 93.418C111.028 93.73 110.92 93.994 110.704 94.21C110.5 94.426 110.248 94.534 109.948 94.534ZM110.74 96.136V106H109.102V96.136H110.74ZM122.532 100.69C122.532 101.002 122.514 101.332 122.478 101.68H114.594C114.654 102.652 114.984 103.414 115.584 103.966C116.196 104.506 116.934 104.776 117.798 104.776C118.506 104.776 119.094 104.614 119.562 104.29C120.042 103.954 120.378 103.51 120.57 102.958H122.334C122.07 103.906 121.542 104.68 120.75 105.28C119.958 105.868 118.974 106.162 117.798 106.162C116.862 106.162 116.022 105.952 115.278 105.532C114.546 105.112 113.97 104.518 113.55 103.75C113.13 102.97 112.92 102.07 112.92 101.05C112.92 100.03 113.124 99.136 113.532 98.368C113.94 97.6 114.51 97.012 115.242 96.604C115.986 96.184 116.838 95.974 117.798 95.974C118.734 95.974 119.562 96.178 120.282 96.586C121.002 96.994 121.554 97.558 121.938 98.278C122.334 98.986 122.532 99.79 122.532 100.69ZM120.84 100.348C120.84 99.724 120.702 99.19 120.426 98.746C120.15 98.29 119.772 97.948 119.292 97.72C118.824 97.48 118.302 97.36 117.726 97.36C116.898 97.36 116.19 97.624 115.602 98.152C115.026 98.68 114.696 99.412 114.612 100.348H120.84ZM128.366 104.488L131.426 96.136H133.172L129.302 106H127.394L123.524 96.136H125.288L128.366 104.488ZM143.783 100.69C143.783 101.002 143.765 101.332 143.729 101.68H135.845C135.905 102.652 136.235 103.414 136.835 103.966C137.447 104.506 138.185 104.776 139.049 104.776C139.757 104.776 140.345 104.614 140.813 104.29C141.293 103.954 141.629 103.51 141.821 102.958H143.585C143.321 103.906 142.793 104.68 142.001 105.28C141.209 105.868 140.225 106.162 139.049 106.162C138.113 106.162 137.273 105.952 136.529 105.532C135.797 105.112 135.221 104.518 134.801 103.75C134.381 102.97 134.171 102.07 134.171 101.05C134.171 100.03 134.375 99.136 134.783 98.368C135.191 97.6 135.761 97.012 136.493 96.604C137.237 96.184 138.089 95.974 139.049 95.974C139.985 95.974 140.813 96.178 141.533 96.586C142.253 96.994 142.805 97.558 143.189 98.278C143.585 98.986 143.783 99.79 143.783 100.69ZM142.091 100.348C142.091 99.724 141.953 99.19 141.677 98.746C141.401 98.29 141.023 97.948 140.543 97.72C140.075 97.48 139.553 97.36 138.977 97.36C138.149 97.36 137.441 97.624 136.853 98.152C136.277 98.68 135.947 99.412 135.863 100.348H142.091ZM154.758 97.486H152.688V106H151.05V97.486H149.772V96.136H151.05V95.434C151.05 94.33 151.332 93.526 151.896 93.022C152.472 92.506 153.39 92.248 154.65 92.248V93.616C153.93 93.616 153.42 93.76 153.12 94.048C152.832 94.324 152.688 94.786 152.688 95.434V96.136H154.758V97.486ZM157.514 94.534C157.202 94.534 156.938 94.426 156.722 94.21C156.506 93.994 156.398 93.73 156.398 93.418C156.398 93.106 156.506 92.842 156.722 92.626C156.938 92.41 157.202 92.302 157.514 92.302C157.814 92.302 158.066 92.41 158.27 92.626C158.486 92.842 158.594 93.106 158.594 93.418C158.594 93.73 158.486 93.994 158.27 94.21C158.066 94.426 157.814 94.534 157.514 94.534ZM158.306 96.136V106H156.668V96.136H158.306ZM165.904 95.956C167.104 95.956 168.076 96.322 168.82 97.054C169.564 97.774 169.936 98.818 169.936 100.186V106H168.316V100.42C168.316 99.436 168.07 98.686 167.578 98.17C167.086 97.642 166.414 97.378 165.562 97.378C164.698 97.378 164.008 97.648 163.492 98.188C162.988 98.728 162.736 99.514 162.736 100.546V106H161.098V96.136H162.736V97.54C163.06 97.036 163.498 96.646 164.05 96.37C164.614 96.094 165.232 95.956 165.904 95.956ZM172 101.032C172 100.024 172.204 99.142 172.612 98.386C173.02 97.618 173.578 97.024 174.286 96.604C175.006 96.184 175.804 95.974 176.68 95.974C177.544 95.974 178.294 96.16 178.93 96.532C179.566 96.904 180.04 97.372 180.352 97.936V96.136H182.008V106H180.352V104.164C180.028 104.74 179.542 105.22 178.894 105.604C178.258 105.976 177.514 106.162 176.662 106.162C175.786 106.162 174.994 105.946 174.286 105.514C173.578 105.082 173.02 104.476 172.612 103.696C172.204 102.916 172 102.028 172 101.032ZM180.352 101.05C180.352 100.306 180.202 99.658 179.902 99.106C179.602 98.554 179.194 98.134 178.678 97.846C178.174 97.546 177.616 97.396 177.004 97.396C176.392 97.396 175.834 97.54 175.33 97.828C174.826 98.116 174.424 98.536 174.124 99.088C173.824 99.64 173.674 100.288 173.674 101.032C173.674 101.788 173.824 102.448 174.124 103.012C174.424 103.564 174.826 103.99 175.33 104.29C175.834 104.578 176.392 104.722 177.004 104.722C177.616 104.722 178.174 104.578 178.678 104.29C179.194 103.99 179.602 103.564 179.902 103.012C180.202 102.448 180.352 101.794 180.352 101.05ZM189.582 95.956C190.782 95.956 191.754 96.322 192.498 97.054C193.242 97.774 193.614 98.818 193.614 100.186V106H191.994V100.42C191.994 99.436 191.748 98.686 191.256 98.17C190.764 97.642 190.092 97.378 189.24 97.378C188.376 97.378 187.686 97.648 187.17 98.188C186.666 98.728 186.414 99.514 186.414 100.546V106H184.776V96.136H186.414V97.54C186.738 97.036 187.176 96.646 187.728 96.37C188.292 96.094 188.91 95.956 189.582 95.956ZM195.677 101.05C195.677 100.03 195.881 99.142 196.289 98.386C196.697 97.618 197.261 97.024 197.981 96.604C198.713 96.184 199.547 95.974 200.483 95.974C201.695 95.974 202.691 96.268 203.471 96.856C204.263 97.444 204.785 98.26 205.037 99.304H203.273C203.105 98.704 202.775 98.23 202.283 97.882C201.803 97.534 201.203 97.36 200.483 97.36C199.547 97.36 198.791 97.684 198.215 98.332C197.639 98.968 197.351 99.874 197.351 101.05C197.351 102.238 197.639 103.156 198.215 103.804C198.791 104.452 199.547 104.776 200.483 104.776C201.203 104.776 201.803 104.608 202.283 104.272C202.763 103.936 203.093 103.456 203.273 102.832H205.037C204.773 103.84 204.245 104.65 203.453 105.262C202.661 105.862 201.671 106.162 200.483 106.162C199.547 106.162 198.713 105.952 197.981 105.532C197.261 105.112 196.697 104.518 196.289 103.75C195.881 102.982 195.677 102.082 195.677 101.05ZM208.069 94.534C207.757 94.534 207.493 94.426 207.277 94.21C207.061 93.994 206.953 93.73 206.953 93.418C206.953 93.106 207.061 92.842 207.277 92.626C207.493 92.41 207.757 92.302 208.069 92.302C208.369 92.302 208.621 92.41 208.825 92.626C209.041 92.842 209.149 93.106 209.149 93.418C209.149 93.73 209.041 93.994 208.825 94.21C208.621 94.426 208.369 94.534 208.069 94.534ZM208.861 96.136V106H207.223V96.136H208.861ZM211.041 101.032C211.041 100.024 211.245 99.142 211.653 98.386C212.061 97.618 212.619 97.024 213.327 96.604C214.047 96.184 214.845 95.974 215.721 95.974C216.585 95.974 217.335 96.16 217.971 96.532C218.607 96.904 219.081 97.372 219.393 97.936V96.136H221.049V106H219.393V104.164C219.069 104.74 218.583 105.22 217.935 105.604C217.299 105.976 216.555 106.162 215.703 106.162C214.827 106.162 214.035 105.946 213.327 105.514C212.619 105.082 212.061 104.476 211.653 103.696C211.245 102.916 211.041 102.028 211.041 101.032ZM219.393 101.05C219.393 100.306 219.243 99.658 218.943 99.106C218.643 98.554 218.235 98.134 217.719 97.846C217.215 97.546 216.657 97.396 216.045 97.396C215.433 97.396 214.875 97.54 214.371 97.828C213.867 98.116 213.465 98.536 213.165 99.088C212.865 99.64 212.715 100.288 212.715 101.032C212.715 101.788 212.865 102.448 213.165 103.012C213.465 103.564 213.867 103.99 214.371 104.29C214.875 104.578 215.433 104.722 216.045 104.722C216.657 104.722 217.215 104.578 217.719 104.29C218.235 103.99 218.643 103.564 218.943 103.012C219.243 102.448 219.393 101.794 219.393 101.05ZM225.455 92.68V106H223.817V92.68H225.455ZM116.807 124.486H114.737V133H113.099V124.486H111.821V123.136H113.099V122.434C113.099 121.33 113.381 120.526 113.945 120.022C114.521 119.506 115.439 119.248 116.699 119.248V120.616C115.979 120.616 115.469 120.76 115.169 121.048C114.881 121.324 114.737 121.786 114.737 122.434V123.136H116.807V124.486ZM120.355 124.738C120.643 124.174 121.051 123.736 121.579 123.424C122.119 123.112 122.773 122.956 123.541 122.956V124.648H123.109C121.273 124.648 120.355 125.644 120.355 127.636V133H118.717V123.136H120.355V124.738ZM134.432 127.69C134.432 128.002 134.414 128.332 134.378 128.68H126.494C126.554 129.652 126.884 130.414 127.484 130.966C128.096 131.506 128.834 131.776 129.698 131.776C130.406 131.776 130.994 131.614 131.462 131.29C131.942 130.954 132.278 130.51 132.47 129.958H134.234C133.97 130.906 133.442 131.68 132.65 132.28C131.858 132.868 130.874 133.162 129.698 133.162C128.762 133.162 127.922 132.952 127.178 132.532C126.446 132.112 125.87 131.518 125.45 130.75C125.03 129.97 124.82 129.07 124.82 128.05C124.82 127.03 125.024 126.136 125.432 125.368C125.84 124.6 126.41 124.012 127.142 123.604C127.886 123.184 128.738 122.974 129.698 122.974C130.634 122.974 131.462 123.178 132.182 123.586C132.902 123.994 133.454 124.558 133.838 125.278C134.234 125.986 134.432 126.79 134.432 127.69ZM132.74 127.348C132.74 126.724 132.602 126.19 132.326 125.746C132.05 125.29 131.672 124.948 131.192 124.72C130.724 124.48 130.202 124.36 129.626 124.36C128.798 124.36 128.09 124.624 127.502 125.152C126.926 125.68 126.596 126.412 126.512 127.348H132.74ZM145.594 127.69C145.594 128.002 145.576 128.332 145.54 128.68H137.656C137.716 129.652 138.046 130.414 138.646 130.966C139.258 131.506 139.996 131.776 140.86 131.776C141.568 131.776 142.156 131.614 142.624 131.29C143.104 130.954 143.44 130.51 143.632 129.958H145.396C145.132 130.906 144.604 131.68 143.812 132.28C143.02 132.868 142.036 133.162 140.86 133.162C139.924 133.162 139.084 132.952 138.34 132.532C137.608 132.112 137.032 131.518 136.612 130.75C136.192 129.97 135.982 129.07 135.982 128.05C135.982 127.03 136.186 126.136 136.594 125.368C137.002 124.6 137.572 124.012 138.304 123.604C139.048 123.184 139.9 122.974 140.86 122.974C141.796 122.974 142.624 123.178 143.344 123.586C144.064 123.994 144.616 124.558 145 125.278C145.396 125.986 145.594 126.79 145.594 127.69ZM143.902 127.348C143.902 126.724 143.764 126.19 143.488 125.746C143.212 125.29 142.834 124.948 142.354 124.72C141.886 124.48 141.364 124.36 140.788 124.36C139.96 124.36 139.252 124.624 138.664 125.152C138.088 125.68 137.758 126.412 137.674 127.348H143.902ZM147.144 128.032C147.144 127.024 147.348 126.142 147.756 125.386C148.164 124.618 148.722 124.024 149.43 123.604C150.15 123.184 150.954 122.974 151.842 122.974C152.61 122.974 153.324 123.154 153.984 123.514C154.644 123.862 155.148 124.324 155.496 124.9V119.68H157.152V133H155.496V131.146C155.172 131.734 154.692 132.22 154.056 132.604C153.42 132.976 152.676 133.162 151.824 133.162C150.948 133.162 150.15 132.946 149.43 132.514C148.722 132.082 148.164 131.476 147.756 130.696C147.348 129.916 147.144 129.028 147.144 128.032ZM155.496 128.05C155.496 127.306 155.346 126.658 155.046 126.106C154.746 125.554 154.338 125.134 153.822 124.846C153.318 124.546 152.76 124.396 152.148 124.396C151.536 124.396 150.978 124.54 150.474 124.828C149.97 125.116 149.568 125.536 149.268 126.088C148.968 126.64 148.818 127.288 148.818 128.032C148.818 128.788 148.968 129.448 149.268 130.012C149.568 130.564 149.97 130.99 150.474 131.29C150.978 131.578 151.536 131.722 152.148 131.722C152.76 131.722 153.318 131.578 153.822 131.29C154.338 130.99 154.746 130.564 155.046 130.012C155.346 129.448 155.496 128.794 155.496 128.05ZM164.222 133.162C163.298 133.162 162.458 132.952 161.702 132.532C160.958 132.112 160.37 131.518 159.938 130.75C159.518 129.97 159.308 129.07 159.308 128.05C159.308 127.042 159.524 126.154 159.956 125.386C160.4 124.606 161 124.012 161.756 123.604C162.512 123.184 163.358 122.974 164.294 122.974C165.23 122.974 166.076 123.184 166.832 123.604C167.588 124.012 168.182 124.6 168.614 125.368C169.058 126.136 169.28 127.03 169.28 128.05C169.28 129.07 169.052 129.97 168.596 130.75C168.152 131.518 167.546 132.112 166.778 132.532C166.01 132.952 165.158 133.162 164.222 133.162ZM164.222 131.722C164.81 131.722 165.362 131.584 165.878 131.308C166.394 131.032 166.808 130.618 167.12 130.066C167.444 129.514 167.606 128.842 167.606 128.05C167.606 127.258 167.45 126.586 167.138 126.034C166.826 125.482 166.418 125.074 165.914 124.81C165.41 124.534 164.864 124.396 164.276 124.396C163.676 124.396 163.124 124.534 162.62 124.81C162.128 125.074 161.732 125.482 161.432 126.034C161.132 126.586 160.982 127.258 160.982 128.05C160.982 128.854 161.126 129.532 161.414 130.084C161.714 130.636 162.11 131.05 162.602 131.326C163.094 131.59 163.634 131.722 164.222 131.722ZM183.296 122.956C184.064 122.956 184.748 123.118 185.348 123.442C185.948 123.754 186.422 124.228 186.77 124.864C187.118 125.5 187.292 126.274 187.292 127.186V133H185.672V127.42C185.672 126.436 185.426 125.686 184.934 125.17C184.454 124.642 183.8 124.378 182.972 124.378C182.12 124.378 181.442 124.654 180.938 125.206C180.434 125.746 180.182 126.532 180.182 127.564V133H178.562V127.42C178.562 126.436 178.316 125.686 177.824 125.17C177.344 124.642 176.69 124.378 175.862 124.378C175.01 124.378 174.332 124.654 173.828 125.206C173.324 125.746 173.072 126.532 173.072 127.564V133H171.434V123.136H173.072V124.558C173.396 124.042 173.828 123.646 174.368 123.37C174.92 123.094 175.526 122.956 176.186 122.956C177.014 122.956 177.746 123.142 178.382 123.514C179.018 123.886 179.492 124.432 179.804 125.152C180.08 124.456 180.536 123.916 181.172 123.532C181.808 123.148 182.516 122.956 183.296 122.956Z" fill="white"/>
</g>
</svg>
