<svg width="300" height="225" viewBox="0 0 300 225" fill="none" xmlns="http://www.w3.org/2000/svg">
<g id="yellow-4">
<rect id="Rectangle 12" width="300" height="225" fill="#DFC479"/>
<path id="Spend guiilt free" d="M82.5378 119.126C81.7098 119.126 80.9658 118.982 80.3058 118.694C79.6578 118.394 79.1478 117.986 78.7758 117.47C78.4038 116.942 78.2118 116.336 78.1998 115.652H79.9458C80.0058 116.24 80.2458 116.738 80.6658 117.146C81.0978 117.542 81.7218 117.74 82.5378 117.74C83.3178 117.74 83.9298 117.548 84.3738 117.164C84.8298 116.768 85.0578 116.264 85.0578 115.652C85.0578 115.172 84.9258 114.782 84.6618 114.482C84.3978 114.182 84.0678 113.954 83.6718 113.798C83.2758 113.642 82.7418 113.474 82.0698 113.294C81.2418 113.078 80.5758 112.862 80.0718 112.646C79.5798 112.43 79.1538 112.094 78.7938 111.638C78.4458 111.17 78.2718 110.546 78.2718 109.766C78.2718 109.082 78.4458 108.476 78.7938 107.948C79.1418 107.42 79.6278 107.012 80.2518 106.724C80.8878 106.436 81.6138 106.292 82.4298 106.292C83.6058 106.292 84.5658 106.586 85.3098 107.174C86.0658 107.762 86.4918 108.542 86.5878 109.514H84.7878C84.7278 109.034 84.4758 108.614 84.0318 108.254C83.5878 107.882 82.9998 107.696 82.2678 107.696C81.5838 107.696 81.0258 107.876 80.5938 108.236C80.1618 108.584 79.9458 109.076 79.9458 109.712C79.9458 110.168 80.0718 110.54 80.3238 110.828C80.5878 111.116 80.9058 111.338 81.2778 111.494C81.6618 111.638 82.1958 111.806 82.8798 111.998C83.7078 112.226 84.3738 112.454 84.8778 112.682C85.3818 112.898 85.8138 113.24 86.1738 113.708C86.5338 114.164 86.7138 114.788 86.7138 115.58C86.7138 116.192 86.5518 116.768 86.2278 117.308C85.9038 117.848 85.4238 118.286 84.7878 118.622C84.1518 118.958 83.4018 119.126 82.5378 119.126ZM90.7623 110.954C91.0863 110.39 91.5663 109.922 92.2023 109.55C92.8503 109.166 93.6003 108.974 94.4523 108.974C95.3283 108.974 96.1203 109.184 96.8283 109.604C97.5483 110.024 98.1123 110.618 98.5203 111.386C98.9283 112.142 99.1323 113.024 99.1323 114.032C99.1323 115.028 98.9283 115.916 98.5203 116.696C98.1123 117.476 97.5483 118.082 96.8283 118.514C96.1203 118.946 95.3283 119.162 94.4523 119.162C93.6123 119.162 92.8683 118.976 92.2203 118.604C91.5843 118.22 91.0983 117.746 90.7623 117.182V123.68H89.1243V109.136H90.7623V110.954ZM97.4583 114.032C97.4583 113.288 97.3083 112.64 97.0083 112.088C96.7083 111.536 96.3003 111.116 95.7843 110.828C95.2803 110.54 94.7223 110.396 94.1103 110.396C93.5103 110.396 92.9523 110.546 92.4363 110.846C91.9323 111.134 91.5243 111.56 91.2123 112.124C90.9123 112.676 90.7623 113.318 90.7623 114.05C90.7623 114.794 90.9123 115.448 91.2123 116.012C91.5243 116.564 91.9323 116.99 92.4363 117.29C92.9523 117.578 93.5103 117.722 94.1103 117.722C94.7223 117.722 95.2803 117.578 95.7843 117.29C96.3003 116.99 96.7083 116.564 97.0083 116.012C97.3083 115.448 97.4583 114.788 97.4583 114.032ZM110.288 113.69C110.288 114.002 110.27 114.332 110.234 114.68H102.35C102.41 115.652 102.74 116.414 103.34 116.966C103.952 117.506 104.69 117.776 105.554 117.776C106.262 117.776 106.85 117.614 107.318 117.29C107.798 116.954 108.134 116.51 108.326 115.958H110.09C109.826 116.906 109.298 117.68 108.506 118.28C107.714 118.868 106.73 119.162 105.554 119.162C104.618 119.162 103.778 118.952 103.034 118.532C102.302 118.112 101.726 117.518 101.306 116.75C100.886 115.97 100.676 115.07 100.676 114.05C100.676 113.03 100.88 112.136 101.288 111.368C101.696 110.6 102.266 110.012 102.998 109.604C103.742 109.184 104.594 108.974 105.554 108.974C106.49 108.974 107.318 109.178 108.038 109.586C108.758 109.994 109.31 110.558 109.694 111.278C110.09 111.986 110.288 112.79 110.288 113.69ZM108.596 113.348C108.596 112.724 108.458 112.19 108.182 111.746C107.906 111.29 107.528 110.948 107.048 110.72C106.58 110.48 106.058 110.36 105.482 110.36C104.654 110.36 103.946 110.624 103.358 111.152C102.782 111.68 102.452 112.412 102.368 113.348H108.596ZM117.256 108.956C118.456 108.956 119.428 109.322 120.172 110.054C120.916 110.774 121.288 111.818 121.288 113.186V119H119.668V113.42C119.668 112.436 119.422 111.686 118.93 111.17C118.438 110.642 117.766 110.378 116.914 110.378C116.05 110.378 115.36 110.648 114.844 111.188C114.34 111.728 114.088 112.514 114.088 113.546V119H112.45V109.136H114.088V110.54C114.412 110.036 114.85 109.646 115.402 109.37C115.966 109.094 116.584 108.956 117.256 108.956ZM123.352 114.032C123.352 113.024 123.556 112.142 123.964 111.386C124.372 110.618 124.93 110.024 125.638 109.604C126.358 109.184 127.162 108.974 128.05 108.974C128.818 108.974 129.532 109.154 130.192 109.514C130.852 109.862 131.356 110.324 131.704 110.9V105.68H133.36V119H131.704V117.146C131.38 117.734 130.9 118.22 130.264 118.604C129.628 118.976 128.884 119.162 128.032 119.162C127.156 119.162 126.358 118.946 125.638 118.514C124.93 118.082 124.372 117.476 123.964 116.696C123.556 115.916 123.352 115.028 123.352 114.032ZM131.704 114.05C131.704 113.306 131.554 112.658 131.254 112.106C130.954 111.554 130.546 111.134 130.03 110.846C129.526 110.546 128.968 110.396 128.356 110.396C127.744 110.396 127.186 110.54 126.682 110.828C126.178 111.116 125.776 111.536 125.476 112.088C125.176 112.64 125.026 113.288 125.026 114.032C125.026 114.788 125.176 115.448 125.476 116.012C125.776 116.564 126.178 116.99 126.682 117.29C127.186 117.578 127.744 117.722 128.356 117.722C128.968 117.722 129.526 117.578 130.03 117.29C130.546 116.99 130.954 116.564 131.254 116.012C131.554 115.448 131.704 114.794 131.704 114.05ZM144.995 108.974C145.847 108.974 146.591 109.16 147.227 109.532C147.875 109.904 148.355 110.372 148.667 110.936V109.136H150.323V119.216C150.323 120.116 150.131 120.914 149.747 121.61C149.363 122.318 148.811 122.87 148.091 123.266C147.383 123.662 146.555 123.86 145.607 123.86C144.311 123.86 143.231 123.554 142.367 122.942C141.503 122.33 140.993 121.496 140.837 120.44H142.457C142.637 121.04 143.009 121.52 143.573 121.88C144.137 122.252 144.815 122.438 145.607 122.438C146.507 122.438 147.239 122.156 147.803 121.592C148.379 121.028 148.667 120.236 148.667 119.216V117.146C148.343 117.722 147.863 118.202 147.227 118.586C146.591 118.97 145.847 119.162 144.995 119.162C144.119 119.162 143.321 118.946 142.601 118.514C141.893 118.082 141.335 117.476 140.927 116.696C140.519 115.916 140.315 115.028 140.315 114.032C140.315 113.024 140.519 112.142 140.927 111.386C141.335 110.618 141.893 110.024 142.601 109.604C143.321 109.184 144.119 108.974 144.995 108.974ZM148.667 114.05C148.667 113.306 148.517 112.658 148.217 112.106C147.917 111.554 147.509 111.134 146.993 110.846C146.489 110.546 145.931 110.396 145.319 110.396C144.707 110.396 144.149 110.54 143.645 110.828C143.141 111.116 142.739 111.536 142.439 112.088C142.139 112.64 141.989 113.288 141.989 114.032C141.989 114.788 142.139 115.448 142.439 116.012C142.739 116.564 143.141 116.99 143.645 117.29C144.149 117.578 144.707 117.722 145.319 117.722C145.931 117.722 146.489 117.578 146.993 117.29C147.509 116.99 147.917 116.564 148.217 116.012C148.517 115.448 148.667 114.794 148.667 114.05ZM161.839 109.136V119H160.201V117.542C159.889 118.046 159.451 118.442 158.887 118.73C158.335 119.006 157.723 119.144 157.051 119.144C156.283 119.144 155.593 118.988 154.981 118.676C154.369 118.352 153.883 117.872 153.523 117.236C153.175 116.6 153.001 115.826 153.001 114.914V109.136H154.621V114.698C154.621 115.67 154.867 116.42 155.359 116.948C155.851 117.464 156.523 117.722 157.375 117.722C158.251 117.722 158.941 117.452 159.445 116.912C159.949 116.372 160.201 115.586 160.201 114.554V109.136H161.839ZM165.451 107.534C165.139 107.534 164.875 107.426 164.659 107.21C164.443 106.994 164.335 106.73 164.335 106.418C164.335 106.106 164.443 105.842 164.659 105.626C164.875 105.41 165.139 105.302 165.451 105.302C165.751 105.302 166.003 105.41 166.207 105.626C166.423 105.842 166.531 106.106 166.531 106.418C166.531 106.73 166.423 106.994 166.207 107.21C166.003 107.426 165.751 107.534 165.451 107.534ZM166.243 109.136V119H164.605V109.136H166.243ZM169.88 107.534C169.568 107.534 169.304 107.426 169.088 107.21C168.872 106.994 168.764 106.73 168.764 106.418C168.764 106.106 168.872 105.842 169.088 105.626C169.304 105.41 169.568 105.302 169.88 105.302C170.18 105.302 170.432 105.41 170.636 105.626C170.852 105.842 170.96 106.106 170.96 106.418C170.96 106.73 170.852 106.994 170.636 107.21C170.432 107.426 170.18 107.534 169.88 107.534ZM170.672 109.136V119H169.034V109.136H170.672ZM175.102 105.68V119H173.464V105.68H175.102ZM179.892 110.486V116.3C179.892 116.78 179.994 117.122 180.198 117.326C180.402 117.518 180.756 117.614 181.26 117.614H182.466V119H180.99C180.078 119 179.394 118.79 178.938 118.37C178.482 117.95 178.254 117.26 178.254 116.3V110.486H176.976V109.136H178.254V106.652H179.892V109.136H182.466V110.486H179.892ZM193.263 110.486H191.193V119H189.555V110.486H188.277V109.136H189.555V108.434C189.555 107.33 189.837 106.526 190.401 106.022C190.977 105.506 191.895 105.248 193.155 105.248V106.616C192.435 106.616 191.925 106.76 191.625 107.048C191.337 107.324 191.193 107.786 191.193 108.434V109.136H193.263V110.486ZM196.811 110.738C197.099 110.174 197.507 109.736 198.035 109.424C198.575 109.112 199.229 108.956 199.997 108.956V110.648H199.565C197.729 110.648 196.811 111.644 196.811 113.636V119H195.173V109.136H196.811V110.738ZM210.888 113.69C210.888 114.002 210.87 114.332 210.834 114.68H202.95C203.01 115.652 203.34 116.414 203.94 116.966C204.552 117.506 205.29 117.776 206.154 117.776C206.862 117.776 207.45 117.614 207.918 117.29C208.398 116.954 208.734 116.51 208.926 115.958H210.69C210.426 116.906 209.898 117.68 209.106 118.28C208.314 118.868 207.33 119.162 206.154 119.162C205.218 119.162 204.378 118.952 203.634 118.532C202.902 118.112 202.326 117.518 201.906 116.75C201.486 115.97 201.276 115.07 201.276 114.05C201.276 113.03 201.48 112.136 201.888 111.368C202.296 110.6 202.866 110.012 203.598 109.604C204.342 109.184 205.194 108.974 206.154 108.974C207.09 108.974 207.918 109.178 208.638 109.586C209.358 109.994 209.91 110.558 210.294 111.278C210.69 111.986 210.888 112.79 210.888 113.69ZM209.196 113.348C209.196 112.724 209.058 112.19 208.782 111.746C208.506 111.29 208.128 110.948 207.648 110.72C207.18 110.48 206.658 110.36 206.082 110.36C205.254 110.36 204.546 110.624 203.958 111.152C203.382 111.68 203.052 112.412 202.968 113.348H209.196ZM222.05 113.69C222.05 114.002 222.032 114.332 221.996 114.68H214.112C214.172 115.652 214.502 116.414 215.102 116.966C215.714 117.506 216.452 117.776 217.316 117.776C218.024 117.776 218.612 117.614 219.08 117.29C219.56 116.954 219.896 116.51 220.088 115.958H221.852C221.588 116.906 221.06 117.68 220.268 118.28C219.476 118.868 218.492 119.162 217.316 119.162C216.38 119.162 215.54 118.952 214.796 118.532C214.064 118.112 213.488 117.518 213.068 116.75C212.648 115.97 212.438 115.07 212.438 114.05C212.438 113.03 212.642 112.136 213.05 111.368C213.458 110.6 214.028 110.012 214.76 109.604C215.504 109.184 216.356 108.974 217.316 108.974C218.252 108.974 219.08 109.178 219.8 109.586C220.52 109.994 221.072 110.558 221.456 111.278C221.852 111.986 222.05 112.79 222.05 113.69ZM220.358 113.348C220.358 112.724 220.22 112.19 219.944 111.746C219.668 111.29 219.29 110.948 218.81 110.72C218.342 110.48 217.82 110.36 217.244 110.36C216.416 110.36 215.708 110.624 215.12 111.152C214.544 111.68 214.214 112.412 214.13 113.348H220.358Z" fill="white"/>
</g>
</svg>
