<svg width="300" height="225" viewBox="0 0 300 225" fill="none" xmlns="http://www.w3.org/2000/svg">
<g id="yellow-1">
<rect id="Rectangle 9" width="300" height="225" fill="#DFC479"/>
<path id="Spend times with friends &#38; family" d="M78.0994 105.126C77.2714 105.126 76.5274 104.982 75.8674 104.694C75.2194 104.394 74.7094 103.986 74.3374 103.47C73.9654 102.942 73.7734 102.336 73.7614 101.652H75.5074C75.5674 102.24 75.8074 102.738 76.2274 103.146C76.6594 103.542 77.2834 103.74 78.0994 103.74C78.8794 103.74 79.4914 103.548 79.9354 103.164C80.3914 102.768 80.6194 102.264 80.6194 101.652C80.6194 101.172 80.4874 100.782 80.2234 100.482C79.9594 100.182 79.6294 99.954 79.2334 99.798C78.8374 99.642 78.3034 99.474 77.6314 99.294C76.8034 99.078 76.1374 98.862 75.6334 98.646C75.1414 98.43 74.7154 98.094 74.3554 97.638C74.0074 97.17 73.8334 96.546 73.8334 95.766C73.8334 95.082 74.0074 94.476 74.3554 93.948C74.7034 93.42 75.1894 93.012 75.8134 92.724C76.4494 92.436 77.1754 92.292 77.9914 92.292C79.1674 92.292 80.1274 92.586 80.8714 93.174C81.6274 93.762 82.0534 94.542 82.1494 95.514H80.3494C80.2894 95.034 80.0374 94.614 79.5934 94.254C79.1494 93.882 78.5614 93.696 77.8294 93.696C77.1454 93.696 76.5874 93.876 76.1554 94.236C75.7234 94.584 75.5074 95.076 75.5074 95.712C75.5074 96.168 75.6334 96.54 75.8854 96.828C76.1494 97.116 76.4674 97.338 76.8394 97.494C77.2234 97.638 77.7574 97.806 78.4414 97.998C79.2694 98.226 79.9354 98.454 80.4394 98.682C80.9434 98.898 81.3754 99.24 81.7354 99.708C82.0954 100.164 82.2754 100.788 82.2754 101.58C82.2754 102.192 82.1134 102.768 81.7894 103.308C81.4654 103.848 80.9854 104.286 80.3494 104.622C79.7134 104.958 78.9634 105.126 78.0994 105.126ZM86.3238 96.954C86.6478 96.39 87.1278 95.922 87.7638 95.55C88.4118 95.166 89.1618 94.974 90.0138 94.974C90.8898 94.974 91.6818 95.184 92.3898 95.604C93.1098 96.024 93.6738 96.618 94.0818 97.386C94.4898 98.142 94.6938 99.024 94.6938 100.032C94.6938 101.028 94.4898 101.916 94.0818 102.696C93.6738 103.476 93.1098 104.082 92.3898 104.514C91.6818 104.946 90.8898 105.162 90.0138 105.162C89.1738 105.162 88.4298 104.976 87.7818 104.604C87.1458 104.22 86.6598 103.746 86.3238 103.182V109.68H84.6858V95.136H86.3238V96.954ZM93.0198 100.032C93.0198 99.288 92.8698 98.64 92.5698 98.088C92.2698 97.536 91.8618 97.116 91.3458 96.828C90.8418 96.54 90.2838 96.396 89.6718 96.396C89.0718 96.396 88.5138 96.546 87.9978 96.846C87.4938 97.134 87.0858 97.56 86.7738 98.124C86.4738 98.676 86.3238 99.318 86.3238 100.05C86.3238 100.794 86.4738 101.448 86.7738 102.012C87.0858 102.564 87.4938 102.99 87.9978 103.29C88.5138 103.578 89.0718 103.722 89.6718 103.722C90.2838 103.722 90.8418 103.578 91.3458 103.29C91.8618 102.99 92.2698 102.564 92.5698 102.012C92.8698 101.448 93.0198 100.788 93.0198 100.032ZM105.85 99.69C105.85 100.002 105.832 100.332 105.796 100.68H97.9119C97.9719 101.652 98.3019 102.414 98.9019 102.966C99.5139 103.506 100.252 103.776 101.116 103.776C101.824 103.776 102.412 103.614 102.88 103.29C103.36 102.954 103.696 102.51 103.888 101.958H105.652C105.388 102.906 104.86 103.68 104.068 104.28C103.276 104.868 102.292 105.162 101.116 105.162C100.18 105.162 99.3399 104.952 98.5959 104.532C97.8639 104.112 97.2879 103.518 96.8679 102.75C96.4479 101.97 96.2379 101.07 96.2379 100.05C96.2379 99.03 96.4419 98.136 96.8499 97.368C97.2579 96.6 97.8279 96.012 98.5599 95.604C99.3039 95.184 100.156 94.974 101.116 94.974C102.052 94.974 102.88 95.178 103.6 95.586C104.32 95.994 104.872 96.558 105.256 97.278C105.652 97.986 105.85 98.79 105.85 99.69ZM104.158 99.348C104.158 98.724 104.02 98.19 103.744 97.746C103.468 97.29 103.09 96.948 102.61 96.72C102.142 96.48 101.62 96.36 101.044 96.36C100.216 96.36 99.5079 96.624 98.9199 97.152C98.3439 97.68 98.0139 98.412 97.9299 99.348H104.158ZM112.818 94.956C114.018 94.956 114.99 95.322 115.734 96.054C116.478 96.774 116.85 97.818 116.85 99.186V105H115.23V99.42C115.23 98.436 114.984 97.686 114.492 97.17C114 96.642 113.328 96.378 112.476 96.378C111.612 96.378 110.922 96.648 110.406 97.188C109.902 97.728 109.65 98.514 109.65 99.546V105H108.012V95.136H109.65V96.54C109.974 96.036 110.412 95.646 110.964 95.37C111.528 95.094 112.146 94.956 112.818 94.956ZM118.914 100.032C118.914 99.024 119.118 98.142 119.526 97.386C119.934 96.618 120.492 96.024 121.2 95.604C121.92 95.184 122.724 94.974 123.612 94.974C124.38 94.974 125.094 95.154 125.754 95.514C126.414 95.862 126.918 96.324 127.266 96.9V91.68H128.922V105H127.266V103.146C126.942 103.734 126.462 104.22 125.826 104.604C125.19 104.976 124.446 105.162 123.594 105.162C122.718 105.162 121.92 104.946 121.2 104.514C120.492 104.082 119.934 103.476 119.526 102.696C119.118 101.916 118.914 101.028 118.914 100.032ZM127.266 100.05C127.266 99.306 127.116 98.658 126.816 98.106C126.516 97.554 126.108 97.134 125.592 96.846C125.088 96.546 124.53 96.396 123.918 96.396C123.306 96.396 122.748 96.54 122.244 96.828C121.74 97.116 121.338 97.536 121.038 98.088C120.738 98.64 120.588 99.288 120.588 100.032C120.588 100.788 120.738 101.448 121.038 102.012C121.338 102.564 121.74 102.99 122.244 103.29C122.748 103.578 123.306 103.722 123.918 103.722C124.53 103.722 125.088 103.578 125.592 103.29C126.108 102.99 126.516 102.564 126.816 102.012C127.116 101.448 127.266 100.794 127.266 100.05ZM138.487 96.486V102.3C138.487 102.78 138.589 103.122 138.793 103.326C138.997 103.518 139.351 103.614 139.855 103.614H141.061V105H139.585C138.673 105 137.989 104.79 137.533 104.37C137.077 103.95 136.849 103.26 136.849 102.3V96.486H135.571V95.136H136.849V92.652H138.487V95.136H141.061V96.486H138.487ZM143.891 93.534C143.579 93.534 143.315 93.426 143.099 93.21C142.883 92.994 142.775 92.73 142.775 92.418C142.775 92.106 142.883 91.842 143.099 91.626C143.315 91.41 143.579 91.302 143.891 91.302C144.191 91.302 144.443 91.41 144.647 91.626C144.863 91.842 144.971 92.106 144.971 92.418C144.971 92.73 144.863 92.994 144.647 93.21C144.443 93.426 144.191 93.534 143.891 93.534ZM144.683 95.136V105H143.045V95.136H144.683ZM159.337 94.956C160.105 94.956 160.789 95.118 161.389 95.442C161.989 95.754 162.463 96.228 162.811 96.864C163.159 97.5 163.333 98.274 163.333 99.186V105H161.713V99.42C161.713 98.436 161.467 97.686 160.975 97.17C160.495 96.642 159.841 96.378 159.013 96.378C158.161 96.378 157.483 96.654 156.979 97.206C156.475 97.746 156.223 98.532 156.223 99.564V105H154.603V99.42C154.603 98.436 154.357 97.686 153.865 97.17C153.385 96.642 152.731 96.378 151.903 96.378C151.051 96.378 150.373 96.654 149.869 97.206C149.365 97.746 149.113 98.532 149.113 99.564V105H147.475V95.136H149.113V96.558C149.437 96.042 149.869 95.646 150.409 95.37C150.961 95.094 151.567 94.956 152.227 94.956C153.055 94.956 153.787 95.142 154.423 95.514C155.059 95.886 155.533 96.432 155.845 97.152C156.121 96.456 156.577 95.916 157.213 95.532C157.849 95.148 158.557 94.956 159.337 94.956ZM175.02 99.69C175.02 100.002 175.002 100.332 174.966 100.68H167.082C167.142 101.652 167.472 102.414 168.072 102.966C168.684 103.506 169.422 103.776 170.286 103.776C170.994 103.776 171.582 103.614 172.05 103.29C172.53 102.954 172.866 102.51 173.058 101.958H174.822C174.558 102.906 174.03 103.68 173.238 104.28C172.446 104.868 171.462 105.162 170.286 105.162C169.35 105.162 168.51 104.952 167.766 104.532C167.034 104.112 166.458 103.518 166.038 102.75C165.618 101.97 165.408 101.07 165.408 100.05C165.408 99.03 165.612 98.136 166.02 97.368C166.428 96.6 166.998 96.012 167.73 95.604C168.474 95.184 169.326 94.974 170.286 94.974C171.222 94.974 172.05 95.178 172.77 95.586C173.49 95.994 174.042 96.558 174.426 97.278C174.822 97.986 175.02 98.79 175.02 99.69ZM173.328 99.348C173.328 98.724 173.19 98.19 172.914 97.746C172.638 97.29 172.26 96.948 171.78 96.72C171.312 96.48 170.79 96.36 170.214 96.36C169.386 96.36 168.678 96.624 168.09 97.152C167.514 97.68 167.184 98.412 167.1 99.348H173.328ZM180.674 105.162C179.918 105.162 179.24 105.036 178.64 104.784C178.04 104.52 177.566 104.16 177.218 103.704C176.87 103.236 176.678 102.702 176.642 102.102H178.334C178.382 102.594 178.61 102.996 179.018 103.308C179.438 103.62 179.984 103.776 180.656 103.776C181.28 103.776 181.772 103.638 182.132 103.362C182.492 103.086 182.672 102.738 182.672 102.318C182.672 101.886 182.48 101.568 182.096 101.364C181.712 101.148 181.118 100.938 180.314 100.734C179.582 100.542 178.982 100.35 178.514 100.158C178.058 99.954 177.662 99.66 177.326 99.276C177.002 98.88 176.84 98.364 176.84 97.728C176.84 97.224 176.99 96.762 177.29 96.342C177.59 95.922 178.016 95.592 178.568 95.352C179.12 95.1 179.75 94.974 180.458 94.974C181.55 94.974 182.432 95.25 183.104 95.802C183.776 96.354 184.136 97.11 184.184 98.07H182.546C182.51 97.554 182.3 97.14 181.916 96.828C181.544 96.516 181.04 96.36 180.404 96.36C179.816 96.36 179.348 96.486 179 96.738C178.652 96.99 178.478 97.32 178.478 97.728C178.478 98.052 178.58 98.322 178.784 98.538C179 98.742 179.264 98.91 179.576 99.042C179.9 99.162 180.344 99.3 180.908 99.456C181.616 99.648 182.192 99.84 182.636 100.032C183.08 100.212 183.458 100.488 183.77 100.86C184.094 101.232 184.262 101.718 184.274 102.318C184.274 102.858 184.124 103.344 183.824 103.776C183.524 104.208 183.098 104.55 182.546 104.802C182.006 105.042 181.382 105.162 180.674 105.162ZM204.525 95.136L201.447 105H199.755L197.379 97.17L195.003 105H193.311L190.215 95.136H191.889L194.157 103.416L196.605 95.136H198.279L200.673 103.434L202.905 95.136H204.525ZM206.997 93.534C206.685 93.534 206.421 93.426 206.205 93.21C205.989 92.994 205.881 92.73 205.881 92.418C205.881 92.106 205.989 91.842 206.205 91.626C206.421 91.41 206.685 91.302 206.997 91.302C207.297 91.302 207.549 91.41 207.753 91.626C207.969 91.842 208.077 92.106 208.077 92.418C208.077 92.73 207.969 92.994 207.753 93.21C207.549 93.426 207.297 93.534 206.997 93.534ZM207.789 95.136V105H206.151V95.136H207.789ZM212.578 96.486V102.3C212.578 102.78 212.68 103.122 212.884 103.326C213.088 103.518 213.442 103.614 213.946 103.614H215.152V105H213.676C212.764 105 212.08 104.79 211.624 104.37C211.168 103.95 210.94 103.26 210.94 102.3V96.486H209.662V95.136H210.94V92.652H212.578V95.136H215.152V96.486H212.578ZM222.033 94.956C222.777 94.956 223.449 95.118 224.049 95.442C224.649 95.754 225.117 96.228 225.453 96.864C225.801 97.5 225.975 98.274 225.975 99.186V105H224.355V99.42C224.355 98.436 224.109 97.686 223.617 97.17C223.125 96.642 222.453 96.378 221.601 96.378C220.737 96.378 220.047 96.648 219.531 97.188C219.027 97.728 218.775 98.514 218.775 99.546V105H217.137V91.68H218.775V96.54C219.099 96.036 219.543 95.646 220.107 95.37C220.683 95.094 221.325 94.956 222.033 94.956ZM85.4742 123.486H83.4042V132H81.7662V123.486H80.4882V122.136H81.7662V121.434C81.7662 120.33 82.0482 119.526 82.6122 119.022C83.1882 118.506 84.1062 118.248 85.3662 118.248V119.616C84.6462 119.616 84.1362 119.76 83.8362 120.048C83.5482 120.324 83.4042 120.786 83.4042 121.434V122.136H85.4742V123.486ZM89.022 123.738C89.31 123.174 89.718 122.736 90.246 122.424C90.786 122.112 91.44 121.956 92.208 121.956V123.648H91.776C89.94 123.648 89.022 124.644 89.022 126.636V132H87.384V122.136H89.022V123.738ZM94.9449 120.534C94.6329 120.534 94.3689 120.426 94.1529 120.21C93.9369 119.994 93.8289 119.73 93.8289 119.418C93.8289 119.106 93.9369 118.842 94.1529 118.626C94.3689 118.41 94.6329 118.302 94.9449 118.302C95.2449 118.302 95.4969 118.41 95.7009 118.626C95.9169 118.842 96.0249 119.106 96.0249 119.418C96.0249 119.73 95.9169 119.994 95.7009 120.21C95.4969 120.426 95.2449 120.534 94.9449 120.534ZM95.7369 122.136V132H94.0989V122.136H95.7369ZM107.529 126.69C107.529 127.002 107.511 127.332 107.475 127.68H99.5906C99.6506 128.652 99.9806 129.414 100.581 129.966C101.193 130.506 101.931 130.776 102.795 130.776C103.503 130.776 104.091 130.614 104.559 130.29C105.039 129.954 105.375 129.51 105.567 128.958H107.331C107.067 129.906 106.539 130.68 105.747 131.28C104.955 131.868 103.971 132.162 102.795 132.162C101.859 132.162 101.019 131.952 100.275 131.532C99.5426 131.112 98.9666 130.518 98.5466 129.75C98.1266 128.97 97.9166 128.07 97.9166 127.05C97.9166 126.03 98.1206 125.136 98.5286 124.368C98.9366 123.6 99.5066 123.012 100.239 122.604C100.983 122.184 101.835 121.974 102.795 121.974C103.731 121.974 104.559 122.178 105.279 122.586C105.999 122.994 106.551 123.558 106.935 124.278C107.331 124.986 107.529 125.79 107.529 126.69ZM105.837 126.348C105.837 125.724 105.699 125.19 105.423 124.746C105.147 124.29 104.769 123.948 104.289 123.72C103.821 123.48 103.299 123.36 102.723 123.36C101.895 123.36 101.187 123.624 100.599 124.152C100.023 124.68 99.6926 125.412 99.6086 126.348H105.837ZM114.497 121.956C115.697 121.956 116.669 122.322 117.413 123.054C118.157 123.774 118.529 124.818 118.529 126.186V132H116.909V126.42C116.909 125.436 116.663 124.686 116.171 124.17C115.679 123.642 115.007 123.378 114.155 123.378C113.291 123.378 112.601 123.648 112.085 124.188C111.581 124.728 111.329 125.514 111.329 126.546V132H109.691V122.136H111.329V123.54C111.653 123.036 112.091 122.646 112.643 122.37C113.207 122.094 113.825 121.956 114.497 121.956ZM120.592 127.032C120.592 126.024 120.796 125.142 121.204 124.386C121.612 123.618 122.17 123.024 122.878 122.604C123.598 122.184 124.402 121.974 125.29 121.974C126.058 121.974 126.772 122.154 127.432 122.514C128.092 122.862 128.596 123.324 128.944 123.9V118.68H130.6V132H128.944V130.146C128.62 130.734 128.14 131.22 127.504 131.604C126.868 131.976 126.124 132.162 125.272 132.162C124.396 132.162 123.598 131.946 122.878 131.514C122.17 131.082 121.612 130.476 121.204 129.696C120.796 128.916 120.592 128.028 120.592 127.032ZM128.944 127.05C128.944 126.306 128.794 125.658 128.494 125.106C128.194 124.554 127.786 124.134 127.27 123.846C126.766 123.546 126.208 123.396 125.596 123.396C124.984 123.396 124.426 123.54 123.922 123.828C123.418 124.116 123.016 124.536 122.716 125.088C122.416 125.64 122.266 126.288 122.266 127.032C122.266 127.788 122.416 128.448 122.716 129.012C123.016 129.564 123.418 129.99 123.922 130.29C124.426 130.578 124.984 130.722 125.596 130.722C126.208 130.722 126.766 130.578 127.27 130.29C127.786 129.99 128.194 129.564 128.494 129.012C128.794 128.448 128.944 127.794 128.944 127.05ZM136.86 132.162C136.104 132.162 135.426 132.036 134.826 131.784C134.226 131.52 133.752 131.16 133.404 130.704C133.056 130.236 132.864 129.702 132.828 129.102H134.52C134.568 129.594 134.796 129.996 135.204 130.308C135.624 130.62 136.17 130.776 136.842 130.776C137.466 130.776 137.958 130.638 138.318 130.362C138.678 130.086 138.858 129.738 138.858 129.318C138.858 128.886 138.666 128.568 138.282 128.364C137.898 128.148 137.304 127.938 136.5 127.734C135.768 127.542 135.168 127.35 134.7 127.158C134.244 126.954 133.848 126.66 133.512 126.276C133.188 125.88 133.026 125.364 133.026 124.728C133.026 124.224 133.176 123.762 133.476 123.342C133.776 122.922 134.202 122.592 134.754 122.352C135.306 122.1 135.936 121.974 136.644 121.974C137.736 121.974 138.618 122.25 139.29 122.802C139.962 123.354 140.322 124.11 140.37 125.07H138.732C138.696 124.554 138.486 124.14 138.102 123.828C137.73 123.516 137.226 123.36 136.59 123.36C136.002 123.36 135.534 123.486 135.186 123.738C134.838 123.99 134.664 124.32 134.664 124.728C134.664 125.052 134.766 125.322 134.97 125.538C135.186 125.742 135.45 125.91 135.762 126.042C136.086 126.162 136.53 126.3 137.094 126.456C137.802 126.648 138.378 126.84 138.822 127.032C139.266 127.212 139.644 127.488 139.956 127.86C140.28 128.232 140.448 128.718 140.46 129.318C140.46 129.858 140.31 130.344 140.01 130.776C139.71 131.208 139.284 131.55 138.732 131.802C138.192 132.042 137.568 132.162 136.86 132.162ZM157.202 132L155.564 130.344C154.952 130.98 154.298 131.454 153.602 131.766C152.906 132.066 152.12 132.216 151.244 132.216C150.38 132.216 149.612 132.06 148.94 131.748C148.28 131.436 147.764 130.992 147.392 130.416C147.032 129.84 146.852 129.168 146.852 128.4C146.852 127.524 147.098 126.756 147.59 126.096C148.094 125.424 148.832 124.896 149.804 124.512C149.42 124.056 149.144 123.636 148.976 123.252C148.808 122.868 148.724 122.448 148.724 121.992C148.724 121.464 148.856 120.99 149.12 120.57C149.396 120.138 149.786 119.802 150.29 119.562C150.794 119.322 151.376 119.202 152.036 119.202C152.684 119.202 153.248 119.328 153.728 119.58C154.208 119.832 154.568 120.186 154.808 120.642C155.048 121.086 155.156 121.584 155.132 122.136H153.494C153.506 121.644 153.368 121.26 153.08 120.984C152.792 120.696 152.42 120.552 151.964 120.552C151.484 120.552 151.094 120.69 150.794 120.966C150.506 121.23 150.362 121.572 150.362 121.992C150.362 122.352 150.458 122.7 150.65 123.036C150.854 123.372 151.19 123.786 151.658 124.278L155.402 128.04L155.726 127.536L156.95 125.484H158.714L157.238 128.04C157.034 128.4 156.794 128.778 156.518 129.174L159.344 132H157.202ZM151.244 130.812C151.892 130.812 152.474 130.686 152.99 130.434C153.518 130.182 154.016 129.792 154.484 129.264L150.794 125.556C149.258 126.144 148.49 127.074 148.49 128.346C148.49 129.054 148.742 129.642 149.246 130.11C149.762 130.578 150.428 130.812 151.244 130.812ZM169.691 123.486H167.621V132H165.983V123.486H164.705V122.136H165.983V121.434C165.983 120.33 166.265 119.526 166.829 119.022C167.405 118.506 168.323 118.248 169.583 118.248V119.616C168.863 119.616 168.353 119.76 168.053 120.048C167.765 120.324 167.621 120.786 167.621 121.434V122.136H169.691V123.486ZM170.989 127.032C170.989 126.024 171.193 125.142 171.601 124.386C172.009 123.618 172.567 123.024 173.275 122.604C173.995 122.184 174.793 121.974 175.669 121.974C176.533 121.974 177.283 122.16 177.919 122.532C178.555 122.904 179.029 123.372 179.341 123.936V122.136H180.997V132H179.341V130.164C179.017 130.74 178.531 131.22 177.883 131.604C177.247 131.976 176.503 132.162 175.651 132.162C174.775 132.162 173.983 131.946 173.275 131.514C172.567 131.082 172.009 130.476 171.601 129.696C171.193 128.916 170.989 128.028 170.989 127.032ZM179.341 127.05C179.341 126.306 179.191 125.658 178.891 125.106C178.591 124.554 178.183 124.134 177.667 123.846C177.163 123.546 176.605 123.396 175.993 123.396C175.381 123.396 174.823 123.54 174.319 123.828C173.815 124.116 173.413 124.536 173.113 125.088C172.813 125.64 172.663 126.288 172.663 127.032C172.663 127.788 172.813 128.448 173.113 129.012C173.413 129.564 173.815 129.99 174.319 130.29C174.823 130.578 175.381 130.722 175.993 130.722C176.605 130.722 177.163 130.578 177.667 130.29C178.183 129.99 178.591 129.564 178.891 129.012C179.191 128.448 179.341 127.794 179.341 127.05ZM195.627 121.956C196.395 121.956 197.079 122.118 197.679 122.442C198.279 122.754 198.753 123.228 199.101 123.864C199.449 124.5 199.623 125.274 199.623 126.186V132H198.003V126.42C198.003 125.436 197.757 124.686 197.265 124.17C196.785 123.642 196.131 123.378 195.303 123.378C194.451 123.378 193.773 123.654 193.269 124.206C192.765 124.746 192.513 125.532 192.513 126.564V132H190.893V126.42C190.893 125.436 190.647 124.686 190.155 124.17C189.675 123.642 189.021 123.378 188.193 123.378C187.341 123.378 186.663 123.654 186.159 124.206C185.655 124.746 185.403 125.532 185.403 126.564V132H183.765V122.136H185.403V123.558C185.727 123.042 186.159 122.646 186.699 122.37C187.251 122.094 187.857 121.956 188.517 121.956C189.345 121.956 190.077 122.142 190.713 122.514C191.349 122.886 191.823 123.432 192.135 124.152C192.411 123.456 192.867 122.916 193.503 122.532C194.139 122.148 194.847 121.956 195.627 121.956ZM203.156 120.534C202.844 120.534 202.58 120.426 202.364 120.21C202.148 119.994 202.04 119.73 202.04 119.418C202.04 119.106 202.148 118.842 202.364 118.626C202.58 118.41 202.844 118.302 203.156 118.302C203.456 118.302 203.708 118.41 203.912 118.626C204.128 118.842 204.236 119.106 204.236 119.418C204.236 119.73 204.128 119.994 203.912 120.21C203.708 120.426 203.456 120.534 203.156 120.534ZM203.948 122.136V132H202.31V122.136H203.948ZM208.378 118.68V132H206.74V118.68H208.378ZM219.665 122.136L213.725 136.644H212.033L213.977 131.892L209.999 122.136H211.817L214.913 130.128L217.973 122.136H219.665Z" fill="white"/>
</g>
</svg>
