<svg width="300" height="225" viewBox="0 0 300 225" fill="none" xmlns="http://www.w3.org/2000/svg">
<g id="yellow-2">
<rect id="Rectangle 11" width="300" height="225" fill="#DFC479"/>
<path id="Grow as a person" d="M82.0873 110.09C81.7393 109.358 81.2353 108.794 80.5753 108.398C79.9153 107.99 79.1473 107.786 78.2713 107.786C77.3953 107.786 76.6033 107.99 75.8953 108.398C75.1993 108.794 74.6473 109.37 74.2393 110.126C73.8433 110.87 73.6453 111.734 73.6453 112.718C73.6453 113.702 73.8433 114.566 74.2393 115.31C74.6473 116.054 75.1993 116.63 75.8953 117.038C76.6033 117.434 77.3953 117.632 78.2713 117.632C79.4953 117.632 80.5033 117.266 81.2953 116.534C82.0873 115.802 82.5493 114.812 82.6813 113.564H77.6773V112.232H84.4273V113.492C84.3313 114.524 84.0073 115.472 83.4553 116.336C82.9033 117.188 82.1773 117.866 81.2773 118.37C80.3773 118.862 79.3753 119.108 78.2713 119.108C77.1073 119.108 76.0453 118.838 75.0853 118.298C74.1253 117.746 73.3633 116.984 72.7993 116.012C72.2473 115.04 71.9713 113.942 71.9713 112.718C71.9713 111.494 72.2473 110.396 72.7993 109.424C73.3633 108.44 74.1253 107.678 75.0853 107.138C76.0453 106.586 77.1073 106.31 78.2713 106.31C79.6033 106.31 80.7793 106.64 81.7993 107.3C82.8313 107.96 83.5813 108.89 84.0493 110.09H82.0873ZM88.231 110.738C88.519 110.174 88.927 109.736 89.455 109.424C89.995 109.112 90.649 108.956 91.417 108.956V110.648H90.985C89.149 110.648 88.231 111.644 88.231 113.636V119H86.593V109.136H88.231V110.738ZM97.6099 119.162C96.6859 119.162 95.8459 118.952 95.0899 118.532C94.3459 118.112 93.7579 117.518 93.3259 116.75C92.9059 115.97 92.6959 115.07 92.6959 114.05C92.6959 113.042 92.9119 112.154 93.3439 111.386C93.7879 110.606 94.3879 110.012 95.1439 109.604C95.8999 109.184 96.7459 108.974 97.6819 108.974C98.6179 108.974 99.4639 109.184 100.22 109.604C100.976 110.012 101.57 110.6 102.002 111.368C102.446 112.136 102.668 113.03 102.668 114.05C102.668 115.07 102.44 115.97 101.984 116.75C101.54 117.518 100.934 118.112 100.166 118.532C99.3979 118.952 98.5459 119.162 97.6099 119.162ZM97.6099 117.722C98.1979 117.722 98.7499 117.584 99.2659 117.308C99.7819 117.032 100.196 116.618 100.508 116.066C100.832 115.514 100.994 114.842 100.994 114.05C100.994 113.258 100.838 112.586 100.526 112.034C100.214 111.482 99.8059 111.074 99.3019 110.81C98.7979 110.534 98.2519 110.396 97.6639 110.396C97.0639 110.396 96.5119 110.534 96.0079 110.81C95.5159 111.074 95.1199 111.482 94.8199 112.034C94.5199 112.586 94.3699 113.258 94.3699 114.05C94.3699 114.854 94.5139 115.532 94.8019 116.084C95.1019 116.636 95.4979 117.05 95.9899 117.326C96.4819 117.59 97.0219 117.722 97.6099 117.722ZM117.962 109.136L114.884 119H113.192L110.816 111.17L108.44 119H106.748L103.652 109.136H105.326L107.594 117.416L110.042 109.136H111.716L114.11 117.434L116.342 109.136H117.962ZM123.774 114.032C123.774 113.024 123.978 112.142 124.386 111.386C124.794 110.618 125.352 110.024 126.06 109.604C126.78 109.184 127.578 108.974 128.454 108.974C129.318 108.974 130.068 109.16 130.704 109.532C131.34 109.904 131.814 110.372 132.126 110.936V109.136H133.782V119H132.126V117.164C131.802 117.74 131.316 118.22 130.668 118.604C130.032 118.976 129.288 119.162 128.436 119.162C127.56 119.162 126.768 118.946 126.06 118.514C125.352 118.082 124.794 117.476 124.386 116.696C123.978 115.916 123.774 115.028 123.774 114.032ZM132.126 114.05C132.126 113.306 131.976 112.658 131.676 112.106C131.376 111.554 130.968 111.134 130.452 110.846C129.948 110.546 129.39 110.396 128.778 110.396C128.166 110.396 127.608 110.54 127.104 110.828C126.6 111.116 126.198 111.536 125.898 112.088C125.598 112.64 125.448 113.288 125.448 114.032C125.448 114.788 125.598 115.448 125.898 116.012C126.198 116.564 126.6 116.99 127.104 117.29C127.608 117.578 128.166 117.722 128.778 117.722C129.39 117.722 129.948 117.578 130.452 117.29C130.968 116.99 131.376 116.564 131.676 116.012C131.976 115.448 132.126 114.794 132.126 114.05ZM140.042 119.162C139.286 119.162 138.608 119.036 138.008 118.784C137.408 118.52 136.934 118.16 136.586 117.704C136.238 117.236 136.046 116.702 136.01 116.102H137.702C137.75 116.594 137.978 116.996 138.386 117.308C138.806 117.62 139.352 117.776 140.024 117.776C140.648 117.776 141.14 117.638 141.5 117.362C141.86 117.086 142.04 116.738 142.04 116.318C142.04 115.886 141.848 115.568 141.464 115.364C141.08 115.148 140.486 114.938 139.682 114.734C138.95 114.542 138.35 114.35 137.882 114.158C137.426 113.954 137.03 113.66 136.694 113.276C136.37 112.88 136.208 112.364 136.208 111.728C136.208 111.224 136.358 110.762 136.658 110.342C136.958 109.922 137.384 109.592 137.936 109.352C138.488 109.1 139.118 108.974 139.826 108.974C140.918 108.974 141.8 109.25 142.472 109.802C143.144 110.354 143.504 111.11 143.552 112.07H141.914C141.878 111.554 141.668 111.14 141.284 110.828C140.912 110.516 140.408 110.36 139.772 110.36C139.184 110.36 138.716 110.486 138.368 110.738C138.02 110.99 137.846 111.32 137.846 111.728C137.846 112.052 137.948 112.322 138.152 112.538C138.368 112.742 138.632 112.91 138.944 113.042C139.268 113.162 139.712 113.3 140.276 113.456C140.984 113.648 141.56 113.84 142.004 114.032C142.448 114.212 142.826 114.488 143.138 114.86C143.462 115.232 143.63 115.718 143.642 116.318C143.642 116.858 143.492 117.344 143.192 117.776C142.892 118.208 142.466 118.55 141.914 118.802C141.374 119.042 140.75 119.162 140.042 119.162ZM150.141 114.032C150.141 113.024 150.345 112.142 150.753 111.386C151.161 110.618 151.719 110.024 152.427 109.604C153.147 109.184 153.945 108.974 154.821 108.974C155.685 108.974 156.435 109.16 157.071 109.532C157.707 109.904 158.181 110.372 158.493 110.936V109.136H160.149V119H158.493V117.164C158.169 117.74 157.683 118.22 157.035 118.604C156.399 118.976 155.655 119.162 154.803 119.162C153.927 119.162 153.135 118.946 152.427 118.514C151.719 118.082 151.161 117.476 150.753 116.696C150.345 115.916 150.141 115.028 150.141 114.032ZM158.493 114.05C158.493 113.306 158.343 112.658 158.043 112.106C157.743 111.554 157.335 111.134 156.819 110.846C156.315 110.546 155.757 110.396 155.145 110.396C154.533 110.396 153.975 110.54 153.471 110.828C152.967 111.116 152.565 111.536 152.265 112.088C151.965 112.64 151.815 113.288 151.815 114.032C151.815 114.788 151.965 115.448 152.265 116.012C152.565 116.564 152.967 116.99 153.471 117.29C153.975 117.578 154.533 117.722 155.145 117.722C155.757 117.722 156.315 117.578 156.819 117.29C157.335 116.99 157.743 116.564 158.043 116.012C158.343 115.448 158.493 114.794 158.493 114.05ZM169.354 110.954C169.678 110.39 170.158 109.922 170.794 109.55C171.442 109.166 172.192 108.974 173.044 108.974C173.92 108.974 174.712 109.184 175.42 109.604C176.14 110.024 176.704 110.618 177.112 111.386C177.52 112.142 177.724 113.024 177.724 114.032C177.724 115.028 177.52 115.916 177.112 116.696C176.704 117.476 176.14 118.082 175.42 118.514C174.712 118.946 173.92 119.162 173.044 119.162C172.204 119.162 171.46 118.976 170.812 118.604C170.176 118.22 169.69 117.746 169.354 117.182V123.68H167.716V109.136H169.354V110.954ZM176.05 114.032C176.05 113.288 175.9 112.64 175.6 112.088C175.3 111.536 174.892 111.116 174.376 110.828C173.872 110.54 173.314 110.396 172.702 110.396C172.102 110.396 171.544 110.546 171.028 110.846C170.524 111.134 170.116 111.56 169.804 112.124C169.504 112.676 169.354 113.318 169.354 114.05C169.354 114.794 169.504 115.448 169.804 116.012C170.116 116.564 170.524 116.99 171.028 117.29C171.544 117.578 172.102 117.722 172.702 117.722C173.314 117.722 173.872 117.578 174.376 117.29C174.892 116.99 175.3 116.564 175.6 116.012C175.9 115.448 176.05 114.788 176.05 114.032ZM188.88 113.69C188.88 114.002 188.862 114.332 188.826 114.68H180.942C181.002 115.652 181.332 116.414 181.932 116.966C182.544 117.506 183.282 117.776 184.146 117.776C184.854 117.776 185.442 117.614 185.91 117.29C186.39 116.954 186.726 116.51 186.918 115.958H188.682C188.418 116.906 187.89 117.68 187.098 118.28C186.306 118.868 185.322 119.162 184.146 119.162C183.21 119.162 182.37 118.952 181.626 118.532C180.894 118.112 180.318 117.518 179.898 116.75C179.478 115.97 179.268 115.07 179.268 114.05C179.268 113.03 179.472 112.136 179.88 111.368C180.288 110.6 180.858 110.012 181.59 109.604C182.334 109.184 183.186 108.974 184.146 108.974C185.082 108.974 185.91 109.178 186.63 109.586C187.35 109.994 187.902 110.558 188.286 111.278C188.682 111.986 188.88 112.79 188.88 113.69ZM187.188 113.348C187.188 112.724 187.05 112.19 186.774 111.746C186.498 111.29 186.12 110.948 185.64 110.72C185.172 110.48 184.65 110.36 184.074 110.36C183.246 110.36 182.538 110.624 181.95 111.152C181.374 111.68 181.044 112.412 180.96 113.348H187.188ZM192.68 110.738C192.968 110.174 193.376 109.736 193.904 109.424C194.444 109.112 195.098 108.956 195.866 108.956V110.648H195.434C193.598 110.648 192.68 111.644 192.68 113.636V119H191.042V109.136H192.68V110.738ZM201.249 119.162C200.493 119.162 199.815 119.036 199.215 118.784C198.615 118.52 198.141 118.16 197.793 117.704C197.445 117.236 197.253 116.702 197.217 116.102H198.909C198.957 116.594 199.185 116.996 199.593 117.308C200.013 117.62 200.559 117.776 201.231 117.776C201.855 117.776 202.347 117.638 202.707 117.362C203.067 117.086 203.247 116.738 203.247 116.318C203.247 115.886 203.055 115.568 202.671 115.364C202.287 115.148 201.693 114.938 200.889 114.734C200.157 114.542 199.557 114.35 199.089 114.158C198.633 113.954 198.237 113.66 197.901 113.276C197.577 112.88 197.415 112.364 197.415 111.728C197.415 111.224 197.565 110.762 197.865 110.342C198.165 109.922 198.591 109.592 199.143 109.352C199.695 109.1 200.325 108.974 201.033 108.974C202.125 108.974 203.007 109.25 203.679 109.802C204.351 110.354 204.711 111.11 204.759 112.07H203.121C203.085 111.554 202.875 111.14 202.491 110.828C202.119 110.516 201.615 110.36 200.979 110.36C200.391 110.36 199.923 110.486 199.575 110.738C199.227 110.99 199.053 111.32 199.053 111.728C199.053 112.052 199.155 112.322 199.359 112.538C199.575 112.742 199.839 112.91 200.151 113.042C200.475 113.162 200.919 113.3 201.483 113.456C202.191 113.648 202.767 113.84 203.211 114.032C203.655 114.212 204.033 114.488 204.345 114.86C204.669 115.232 204.837 115.718 204.849 116.318C204.849 116.858 204.699 117.344 204.399 117.776C204.099 118.208 203.673 118.55 203.121 118.802C202.581 119.042 201.957 119.162 201.249 119.162ZM211.463 119.162C210.539 119.162 209.699 118.952 208.943 118.532C208.199 118.112 207.611 117.518 207.179 116.75C206.759 115.97 206.549 115.07 206.549 114.05C206.549 113.042 206.765 112.154 207.197 111.386C207.641 110.606 208.241 110.012 208.997 109.604C209.753 109.184 210.599 108.974 211.535 108.974C212.471 108.974 213.317 109.184 214.073 109.604C214.829 110.012 215.423 110.6 215.855 111.368C216.299 112.136 216.521 113.03 216.521 114.05C216.521 115.07 216.293 115.97 215.837 116.75C215.393 117.518 214.787 118.112 214.019 118.532C213.251 118.952 212.399 119.162 211.463 119.162ZM211.463 117.722C212.051 117.722 212.603 117.584 213.119 117.308C213.635 117.032 214.049 116.618 214.361 116.066C214.685 115.514 214.847 114.842 214.847 114.05C214.847 113.258 214.691 112.586 214.379 112.034C214.067 111.482 213.659 111.074 213.155 110.81C212.651 110.534 212.105 110.396 211.517 110.396C210.917 110.396 210.365 110.534 209.861 110.81C209.369 111.074 208.973 111.482 208.673 112.034C208.373 112.586 208.223 113.258 208.223 114.05C208.223 114.854 208.367 115.532 208.655 116.084C208.955 116.636 209.351 117.05 209.843 117.326C210.335 117.59 210.875 117.722 211.463 117.722ZM223.481 108.956C224.681 108.956 225.653 109.322 226.397 110.054C227.141 110.774 227.513 111.818 227.513 113.186V119H225.893V113.42C225.893 112.436 225.647 111.686 225.155 111.17C224.663 110.642 223.991 110.378 223.139 110.378C222.275 110.378 221.585 110.648 221.069 111.188C220.565 111.728 220.313 112.514 220.313 113.546V119H218.675V109.136H220.313V110.54C220.637 110.036 221.075 109.646 221.627 109.37C222.191 109.094 222.809 108.956 223.481 108.956Z" fill="white"/>
</g>
</svg>
